<?xml version="1.0" encoding="UTF-8"?>
<svg width="16px" height="16px" viewBox="0 0 16 16" version="1.1" xmlns="http://www.w3.org/2000/svg" xmlns:xlink="http://www.w3.org/1999/xlink">
    <!-- Generator: Sketch 55.2 (78181) - https://sketchapp.com -->
    <title>放大</title>
    <desc>Created with Sketch.</desc>
    <defs>
        <rect id="path-1" x="0" y="0" width="16" height="16"></rect>
    </defs>
    <g id="标注工具" stroke="none" stroke-width="1" fill="none" fill-rule="evenodd">
        <g id="icon-切图" transform="translate(-437.000000, -125.000000)">
            <g id="放大" transform="translate(437.000000, 125.000000)">
                <mask id="mask-2" fill="white">
                    <use xlink:href="#path-1"></use>
                </mask>
                <g id="矩形"></g>
                <g id="对比度" mask="url(#mask-2)" fill="#666666" fill-rule="nonzero">
                    <path d="M2.25471549,13.5345736 L2.28377061,13.5698491 C3.71170509,15.0309327 5.68912337,15.9414593 7.8824479,15.9747872 L7.90975417,15.9750853 C10.0876767,15.988818 12.0717327,15.1310159 13.5224026,13.7355349 L13.5574794,13.6912368 C15.0213452,12.2613547 15.9294671,10.2834793 15.953216,8.07801203 C15.9769053,5.87765227 15.1116308,3.87626648 13.6789465,2.40995617 C12.2489055,0.958829251 10.2741105,0.0535890334 8.08152127,0.0199232337 L8.054215,0.0194677151 C5.86069173,0.00607137034 3.86417498,0.868563587 2.40521788,2.28856852 C0.946896739,3.72375685 0.0338461956,5.70596465 0.0101569293,7.90634429 C-0.0134329775,10.0976219 0.837115237,12.0836653 2.25471549,13.5345736 Z M8.67367358,1.27768049 C10.286452,1.44950722 11.7315969,2.17528929 12.8057027,3.27521081 L12.8101743,3.27525056 L12.8057027,3.27521081 C14.0068005,4.50975576 14.7514227,6.20240594 14.7313703,8.06481599 C14.7112582,9.93241304 13.9304662,11.5989096 12.7029763,12.8173769 L12.6725102,12.8468295 C11.5832608,13.8981403 10.127702,14.5878121 8.52895439,14.7198719 L8.67367358,1.27768049 Z M7.29456842,14.7066162 C6.99960518,14.6688366 6.70388674,14.6358664 6.42424602,14.5580416 L7.305479,13.6932043 L7.29456842,14.7066162 Z M7.31664792,12.655169 L5.61932747,14.3211687 C5.35725495,14.2186411 5.10778228,14.1065343 4.87090943,13.9751901 L7.32835345,11.5672908 L7.31664792,12.655169 L7.31664792,12.655169 Z M7.33948263,10.5341444 L4.20886184,13.5905772 C3.99188241,13.4490378 3.79237184,13.2931298 3.59790914,13.1165136 L7.35124779,9.44143698 L7.33948263,10.5341444 L7.33948263,10.5341444 Z M7.36247634,8.39823455 L3.0596539,12.6145077 C2.88230233,12.4284316 2.71542413,12.2330349 2.5667501,12.0178242 L7.37412224,7.31524528 L7.36247634,8.39823455 Z M7.38531104,6.27721 L2.16071359,11.3977495 C2.01426539,11.1672561 1.89530231,10.9274022 1.79380809,10.6783866 L7.3969967,5.19414125 L7.38531104,6.27721 L7.38531104,6.27721 Z M7.40816562,4.15584759 L1.5134718,9.91983307 C1.42966504,9.63568106 1.36076343,9.34198971 1.31408045,9.04817915 L7.41983141,3.0727987 L7.40816562,4.15584759 Z M3.26558364,3.17250431 C3.94068814,2.50868797 4.75868348,1.98561613 5.66915047,1.65295276 L1.69467882,5.54002052 C2.04222748,4.64447857 2.58529212,3.83556545 3.26558364,3.17250431 Z M7.06902349,1.30580157 C7.19108684,1.29187021 7.32002644,1.28326497 7.43928762,1.26440497 L7.43109971,2.02476702 L1.23742818,8.09337428 L1.23929629,7.91958009 C1.24287352,7.58679748 1.26860978,7.25951986 1.31737946,6.93695225 L7.06902349,1.30580157 L7.06902349,1.30580157 Z" id="形状"></path>
                </g>
            </g>
        </g>
    </g>
</svg>