<?xml version="1.0" encoding="UTF-8"?>
<svg width="16px" height="16px" viewBox="0 0 16 16" version="1.1" xmlns="http://www.w3.org/2000/svg" xmlns:xlink="http://www.w3.org/1999/xlink">
    <!-- Generator: Sketch 55.2 (78181) - https://sketchapp.com -->
    <title>饱和度</title>
    <desc>Created with Sketch.</desc>
    <defs>
        <rect id="path-1" x="0" y="0" width="16" height="16"></rect>
    </defs>
    <g id="标注工具" stroke="none" stroke-width="1" fill="none" fill-rule="evenodd">
        <g id="icon-切图" transform="translate(-481.000000, -124.000000)">
            <g id="饱和度" transform="translate(481.000000, 124.000000)">
                <mask id="mask-2" fill="white">
                    <use xlink:href="#path-1"></use>
                </mask>
                <g id="矩形"></g>
                <g id="饱和度-(1)" mask="url(#mask-2)" fill="#666666" fill-rule="nonzero">
                    <g transform="translate(2.000000, 0.000000)">
                        <path d="M6.28551136,15.9450284 C2.821875,15.9450284 0.0127840909,13.1268466 0.0127840909,9.67230114 C0.0127840909,5.09048295 5.24914773,0.00866477273 6.28551136,0.00866477273 C7.15823864,0.00866477273 12.5582386,5.39957386 12.5582386,9.67230114 C12.5582386,13.1268466 9.74914773,15.9450284 6.28551136,15.9450284 Z M6.26732955,1.21775568 C5.21278409,1.96321023 1.14914773,5.79957386 1.14914773,9.66321023 C1.14914773,12.4995739 3.45823864,14.8086648 6.29460227,14.8086648 C9.13096591,14.8086648 11.4400568,12.4995739 11.4400568,9.66321023 C11.4309659,6.2359375 7.30369318,2.04502841 6.26732955,1.21775568 Z" id="形状"></path>
                        <path d="M9.20369318,6.91775568 C10.7764205,8.49048295 10.7764205,11.0450284 9.20369318,12.6177557 C7.63096591,14.190483 5.07642045,14.190483 3.50369318,12.6177557 L9.20369318,6.91775568 Z" id="路径"></path>
                    </g>
                </g>
            </g>
        </g>
    </g>
</svg>