<svg width="20" height="20" viewBox="0 0 20 20" fill="none" xmlns="http://www.w3.org/2000/svg">
<path fill-rule="evenodd" clip-rule="evenodd" d="M10.6072 15.1277C10.6072 13.5502 11.8837 12.2705 13.4572 12.2705C15.0306 12.2705 16.3053 13.5502 16.3071 15.1258C16.3071 16.7033 15.0306 17.983 13.4572 17.983C11.8837 17.983 10.6072 16.7051 10.6072 15.1277ZM12.0684 15.1513C12.0684 15.9609 12.7239 16.6161 13.5296 16.6161C14.3353 16.6161 14.9908 15.9609 14.9908 15.1513C14.9908 14.3435 14.3372 13.6864 13.5296 13.6864C12.722 13.6864 12.0684 14.3435 12.0684 15.1513Z" fill="#333"/>
<path fill-rule="evenodd" clip-rule="evenodd" d="M3.88892 15.1277C3.88892 13.5502 5.16543 12.2705 6.73889 12.2705C8.31237 12.2705 9.58707 13.5502 9.58888 15.1258C9.58888 16.7033 8.31235 17.983 6.73889 17.983C5.16543 17.983 3.88892 16.7051 3.88892 15.1277ZM5.35013 15.1513C5.35013 15.9609 6.00559 16.6161 6.81133 16.6161C7.61708 16.6161 8.27253 15.9609 8.27253 15.1513C8.27253 14.3435 7.61889 13.6864 6.81133 13.6864C6.00378 13.6864 5.35013 14.3435 5.35013 15.1513Z" fill="#333"/>
<path fill-rule="evenodd" clip-rule="evenodd" d="M16.2093 5.97008C16.2093 5.97008 17.1835 4.16393 15.6245 2.15993L10.1201 9.29191L4.32235 1.86768C4.32235 1.86768 2.52075 4.11493 4.22639 6.50738C5.93203 8.89984 10.1201 13.7356 10.1201 13.7356L16.2093 5.97008ZM10.8516 11.3902C10.8516 11.795 10.5239 12.1236 10.1201 12.1236C9.71629 12.1236 9.38856 11.795 9.38856 11.3902C9.38856 10.9854 9.7163 10.6569 10.1201 10.6569C10.5239 10.6569 10.8516 10.9854 10.8516 11.3902Z" fill="#333"/>
</svg>
