<svg width="12" height="12" viewBox="0 0 12 12" fill="none" xmlns="http://www.w3.org/2000/svg">
<path fill-rule="evenodd" clip-rule="evenodd" d="M6.36426 9.07659C6.36426 8.13014 7.13017 7.3623 8.07424 7.3623C9.01833 7.3623 9.78315 8.13014 9.78424 9.07551C9.78424 10.022 9.01832 10.7898 8.07424 10.7898C7.13017 10.7898 6.36426 10.023 6.36426 9.07659ZM7.24099 9.09076C7.24099 9.57651 7.63427 9.96968 8.11771 9.96968C8.60116 9.96968 8.99443 9.57651 8.99443 9.09076C8.99443 8.6061 8.60224 8.21183 8.11771 8.21183C7.63318 8.21183 7.24099 8.60609 7.24099 9.09076Z" fill="#666666"/>
<path fill-rule="evenodd" clip-rule="evenodd" d="M2.33337 9.07659C2.33337 8.13014 3.09928 7.3623 4.04336 7.3623C4.98744 7.3623 5.75226 8.13014 5.75335 9.07551C5.75335 10.022 4.98744 10.7898 4.04336 10.7898C3.09928 10.7898 2.33337 10.023 2.33337 9.07659ZM3.2101 9.09076C3.2101 9.57651 3.60338 9.96968 4.08682 9.96968C4.57027 9.96968 4.96354 9.57651 4.96354 9.09076C4.96354 8.6061 4.57136 8.21183 4.08682 8.21183C3.60229 8.21183 3.2101 8.60609 3.2101 9.09076Z" fill="#666666"/>
<path fill-rule="evenodd" clip-rule="evenodd" d="M9.72559 3.58156C9.72559 3.58156 10.3101 2.49787 9.37469 1.29547L6.07205 5.57466L2.59341 1.12012C2.59341 1.12012 1.51245 2.46847 2.53583 3.90394C3.55922 5.33941 6.07205 8.24086 6.07205 8.24086L9.72559 3.58156ZM6.51095 6.83365C6.51095 7.07653 6.31431 7.27366 6.07205 7.27366C5.82977 7.27366 5.63314 7.07652 5.63314 6.83365C5.63314 6.59077 5.82978 6.39364 6.07205 6.39364C6.31432 6.39364 6.51095 6.59077 6.51095 6.83365Z" fill="#666666"/>
</svg>
