<svg width="12" height="12" viewBox="0 0 12 12" fill="none" xmlns="http://www.w3.org/2000/svg">
<path d="M1.59375 6.46875H2.33906C2.39063 6.46875 2.43281 6.42657 2.43281 6.375V3.38321H8.62734V4.23399C8.62734 4.25625 8.63438 4.27735 8.64844 4.29492C8.65633 4.30505 8.66615 4.31351 8.67733 4.31981C8.68851 4.32612 8.70083 4.33016 8.71358 4.33168C8.72632 4.33321 8.73924 4.33219 8.7516 4.3287C8.76395 4.32521 8.77549 4.3193 8.78555 4.31133L10.4648 2.99297C10.5152 2.93438 10.507 2.87227 10.4648 2.83828L8.78555 1.5211C8.76826 1.50727 8.74674 1.49982 8.72461 1.5C8.6707 1.5 8.62617 1.54453 8.62617 1.59844V2.44922H2.34023C1.87734 2.44922 1.5 2.82657 1.5 3.29063V6.375C1.5 6.42657 1.54219 6.46875 1.59375 6.46875ZM10.4062 5.53125H9.66094C9.60938 5.53125 9.56719 5.57344 9.56719 5.625V8.6168H3.37266V7.76602C3.37266 7.74375 3.36563 7.72266 3.35156 7.70508C3.34367 7.69496 3.33385 7.6865 3.32267 7.68019C3.31149 7.67388 3.29917 7.66985 3.28642 7.66832C3.27368 7.6668 3.26076 7.66781 3.2484 7.67131C3.23605 7.6748 3.22451 7.6807 3.21445 7.68867L1.53516 9.00703C1.48477 9.06563 1.49297 9.12774 1.53516 9.16172L3.21445 10.4789C3.23203 10.493 3.25312 10.5 3.27539 10.5C3.3293 10.5 3.37383 10.4555 3.37383 10.4016V9.55078H9.66211C10.125 9.55078 10.5023 9.17344 10.5023 8.70938V5.625C10.5 5.57344 10.4578 5.53125 10.4062 5.53125Z" fill="#666FFF"/>
</svg>
