<svg width="10" height="10" viewBox="0 0 10 10" fill="none" xmlns="http://www.w3.org/2000/svg">
<path d="M0.59375 5.46875H1.33906C1.39063 5.46875 1.43281 5.42657 1.43281 5.375V2.38321H7.62734V3.23399C7.62734 3.25625 7.63438 3.27735 7.64844 3.29492C7.65633 3.30505 7.66615 3.31351 7.67733 3.31981C7.68851 3.32612 7.70083 3.33016 7.71358 3.33168C7.72632 3.33321 7.73924 3.33219 7.7516 3.3287C7.76395 3.32521 7.77549 3.3193 7.78555 3.31133L9.46484 1.99297C9.51523 1.93438 9.50703 1.87227 9.46484 1.83828L7.78555 0.521097C7.76826 0.507274 7.74674 0.499825 7.72461 0.500003C7.6707 0.500003 7.62617 0.544534 7.62617 0.598441V1.44922H1.34023C0.877344 1.44922 0.5 1.82657 0.5 2.29063V5.375C0.5 5.42657 0.542187 5.46875 0.59375 5.46875ZM9.40625 4.53125H8.66094C8.60938 4.53125 8.56719 4.57344 8.56719 4.625V7.6168H2.37266V6.76602C2.37266 6.74375 2.36563 6.72266 2.35156 6.70508C2.34367 6.69496 2.33385 6.6865 2.32267 6.68019C2.31149 6.67388 2.29917 6.66985 2.28642 6.66832C2.27368 6.6668 2.26076 6.66781 2.2484 6.67131C2.23605 6.6748 2.22451 6.6807 2.21445 6.68867L0.535156 8.00703C0.484766 8.06563 0.492969 8.12774 0.535156 8.16172L2.21445 9.47891C2.23203 9.49297 2.25312 9.5 2.27539 9.5C2.3293 9.5 2.37383 9.45547 2.37383 9.40156V8.55078H8.66211C9.125 8.55078 9.50234 8.17344 9.50234 7.70938V4.625C9.5 4.57344 9.45781 4.53125 9.40625 4.53125Z" fill="#333333"/>
</svg>
