<svg xmlns="http://www.w3.org/2000/svg" width="12.004" height="11.999" viewBox="0 0 12.004 11.999">
  <defs>
    <style>
      .cls-1 {
        fill: #666fff;
      }
    </style>
  </defs>
  <path id="icon_clearSmall_a" class="cls-1" d="M17526.469-1204.464l-.678-.678,1.752-1.751a.489.489,0,0,0-.006-.691.482.482,0,0,0-.689,0l-1.752,1.751-1.039-1.043,1.752-1.751a.484.484,0,0,0,0-.691.489.489,0,0,0-.7,0l-1.752,1.751-1.037-1.038,1.75-1.756a.484.484,0,0,0,0-.691.482.482,0,0,0-.689,0l-1.752,1.751-.682-.678a1,1,0,0,1,0-1.417l3.1-3.1a.972.972,0,0,1,0-1.384.981.981,0,0,1,1.387,0l2.422,2.422,1.736-1.732a1.47,1.47,0,0,1,2.076,0,1.476,1.476,0,0,1,0,2.081l-1.73,1.731,2.426,2.427a.98.98,0,0,1,0,1.386.985.985,0,0,1-1.391,0l-3.1,3.1a.989.989,0,0,1-.707.294A.987.987,0,0,1,17526.469-1204.464Z" transform="translate(-17520.656 1216.17)"/>
</svg>
