<svg xmlns="http://www.w3.org/2000/svg" width="25" height="18" viewBox="0 0 25 18">
  <defs>
    <style>
      .cls-1 {
        fill: rgba(102,111,255,0.4);
      }

      .cls-2, .cls-3 {
        stroke: none;
      }

      .cls-3 {
        fill: #666fff;
      }
    </style>
  </defs>
  <g id="icon_regionUnion_a" class="cls-1">
    <path class="cls-2" d="M 20.52324104309082 17.50048446655273 L 12.72107696533203 17.50048446655273 L 10.77077960968018 14.14845371246338 L 10.62617015838623 13.89990425109863 L 10.33860969543457 13.89990425109863 L 4.475688457489014 13.89990425109863 L 0.5784380435943604 7.199717998504639 L 4.47568416595459 0.5000041127204895 L 12.27892303466797 0.5000041127204895 L 14.22922039031982 3.852034091949463 L 14.37382984161377 4.100584030151367 L 14.66139030456543 4.100584030151367 L 20.52324485778809 4.100584030151367 L 24.42152404785156 10.80030727386475 L 20.52324104309082 17.50048446655273 Z"/>
    <path class="cls-3" d="M 20.23567771911621 17.00048446655273 L 23.84305191040039 10.80030918121338 L 20.23569869995117 4.600584030151367 L 14.66139030456543 4.600584030151367 L 14.08627033233643 4.600584030151367 L 13.79703998565674 4.103484153747559 L 11.99135589599609 1.000004172325134 L 4.76326847076416 1.000004172325134 L 1.156873226165771 7.199719429016113 L 4.763291358947754 13.39990425109863 L 10.33860969543457 13.39990425109863 L 10.91372966766357 13.39990425109863 L 11.20296001434326 13.89700412750244 L 13.00864410400391 17.00048446655273 L 20.23567771911621 17.00048446655273 M 20.81080055236816 18.00048446655273 L 12.43352031707764 18.00048446655273 L 10.33860969543457 14.39990425109863 L 4.188089847564697 14.39990425109863 L -1.77635683940025e-15 7.199704170227051 L 4.188089847564697 4.140625151194399e-06 L 12.56647968292236 4.140625151194399e-06 L 14.66139030456543 3.600584030151367 L 20.81080055236816 3.600584030151367 L 25 10.80029392242432 L 20.81080055236816 18.00048446655273 Z"/>
  </g>
</svg>
