<svg xmlns="http://www.w3.org/2000/svg" width="62" height="56" viewBox="0 0 62 56">
  <g id="icon_AIbig" transform="translate(-1234 -562)">
    <path id="路径_448" data-name="路径 448" d="M249.9,149.327,238.8,130.107a8.791,8.791,0,0,0-7.61-4.39H208.975a8.788,8.788,0,0,0-7.61,4.39l-11.107,19.22a8.775,8.775,0,0,0,0,8.78l11.107,19.22a8.788,8.788,0,0,0,7.61,4.389h22.213a8.79,8.79,0,0,0,7.61-4.389l11.106-19.22A8.771,8.771,0,0,0,249.9,149.327Z" transform="translate(1044.919 436.283)" fill="#666fff"/>
    <g id="jiqiren" transform="translate(1251 574)">
      <path id="Clip_2" data-name="Clip 2" d="M0,0H27.623V27.623H0Z" transform="translate(0 0)" fill="none" opacity="0.3"/>
      <path id="减去_1" data-name="减去 1" d="M22.9,28H5.091a2.421,2.421,0,0,1-1.8-.823,2.911,2.911,0,0,1-.746-1.98V23.8H1.275a1.263,1.263,0,0,1-.911-.419A1.4,1.4,0,0,1,0,22.448V18.2a1.342,1.342,0,0,1,1.271-1.4H2.545c0-5.4,4-9.8,8.906-9.8h1.277V5.221A2.853,2.853,0,0,1,11.458,2.8,2.975,2.975,0,0,1,12.2.819a2.383,2.383,0,0,1,3.6,0,2.966,2.966,0,0,1,.746,1.98,2.855,2.855,0,0,1-1.271,2.425V7h1.271c4.912,0,8.908,4.4,8.908,9.8h1.271A1.342,1.342,0,0,1,28,18.2v4.25a1.433,1.433,0,0,1-.364.929,1.26,1.26,0,0,1-.911.419H25.452v1.4a2.91,2.91,0,0,1-.747,1.98A2.444,2.444,0,0,1,22.9,28ZM8.167,18.083a6.027,6.027,0,1,0,12.053,0H18.213a4.02,4.02,0,0,1-8.037,0H8.167Z" transform="translate(0 0)" fill="#fff"/>
    </g>
    <circle id="椭圆_1202" data-name="椭圆 1202" cx="2" cy="2" r="2" transform="translate(1259 587)" fill="#666fff"/>
    <circle id="椭圆_1203" data-name="椭圆 1203" cx="2" cy="2" r="2" transform="translate(1267 587)" fill="#666fff"/>
  </g>
</svg>
