<svg id="icon_pen" xmlns="http://www.w3.org/2000/svg" width="20" height="20" viewBox="0 0 20 20">
  <defs>
    <style>
      .cls-1 {
        opacity: 0;
      }

      .cls-2 {
        fill: #666;
      }
    </style>
  </defs>
  <rect id="矩形" class="cls-1" width="20" height="20"/>
  <path id="形状" class="cls-2" d="M3.2,16h0A7.21,7.21,0,0,1,0,15.251,2.508,2.508,0,0,0,1.23,14.6a2.347,2.347,0,0,0,.691-2.14.139.139,0,0,1-.028-.1,3.5,3.5,0,0,1,.979-3.378,3.816,3.816,0,0,1,5.182.064,3.479,3.479,0,0,1,.067,4.989A7.054,7.054,0,0,1,3.2,16Zm7.061-6.857a.354.354,0,0,1-.283-.149L8.119,6.875A.452.452,0,0,1,8,6.539a.44.44,0,0,1,.153-.318L15.2.11A.474.474,0,0,1,15.5,0a.488.488,0,0,1,.356.159A.662.662,0,0,1,15.9.914L10.571,8.949a.37.37,0,0,1-.288.193Z" transform="translate(2 2)"/>
</svg>
