<svg id="icon_contrast" xmlns="http://www.w3.org/2000/svg" width="12" height="12" viewBox="0 0 12 12">
  <defs>
    <style>
      .cls-1 {
        fill: none;
      }

      .cls-2 {
        fill: #666;
      }

      .cls-3 {
        fill: #999;
      }
    </style>
  </defs>
  <path id="路径_437" data-name="路径 437" class="cls-1" d="M-74.758-80a5.242,5.242,0,0,1,5.242,5.242,5.242,5.242,0,0,1-5.242,5.242A5.242,5.242,0,0,1-80-74.758,5.242,5.242,0,0,1-74.758-80Zm-.4,9.613v-8.74a4.753,4.753,0,0,0-3.994,4.37A4.753,4.753,0,0,0-75.157-70.387Z" transform="translate(80.758 80.758)"/>
  <path id="路径_438" data-name="路径 438" class="cls-2" d="M-122-128a6,6,0,0,1,6,6,6,6,0,0,1-6,6,6,6,0,0,1-6-6A6,6,0,0,1-122-128Zm0,11.25a5.25,5.25,0,0,0,5.25-5.25,5.25,5.25,0,0,0-5.25-5.25,5.25,5.25,0,0,0-5.25,5.25A5.25,5.25,0,0,0-122-116.75Z" transform="translate(128 128)"/>
  <path id="路径_439" data-name="路径 439" class="cls-3" d="M285.642-24.1v8.72a4.768,4.768,0,0,1-4.04-4.36A4.768,4.768,0,0,1,285.642-24.1Z" transform="translate(-279.986 25.738)"/>
</svg>
