<svg id="icon_eraser" xmlns="http://www.w3.org/2000/svg" width="20" height="20" viewBox="0 0 20 20">
  <defs>
    <style>
      .cls-1 {
        opacity: 0;
      }

      .cls-2 {
        fill: none;
        stroke-miterlimit: 10;
      }

      .cls-3, .cls-5 {
        fill: #666;
      }

      .cls-4, .cls-5 {
        stroke: none;
      }
    </style>
  </defs>
  <rect id="矩形" class="cls-1" width="20" height="20"/>
  <g id="矩形-2" data-name="矩形" class="cls-2" transform="translate(0.308 0.601)">
    <path class="cls-4" d="M10.667,0l8.025,8.025L9.463,17.254a2.081,2.081,0,0,1-2.942,0L1.438,12.171a2.081,2.081,0,0,1,0-2.942Z"/>
    <path class="cls-5" d="M 10.66671466827393 2.828415870666504 L 2.852024078369141 10.64311504364014 C 2.820613861083984 10.67453575134277 2.820613861083984 10.72565460205078 2.852024078369141 10.75707530975342 L 7.934703826904297 15.83974456787109 C 7.942363739013672 15.84740543365479 7.958313941955566 15.86335563659668 7.991693496704102 15.86335563659668 C 8.025074005126953 15.86335563659668 8.041023254394531 15.84740543365479 8.048673629760742 15.83976554870605 L 15.86337280273438 8.025074005126953 L 10.66671466827393 2.828415870666504 M 10.66671371459961 -5.7220458984375e-06 L 18.69179344177246 8.02507495880127 L 9.462883949279785 17.25397491455078 C 9.056628227233887 17.66023063659668 8.524163246154785 17.86335754394531 7.991697311401367 17.86335754394531 C 7.459231376647949 17.86335754394531 6.926763534545898 17.66023063659668 6.520503997802734 17.25397491455078 L 1.437812805175781 12.17128562927246 C 0.6252937316894531 11.3587646484375 0.6252937316894531 10.04142475128174 1.437812805175781 9.228904724121094 L 10.66671371459961 -5.7220458984375e-06 Z"/>
  </g>
  <path id="矩形-3" data-name="矩形" class="cls-3" d="M3.667,0,11,7.333,7.333,11,0,3.667Z" transform="translate(5 3.601)"/>
</svg>
