<svg width="25" height="24" viewBox="0 0 25 24" fill="none" xmlns="http://www.w3.org/2000/svg">
  <path
    d="M22.5 1C22.7652 1 23.0196 1.10536 23.2071 1.29289C23.3946 1.48043 23.5 1.73478 23.5 2V22C23.5 22.2652 23.3946 22.5196 23.2071 22.7071C23.0196 22.8946 22.7652 23 22.5 23H2.5C2.23478 23 1.98043 22.8946 1.79289 22.7071C1.60536 22.5196 1.5 22.2652 1.5 22V2C1.5 1.73478 1.60536 1.48043 1.79289 1.29289C1.98043 1.10536 2.23478 1 2.5 1H22.5ZM22.5 0H2.5C1.96957 0 1.46086 0.210714 1.08579 0.585786C0.710714 0.960859 0.5 1.46957 0.5 2V22C0.5 22.5304 0.710714 23.0391 1.08579 23.4142C1.46086 23.7893 1.96957 24 2.5 24H22.5C23.0304 24 23.5391 23.7893 23.9142 23.4142C24.2893 23.0391 24.5 22.5304 24.5 22V2C24.5 1.46957 24.2893 0.960859 23.9142 0.585786C23.5391 0.210714 23.0304 0 22.5 0V0Z"
    fill="white" />
  <path
    d="M3.45881 16V7.27273H8.9304V8.40625H4.77557V11.0653H8.64489V12.1946H4.77557V14.8665H8.98153V16H3.45881ZM15.4918 11.0526L14.337 11.2571C14.2887 11.1094 14.212 10.9687 14.1069 10.8352C14.0046 10.7017 13.8654 10.5923 13.6893 10.5071C13.5131 10.4219 13.293 10.3793 13.0288 10.3793C12.668 10.3793 12.3668 10.4602 12.1254 10.6222C11.8839 10.7812 11.7631 10.9872 11.7631 11.2401C11.7631 11.4588 11.8441 11.6349 12.006 11.7685C12.168 11.902 12.4293 12.0114 12.7901 12.0966L13.8299 12.3352C14.4322 12.4744 14.881 12.6889 15.1765 12.9787C15.4719 13.2685 15.6197 13.6449 15.6197 14.108C15.6197 14.5 15.506 14.8494 15.2788 15.1562C15.0543 15.4602 14.7404 15.6989 14.337 15.8722C13.9364 16.0455 13.4719 16.1321 12.9435 16.1321C12.2106 16.1321 11.6126 15.9759 11.1495 15.6634C10.6864 15.348 10.4023 14.9006 10.2972 14.321L11.5288 14.1335C11.6055 14.4545 11.7631 14.6974 12.0018 14.8622C12.2404 15.0241 12.5515 15.1051 12.935 15.1051C13.3526 15.1051 13.6864 15.0185 13.9364 14.8452C14.1864 14.669 14.3114 14.4545 14.3114 14.2017C14.3114 13.9972 14.2347 13.8253 14.0813 13.6861C13.9308 13.5469 13.6992 13.4418 13.3867 13.3707L12.2788 13.1278C11.668 12.9886 11.2163 12.767 10.9237 12.4631C10.6339 12.1591 10.489 11.7741 10.489 11.3082C10.489 10.9219 10.5969 10.5838 10.8129 10.294C11.0288 10.0043 11.3271 9.77841 11.7077 9.61648C12.0884 9.4517 12.5245 9.36932 13.016 9.36932C13.7234 9.36932 14.2802 9.52273 14.6864 9.82955C15.0927 10.1335 15.3612 10.5412 15.4918 11.0526ZM19.7777 16.1321C19.1442 16.1321 18.5987 15.9886 18.1413 15.7017C17.6868 15.4119 17.3374 15.0128 17.093 14.5043C16.8487 13.9957 16.7266 13.4134 16.7266 12.7571C16.7266 12.0923 16.8516 11.5057 17.1016 10.9972C17.3516 10.4858 17.7038 10.0866 18.1584 9.79972C18.6129 9.51278 19.1484 9.36932 19.7649 9.36932C20.2621 9.36932 20.7053 9.46165 21.0945 9.64631C21.4837 9.82812 21.7976 10.0838 22.0362 10.4134C22.2777 10.7429 22.4212 11.1278 22.4666 11.5682H21.2266C21.1584 11.2614 21.0021 10.9972 20.7578 10.7756C20.5163 10.554 20.1925 10.4432 19.7862 10.4432C19.4311 10.4432 19.12 10.5369 18.853 10.7244C18.5888 10.9091 18.3828 11.1733 18.2351 11.517C18.0874 11.858 18.0135 12.2614 18.0135 12.7273C18.0135 13.2045 18.0859 13.6165 18.2308 13.9631C18.3757 14.3097 18.5803 14.5781 18.8445 14.7685C19.1115 14.9588 19.4254 15.054 19.7862 15.054C20.0277 15.054 20.2464 15.0099 20.4425 14.9219C20.6413 14.831 20.8075 14.7017 20.9411 14.5341C21.0774 14.3665 21.1726 14.1648 21.2266 13.929H22.4666C22.4212 14.3523 22.2834 14.7301 22.0533 15.0625C21.8232 15.3949 21.5149 15.6562 21.1286 15.8466C20.745 16.0369 20.2947 16.1321 19.7777 16.1321Z"
    fill="white" />
</svg>
