<svg width="25" height="24" viewBox="0 0 25 24" fill="none" xmlns="http://www.w3.org/2000/svg">
  <path
    d="M2.5 1C2.23478 1 1.98043 1.10536 1.79289 1.29289C1.60536 1.48043 1.5 1.73478 1.5 2V22C1.5 22.2652 1.60536 22.5196 1.79289 22.7071C1.98043 22.8946 2.23478 23 2.5 23H22.5C22.7652 23 23.0196 22.8946 23.2071 22.7071C23.3946 22.5196 23.5 22.2652 23.5 22V2C23.5 1.73478 23.3946 1.48043 23.2071 1.29289C23.0196 1.10536 22.7652 1 22.5 1H2.5ZM2.5 0H22.5C23.0304 0 23.5391 0.210714 23.9142 0.585786C24.2893 0.960859 24.5 1.46957 24.5 2V22C24.5 22.5304 24.2893 23.0391 23.9142 23.4142C23.5391 23.7893 23.0304 24 22.5 24H2.5C1.96957 24 1.46086 23.7893 1.08579 23.4142C0.710714 23.0391 0.5 22.5304 0.5 22V2C0.5 1.46957 0.710714 0.960859 1.08579 0.585786C1.46086 0.210714 1.96957 0 2.5 0V0Z"
    fill="white" />
  <path
    d="M13.9763 12L10.6433 15.2C10.5982 15.2425 10.5623 15.2938 10.5378 15.3507C10.5132 15.4077 10.5005 15.469 10.5005 15.531C10.5005 15.593 10.5132 15.6543 10.5378 15.7112C10.5623 15.7682 10.5982 15.8195 10.6433 15.862C10.7363 15.9503 10.8596 15.9996 10.9878 15.9996C11.1161 15.9996 11.2394 15.9503 11.3323 15.862L15.0103 12.331C15.0554 12.2885 15.0914 12.2372 15.1159 12.1802C15.1405 12.1233 15.1531 12.062 15.1531 12C15.1531 11.938 15.1405 11.8767 15.1159 11.8197C15.0914 11.7628 15.0554 11.7115 15.0103 11.669L11.3323 8.13699C11.2394 8.04864 11.1161 7.99937 10.9878 7.99937C10.8596 7.99937 10.7363 8.04864 10.6433 8.13699C10.5981 8.17954 10.562 8.2309 10.5374 8.28791C10.5127 8.34492 10.5 8.40638 10.5 8.46849C10.5 8.53061 10.5127 8.59206 10.5374 8.64907C10.562 8.70609 10.5981 8.75745 10.6433 8.79999L13.9763 12Z"
    fill="white" />
</svg>
