<?xml version="1.0" encoding="UTF-8"?>
<svg width="24px" height="25px" viewBox="0 0 24 24" version="1.1" xmlns="http://www.w3.org/2000/svg" xmlns:xlink="http://www.w3.org/1999/xlink">
    <!-- Generator: Sketch 57 (83077) - https://sketch.com -->
    <title>形状</title>
    <desc>Created with Sketch.</desc>
    <g id="页面1" stroke="none" stroke-width="1" fill="none" fill-rule="evenodd">
        <g id="0_Slices" transform="translate(-46.000000, -141.000000)" fill-rule="nonzero">
            <g id="清空标注" transform="translate(18.000000, 123.000000)">
                <g id="icon_clear_normal" transform="translate(28.000000, 18.000000)">
                    <rect id="icon_clear" fill="#000000" opacity="0" x="0" y="0.00780487805" width="24" height="24"></rect>
                    <path d="M24,10.6934683 C24,9.29483367 22.8777821,8.15502957 21.4955096,8.15502957 L15.5587661,8.15502957 L15.5587661,3.13276778 C15.5587661,1.40881408 14.1764936,0.00780487805 12.4755955,0.00780487805 L11.6485748,0.00780487805 C9.94767669,0.00780487805 8.56540414,1.40881408 8.56540414,3.13276778 L8.56540414,8.15502957 L2.5021476,8.15502957 C1.12221788,8.15502957 0,9.29245908 0,10.6934683 C0,11.835647 0.754392815,12.7926075 1.78055447,13.1108028 L1.78055447,21.9680305 C1.78055447,23.093587 2.68254588,24.0078049 3.79304959,24.0078049 L20.3615775,24.0078049 C21.4720812,24.0078049 22.3740726,23.093587 22.3740726,21.9680305 L22.3740726,13.0609364 C23.3205779,12.6999984 24,11.7786568 24,10.6934683 Z M10.114018,3.13276778 C10.114018,2.27554011 10.8028114,1.5774101 11.6485748,1.5774101 L12.4755955,1.5774101 C13.3213588,1.5774101 14.0101523,2.27554011 14.0101523,3.13276778 L14.0101523,8.15502957 L10.114018,8.15502957 L10.114018,3.13276778 Z M20.3615775,22.4381997 L17.8055447,22.4381997 L17.8055447,19.2206277 C17.8055447,18.7860774 17.4588052,18.4370124 17.0324092,18.4370124 C16.6060133,18.4370124 16.2592737,18.788452 16.2592737,19.2206277 L16.2592737,22.4381997 L12.8527919,22.4381997 L12.8527919,19.2206277 C12.8527919,18.7860774 12.5060523,18.4370124 12.0796564,18.4370124 C11.6509176,18.4370124 11.3065209,18.788452 11.3065209,19.2206277 L11.3065209,22.4381997 L7.89769621,22.4381997 L7.89769621,19.2206277 C7.89769621,18.7860774 7.55095666,18.4370124 7.12456072,18.4370124 C6.69582194,18.4370124 6.35142522,18.788452 6.35142522,19.2206277 L6.35142522,22.4381997 L3.79304959,22.4381997 C3.53768059,22.4381997 3.32916829,22.226861 3.32916829,21.9680305 L3.32916829,13.2295324 L20.8254588,13.2295324 L20.8254588,21.9656559 C20.8254588,22.226861 20.6169465,22.4381997 20.3615775,22.4381997 Z M21.4978524,11.6599272 L2.5021476,11.6599272 C1.97500976,11.6599272 1.54861382,11.2253769 1.54861382,10.6934683 C1.54861382,10.1591851 1.9773526,9.7246348 2.5021476,9.7246348 L21.4955096,9.7246348 C22.0226474,9.7246348 22.4513862,10.1591851 22.4513862,10.6934683 C22.4513862,11.2277514 22.0226474,11.6599272 21.4978524,11.6599272 Z" id="形状" fill="#666666"></path>
                </g>
            </g>
        </g>
    </g>
</svg>