<svg id="icon_r" xmlns="http://www.w3.org/2000/svg" width="22" height="22" viewBox="0 0 22 22">
  <defs>
    <style>
      .cls-1 {
        opacity: 0;
      }

      .cls-2 {
        fill: #666;
      }
    </style>
  </defs>
  <rect id="矩形" class="cls-1" width="22" height="22"/>
  <g id="reload" transform="translate(1 1)">
    <rect id="矩形-2" data-name="矩形" class="cls-1" width="20" height="20"/>
    <path id="路径" class="cls-2" d="M14.762,2.234l-1.032.84A7.56,7.56,0,0,0,7.68,0,7.84,7.84,0,0,0,0,7.99,7.845,7.845,0,0,0,7.68,16,7.709,7.709,0,0,0,14.9,10.741a.154.154,0,0,0-.09-.2l-1.037-.371a.145.145,0,0,0-.185.091c-.033.1-.07.19-.108.284a6.539,6.539,0,0,1-1.348,2.084,6.3,6.3,0,0,1-2,1.406,6.08,6.08,0,0,1-4.895,0,6.239,6.239,0,0,1-2-1.406,6.539,6.539,0,0,1-1.348-2.084,6.833,6.833,0,0,1,0-5.1A6.539,6.539,0,0,1,3.237,3.364a6.3,6.3,0,0,1,2-1.406,6.08,6.08,0,0,1,4.895,0,6.239,6.239,0,0,1,2,1.406,6.489,6.489,0,0,1,.508.6l-1.1.9a.155.155,0,0,0,.055.269l3.212.819a.148.148,0,0,0,.181-.147L15,2.352a.147.147,0,0,0-.238-.118Z" transform="translate(2 2)"/>
  </g>
</svg>
