<?xml version="1.0" encoding="UTF-8"?>
<svg width="24px" height="24px" viewBox="0 0 24 24" version="1.1" xmlns="http://www.w3.org/2000/svg" xmlns:xlink="http://www.w3.org/1999/xlink">
    <!-- Generator: Sketch 57 (83077) - https://sketch.com -->
    <title>icon_invalid</title>
    <desc>Created with Sketch.</desc>
    <defs>
        <rect id="path-1" x="0" y="0" width="24" height="24"></rect>
    </defs>
    <g id="页面1" stroke="none" stroke-width="1" fill="none" fill-rule="evenodd">
        <g id="0_Slices" transform="translate(-49.000000, -234.000000)">
            <g id="标注无效" transform="translate(21.000000, 215.000000)">
                <g id="icon_invalid" transform="translate(28.000000, 19.000000)">
                    <mask id="mask-2" fill="white">
                        <use xlink:href="#path-1"></use>
                    </mask>
                    <g></g>
                    <path d="M14.8132711,20.5 L3.35714286,20.5 C2.91670867,20.5 2.57142857,20.1826213 2.57142857,19.8055556 L2.57142857,3.19444444 C2.57142857,2.81737868 2.91670867,2.5 3.35714286,2.5 L20.6428571,2.5 C21.0832913,2.5 21.4285714,2.81737868 21.4285714,3.19444444 L21.4285714,15.2898676 L23,16.4514553 L23,3.19444444 C23,1.97602093 21.938175,1 20.6428571,1 L3.35714286,1 C2.06182497,1 1,1.97602093 1,3.19444444 L1,19.8055556 C1,21.0239791 2.06182497,22 3.35714286,22 L15.9411765,22 L14.8132711,20.5 Z" id="路径" fill="#666666" fill-rule="nonzero" mask="url(#mask-2)"></path>
                    <path d="M8.5,10 C9.88071187,10 11,8.88071187 11,7.5 C11,6.11928813 9.88071187,5 8.5,5 C7.11928813,5 6,6.11928813 6,7.5 C6,8.88071187 7.11928813,10 8.5,10 Z M8.5,8.57142857 C7.90826634,8.57142857 7.42857143,8.09173366 7.42857143,7.5 C7.42857143,6.90826634 7.90826634,6.42857143 8.5,6.42857143 C9.09173366,6.42857143 9.57142857,6.90826634 9.57142857,7.5 C9.57142857,8.09173366 9.09173366,8.57142857 8.5,8.57142857 Z" id="椭圆形" fill="#666666" fill-rule="nonzero" mask="url(#mask-2)"></path>
                    <path d="M1.93578343,18 C4.08872055,14.8551688 6.74336715,13.7936147 9.20632589,14.9383326 C9.39666832,15.0267988 9.58966667,15.1227541 9.8383972,15.2511189 C11.2590222,15.9842746 11.4672631,16.0801404 12.0929951,16.2047792 C13.2715953,16.4395429 14.3253377,16.0173433 15.3845587,14.7865988 C17.834834,11.9395412 19.5284667,10.6940174 22,10.3111164 L21.8385808,9 C19.0487146,9.43221863 17.1525949,10.8266545 14.5357091,13.8673024 C13.7408033,14.7909303 13.0776295,15.056642 12.2992772,14.9016031 C11.8197086,14.8060784 11.6287028,14.7181469 10.3315315,14.0487032 C10.0702502,13.9138612 9.86453995,13.8115857 9.65795075,13.7155685 C6.66190483,12.3230858 3.4571787,13.6046086 1,17.1938506 L1.93578343,18 Z" id="路径" fill="#666666" fill-rule="nonzero" mask="url(#mask-2)"></path>
                    <path d="M19.5,23 C21.4329966,23 23,21.4329966 23,19.5 C23,17.5670034 21.4329966,16 19.5,16 C17.5670034,16 16,17.5670034 16,19.5 C16,21.4329966 17.5670034,23 19.5,23 Z M19.5,22 C18.1192881,22 17,20.8807119 17,19.5 C17,18.1192881 18.1192881,17 19.5,17 C20.8807119,17 22,18.1192881 22,19.5 C22,20.8807119 20.8807119,22 19.5,22 Z" id="椭圆形" fill="#666666" fill-rule="nonzero" mask="url(#mask-2)"></path>
                    <path d="M21.2928932,17.7692308 L21.6464466,18.1227842 L21.6464466,17.4156774 L21.2928932,17.7692308 Z M17.7692308,21.2928932 L17.4156774,21.6464466 L18.1227842,21.6464466 L17.7692308,21.2928932 Z M17.7071068,21.2307692 L17.3535534,20.8772158 L17.3535534,21.5843226 L17.7071068,21.2307692 Z M21.2307692,17.7071068 L21.5843226,17.3535534 L20.8772158,17.3535534 L21.2307692,17.7071068 Z" id="矩形" stroke="#666666" mask="url(#mask-2)"></path>
                </g>
            </g>
        </g>
    </g>
</svg>