<svg width="25" height="24" viewBox="0 0 25 24" fill="none" xmlns="http://www.w3.org/2000/svg">
  <path
    d="M22.5 1C22.7652 1 23.0196 1.10536 23.2071 1.29289C23.3946 1.48043 23.5 1.73478 23.5 2V22C23.5 22.2652 23.3946 22.5196 23.2071 22.7071C23.0196 22.8946 22.7652 23 22.5 23H2.5C2.23478 23 1.98043 22.8946 1.79289 22.7071C1.60536 22.5196 1.5 22.2652 1.5 22V2C1.5 1.73478 1.60536 1.48043 1.79289 1.29289C1.98043 1.10536 2.23478 1 2.5 1H22.5ZM22.5 0H2.5C1.96957 0 1.46086 0.210714 1.08579 0.585786C0.710714 0.960859 0.5 1.46957 0.5 2V22C0.5 22.5304 0.710714 23.0391 1.08579 23.4142C1.46086 23.7893 1.96957 24 2.5 24H22.5C23.0304 24 23.5391 23.7893 23.9142 23.4142C24.2893 23.0391 24.5 22.5304 24.5 22V2C24.5 1.46957 24.2893 0.960859 23.9142 0.585786C23.5391 0.210714 23.0304 0 22.5 0V0Z"
    fill="white" />
  <path
    d="M11.0237 12L14.3567 15.2C14.4018 15.2425 14.4377 15.2938 14.4622 15.3507C14.4868 15.4077 14.4995 15.469 14.4995 15.531C14.4995 15.593 14.4868 15.6543 14.4622 15.7112C14.4377 15.7682 14.4018 15.8195 14.3567 15.862C14.2637 15.9503 14.1404 15.9996 14.0122 15.9996C13.8839 15.9996 13.7606 15.9503 13.6677 15.862L9.98966 12.331C9.94456 12.2885 9.90864 12.2372 9.88408 12.1802C9.85952 12.1233 9.84685 12.062 9.84685 12C9.84685 11.938 9.85952 11.8767 9.88408 11.8197C9.90864 11.7628 9.94456 11.7115 9.98966 11.669L13.6677 8.13699C13.7606 8.04864 13.8839 7.99937 14.0122 7.99937C14.1404 7.99937 14.2637 8.04864 14.3567 8.13699C14.4019 8.17954 14.438 8.2309 14.4626 8.28791C14.4873 8.34492 14.5 8.40638 14.5 8.46849C14.5 8.53061 14.4873 8.59206 14.4626 8.64907C14.438 8.70609 14.4019 8.75745 14.3567 8.79999L11.0237 12Z"
    fill="white" />
</svg>
