<svg xmlns="http://www.w3.org/2000/svg" width="19" height="19" viewBox="0 0 19 19">
  <defs>
    <style>
      .cls-1 {
        fill: #797979;
        stroke: rgba(0,0,0,0);
        stroke-miterlimit: 10;
      }

      .cls-2 {
        fill: none;
        opacity: 0.3;
      }
    </style>
  </defs>
  <g id="icon_buquan" transform="translate(0.501 0.5)">
    <path id="Clip_2" data-name="Clip 2" class="cls-2" d="M0,0H18V18H0Z"/>
    <path id="减去_15" data-name="减去 15" class="cls-1" d="M473.725,6954H462.273a1.561,1.561,0,0,1-1.159-.529,1.88,1.88,0,0,1-.48-1.272v-.9h-.815a.809.809,0,0,1-.585-.271.9.9,0,0,1-.236-.6V6947.7a.863.863,0,0,1,.819-.9h.817c0-3.474,2.569-6.3,5.726-6.3h.824v-1.143a1.83,1.83,0,0,1-.819-1.557,1.914,1.914,0,0,1,.48-1.274,1.532,1.532,0,0,1,2.312,0,1.9,1.9,0,0,1,.48,1.272,1.836,1.836,0,0,1-.817,1.559v1.141h.817a6.041,6.041,0,0,1,5.726,6.3h.819a.862.862,0,0,1,.817.9v2.733a.916.916,0,0,1-.234.6.809.809,0,0,1-.585.271h-.819v.9a1.879,1.879,0,0,1-.48,1.272A1.578,1.578,0,0,1,473.725,6954ZM471,6946a1,1,0,0,0-1,1v1a1,1,0,1,0,2,0v-1A1,1,0,0,0,471,6946Zm-6,0a1,1,0,0,0-1,1v1a1,1,0,1,0,2,0v-1A1,1,0,0,0,465,6946Z" transform="translate(-459 -6936)"/>
  </g>
</svg>
