<svg xmlns="http://www.w3.org/2000/svg" xmlns:xlink="http://www.w3.org/1999/xlink" width="72" height="24" viewBox="0 0 72 24">
  <defs>
    <style>
      .cls-1 {
        fill: none;
      }

      .cls-2 {
        fill: #e02020;
      }

      .cls-3 {
        clip-path: url(#clip-path);
      }

      .cls-4 {
        fill: rgba(0,0,0,0);
      }

      .cls-5 {
        clip-path: url(#clip-path-2);
      }

      .cls-6, .cls-7 {
        fill: #fff;
      }

      .cls-7 {
        font-size: 14px;
        font-family: SourceHanSansCN-Medium, Source Han Sans CN;
        font-weight: 500;
      }
    </style>
    <clipPath id="clip-path">
      <path id="路径_683" data-name="路径 683" class="cls-1" d="M0-2H14V-16H0Z" transform="translate(0 16)"/>
    </clipPath>
    <clipPath id="clip-path-2">
      <path id="路径_685" data-name="路径 685" class="cls-1" d="M4.884-7.02A2.133,2.133,0,0,0,2.752-4.886,2.132,2.132,0,0,0,4.884-2.754,2.133,2.133,0,0,0,7.016-4.888,2.132,2.132,0,0,0,4.884-7.02Zm.037,3.163a1.1,1.1,0,0,1-1.1-1.1,1.1,1.1,0,0,1,1.1-1.1,1.1,1.1,0,0,1,1.1,1.1A1.1,1.1,0,0,1,4.921-3.857ZM9.9-7.167a2.151,2.151,0,0,0-2.15,2.151A2.15,2.15,0,0,0,9.9-2.866a2.151,2.151,0,0,0,2.15-2.151A2.152,2.152,0,0,0,9.9-7.167ZM9.955-3.9A1.1,1.1,0,0,1,8.853-5a1.1,1.1,0,0,1,1.1-1.1,1.1,1.1,0,0,1,1.1,1.1A1.1,1.1,0,0,1,9.955-3.9Zm1.58-10.885a2.7,2.7,0,0,1,.441,2.869L7.383-6.064S4.224-9.705,2.937-11.507A2.953,2.953,0,0,1,3.01-15L7.383-9.41Zm-4.152,7.5a.552.552,0,0,0,.552-.552.552.552,0,0,0-.552-.552.552.552,0,0,0-.552.552A.552.552,0,0,0,7.383-7.278Z" transform="translate(-2.384 15)"/>
    </clipPath>
  </defs>
  <g id="icon_videoCutting" transform="translate(-32 -218)">
    <rect id="矩形_414" data-name="矩形 414" class="cls-2" width="72" height="24" rx="4" transform="translate(32 218)"/>
    <g id="组_1232" data-name="组 1232" transform="translate(3)">
      <g id="组_1230" data-name="组 1230" transform="translate(36 239)">
        <g id="组_1219" data-name="组 1219" class="cls-3" transform="translate(0 -16)">
          <path id="路径_682" data-name="路径 682" class="cls-4" d="M-5-21H17.75V1.75H-5Z" transform="translate(0.625 16.625)"/>
        </g>
        <g id="组_1220" data-name="组 1220" class="cls-5" transform="translate(2.091 -15.123)">
          <path id="路径_684" data-name="路径 684" class="cls-6" d="M-2.616-20H15.945V.993H-2.616Z" transform="translate(-1.755 15.626)"/>
        </g>
      </g>
      <text id="截取中" class="cls-7" transform="translate(52 235)"><tspan x="0" y="0">截取中</tspan></text>
    </g>
  </g>
</svg>
