<svg xmlns="http://www.w3.org/2000/svg" width="15" height="13" viewBox="0 0 15 13">
  <defs>
    <style>
      .cls-1 {
        opacity: 0.8;
      }

      .cls-2 {
        fill: #fff;
      }
    </style>
  </defs>
  <g id="icon_keyboard_h" class="cls-1">
    <g id="图标_设置_快捷键">
      <path id="形状" class="cls-2" d="M2.142,13a2.205,2.205,0,0,1-1.513-.585A1.949,1.949,0,0,1,0,11V2A2.083,2.083,0,0,1,2.149,0h10.7A2.083,2.083,0,0,1,15,2V11a1.927,1.927,0,0,1-.63,1.417A2.209,2.209,0,0,1,12.855,13H2.142ZM3.209,9a1,1,0,1,0,0,2h8.582a1,1,0,1,0,0-2ZM11,5c-.069,0-.287.058-.287.194V6.739c0,.085,0,.261.287.261h1.639c.217,0,.217-.156.217-.23V5.23A.243.243,0,0,0,12.6,5ZM6.716,5c-.069,0-.287.058-.287.194V6.739c0,.085,0,.261.287.261H8.355c.217,0,.217-.156.217-.23V5.23A.243.243,0,0,0,8.319,5ZM2.43,5c-.069,0-.287.058-.287.194V6.739c0,.085,0,.261.287.261H4.069c.217,0,.217-.156.217-.23V5.23A.243.243,0,0,0,4.033,5ZM11,2c-.069,0-.287.059-.287.2V3.739c0,.085,0,.261.287.261h1.639c.217,0,.217-.155.217-.23V2.23A.243.243,0,0,0,12.6,2ZM6.716,2c-.069,0-.287.059-.287.2V3.739c0,.085,0,.261.287.261H8.355c.217,0,.217-.155.217-.23V2.23A.243.243,0,0,0,8.319,2ZM2.43,2c-.069,0-.287.059-.287.2V3.739c0,.085,0,.261.287.261H4.069c.217,0,.217-.155.217-.23V2.23A.243.243,0,0,0,4.033,2Z"/>
    </g>
  </g>
</svg>
