<svg width="16" height="16" viewBox="0 0 16 16" fill="none" xmlns="http://www.w3.org/2000/svg">
  <mask id="mask0_98423_40767" style="mask-type:alpha" maskUnits="userSpaceOnUse" x="0" y="0" width="16" height="16">
    <path d="M0 16H16V0H0V16Z" fill="black" />
  </mask>
  <g mask="url(#mask0_98423_40767)">
  </g>
  <mask id="mask1_98423_40767" style="mask-type:luminance" maskUnits="userSpaceOnUse" x="8" y="3" width="8" height="10">
    <path fill-rule="evenodd" clip-rule="evenodd"
      d="M15.2139 6.64981H14.4827V5.50925C14.4827 4.12824 13.3678 3 12.003 3C10.6382 3 9.5232 4.12824 9.5232 5.50925V6.64981H8.78597C8.34729 6.64981 8 7.00739 8 7.44512V12.2047C8 12.6486 8.35338 13 8.78597 13H15.2139C15.6526 13 15.9999 12.6424 15.9999 12.2047V7.45129C16.0059 7.01356 15.6465 6.64981 15.2139 6.64981ZM12.0096 3.90915C12.9925 3.90915 13.4251 4.52059 13.4251 5.6041V6.63636H10.5777V5.6041C10.5777 4.52059 11.0267 3.90246 12.0096 3.90915ZM12.5796 9.64888V10.8309C12.5796 10.9294 12.5288 11.0094 12.4357 11.0772C12.3426 11.1449 12.2241 11.1818 12.0972 11.1818C11.8348 11.1818 11.6147 11.0217 11.6147 10.8309V9.64888C11.3693 9.53191 11.2 9.32875 11.2 9.10096C11.2 8.74389 11.5978 8.45454 12.0887 8.45454C12.5796 8.45454 12.9774 8.74389 12.9774 9.10096C12.9859 9.32875 12.8251 9.53191 12.5796 9.64888Z"
      fill="white" />
  </mask>
  <g mask="url(#mask1_98423_40767)">
    <path d="M8 3H16V13H8V3Z" fill="#666666" />
  </g>
  <path fill-rule="evenodd" clip-rule="evenodd"
    d="M10.313 2.49009L6 0L5.5 0.866025L7.23205 1.86603L6.73205 2.73205L5 1.73205L4 3.4641L5.73205 4.4641L5.23205 5.33013L3.5 4.33013L2.5 6.06218L4.23205 7.06218L3.73205 7.9282L2 6.9282L1 8.66025L3.59808 10.1603L3.09808 11.0263L0.5 9.52628L0 10.3923L5.19615 13.3923L7 10.2679V7.33415C7 6.80887 7.43411 6.37978 7.98246 6.37978H8.904V5.0111C8.904 3.95881 9.46594 3.02881 10.313 2.49009ZM10.2524 4.63456C10.3339 4.01813 10.5814 3.57016 11.0112 3.32029L10.2524 4.63456Z"
    fill="#666666" />
</svg>
