<svg xmlns="http://www.w3.org/2000/svg" width="10.001" height="10.001" viewBox="0 0 10.001 10.001"><g transform="translate(1.001 1)"><g transform="translate(0 -1)" fill="none" stroke="#ccc" stroke-width="1"><rect width="7.667" height="1.667" stroke="none"/><rect x="0.5" y="0.5" width="6.667" height="0.667" fill="none"/></g><g transform="translate(0 7.334)" fill="none" stroke="#ccc" stroke-width="1"><rect width="7.667" height="1.667" stroke="none"/><rect x="0.5" y="0.5" width="6.667" height="0.667" fill="none"/></g><g transform="translate(9 0.334) rotate(90)" fill="none" stroke="#ccc" stroke-width="1"><rect width="7.667" height="1.667" stroke="none"/><rect x="0.5" y="0.5" width="6.667" height="0.667" fill="none"/></g><g transform="translate(0.666 0.334) rotate(90)" fill="none" stroke="#ccc" stroke-width="1"><rect width="7.667" height="1.667" stroke="none"/><rect x="0.5" y="0.5" width="6.667" height="0.667" fill="none"/></g><g transform="translate(-1 -1)" fill="none" stroke="#707070" stroke-width="1"><rect width="1.667" height="1.667" stroke="none"/><rect x="0.5" y="0.5" width="0.667" height="0.667" fill="none"/></g><g transform="translate(-1 7.333)" fill="none" stroke="#707070" stroke-width="1"><rect width="1.667" height="1.667" stroke="none"/><rect x="0.5" y="0.5" width="0.667" height="0.667" fill="none"/></g><g transform="translate(7.333 -1)" fill="none" stroke="#707070" stroke-width="1"><rect width="1.667" height="1.667" stroke="none"/><rect x="0.5" y="0.5" width="0.667" height="0.667" fill="none"/></g><g transform="translate(7.333 7.333)" fill="none" stroke="#707070" stroke-width="1"><rect width="1.667" height="1.667" stroke="none"/><rect x="0.5" y="0.5" width="0.667" height="0.667" fill="none"/></g></g></svg>