<svg id="icon_pointSpecial_kj" xmlns="http://www.w3.org/2000/svg" width="16" height="16" viewBox="0 0 16 16">
  <defs>
    <style>
      .cls-1 {
        fill: #ccc;
      }

      .cls-2 {
        fill: none;
      }

      .cls-3, .cls-6 {
        fill: #fff;
      }

      .cls-3 {
        stroke: #666;
        stroke-miterlimit: 10;
      }

      .cls-4, .cls-5 {
        fill: #666;
      }

      .cls-4 {
        stroke: rgba(0,0,0,0);
      }

      .cls-7, .cls-8 {
        stroke: none;
      }

      .cls-8 {
        fill: #707070;
      }
    </style>
  </defs>
  <path id="路径_607" data-name="路径 607" class="cls-1" d="M12.564,4.659l-8.833,9.22h8.833Z" transform="translate(0 -1)"/>
  <rect id="矩形备份_10" data-name="矩形备份 10" class="cls-2" width="16" height="16"/>
  <rect id="矩形备份_14" data-name="矩形备份 14" class="cls-3" width="3" height="3" transform="translate(5.222 14.222) rotate(180)"/>
  <rect id="矩形备份_14-2" data-name="矩形备份 14" class="cls-3" width="3" height="3" transform="translate(14.222 5.222) rotate(180)"/>
  <path id="矩形备份" class="cls-4" d="M-.011-.213h1.5L1.5,8.8H0Z" transform="translate(5.747 11.758) rotate(-135)"/>
  <rect id="矩形_255" data-name="矩形 255" class="cls-5" width="1.5" height="7" transform="translate(12 5)"/>
  <rect id="矩形_261" data-name="矩形 261" class="cls-5" width="1.5" height="8" transform="translate(4.75 13.5) rotate(-90)"/>
  <g id="多边形_2" data-name="多边形 2" class="cls-6" transform="translate(10 9.6)">
    <path class="cls-7" d="M 5.116899967193604 4.5 L 0.8830999732017517 4.5 L 3 0.971833348274231 L 5.116899967193604 4.5 Z"/>
    <path class="cls-8" d="M 3 1.943650007247925 L 1.766190052032471 4 L 4.233809947967529 4 L 3 1.943650007247925 M 3 0 L 6 5 L 0 5 L 3 0 Z"/>
  </g>
</svg>
