<svg width="168" height="168" viewBox="0 0 168 168" fill="none" xmlns="http://www.w3.org/2000/svg">
  <path
    d="M9.00002 167.333C4.00002 167.333 0.666687 164 0.666687 159C0.666687 154 4.00002 150.667 9.00002 150.667H34.8334L7.33335 123.167C0.666687 116.5 0.666687 106.5 7.33335 99.8334L101.5 5.66675C108.167 -0.999918 118.167 -0.999918 124.833 5.66675L159.833 40.6667C166.5 47.3334 166.5 57.3334 159.833 64.0001L74 150.667H159C164 150.667 167.333 154 167.333 159C167.333 164 164 167.333 159 167.333H9.00002ZM22.3334 109C20.6667 110.667 20.6667 113.167 22.3334 114.833L43.1667 135.667C49.8333 142.333 59.8334 142.333 66.5 135.667L89.8333 112.333L54.8334 77.3334L22.3334 109Z"
    fill="#6272FB" />
</svg>
