<svg xmlns="http://www.w3.org/2000/svg" xmlns:xlink="http://www.w3.org/1999/xlink" width="16" height="16" viewBox="0 0 16 16">
  <defs>
    <style>
      .cls-1 {
        fill: none;
      }

      .cls-2 {
        clip-path: url(#clip-path);
      }

      .cls-3 {
        fill: rgba(0,0,0,0);
      }

      .cls-4 {
        clip-path: url(#clip-path-2);
      }

      .cls-5 {
        fill: #999;
      }

      .cls-6 {
        clip-path: url(#clip-path-3);
      }
    </style>
    <clipPath id="clip-path">
      <path id="路径_5835" data-name="路径 5835" class="cls-1" d="M0,0H16V-16H0Z"/>
    </clipPath>
    <clipPath id="clip-path-2">
      <path id="路径_5837" data-name="路径 5837" class="cls-1" d="M6.786-12A8.1,8.1,0,0,1,9-11.709a2.652,2.652,0,0,0-.13.824v1.034H7.952a.7.7,0,0,0-.294.067,3.038,3.038,0,0,0-.934-.145A2.6,2.6,0,0,0,3.984-7.5,2.6,2.6,0,0,0,6.723-5.071q.126,0,.249-.01V-3.2A.867.867,0,0,0,6.994-3L6.786-3A7.168,7.168,0,0,1,.09-7.144a.748.748,0,0,1,0-.711A7.165,7.165,0,0,1,6.786-12ZM6.723-9.046a1.971,1.971,0,0,1,.313.025,1.124,1.124,0,0,0-.064.359V-5.97a1.978,1.978,0,0,1-.25.016A1.654,1.654,0,0,1,4.98-7.5,1.654,1.654,0,0,1,6.723-9.046Z"/>
    </clipPath>
    <clipPath id="clip-path-3">
      <path id="路径_5839" data-name="路径 5839" class="cls-1" d="M15.214-9.35h-.731v-1.141A2.5,2.5,0,0,0,12-13a2.5,2.5,0,0,0-2.48,2.509V-9.35H8.786a.789.789,0,0,0-.786.8V-3.8a.789.789,0,0,0,.786.8h6.428A.789.789,0,0,0,16-3.8V-8.549A.794.794,0,0,0,15.214-9.35Zm-3.2-2.741c.983,0,1.416.611,1.416,1.695v1.032H10.578V-10.4C10.578-11.479,11.027-12.1,12.01-12.091Zm.57,5.74v1.182a.3.3,0,0,1-.144.246.574.574,0,0,1-.339.1c-.262,0-.482-.16-.482-.351V-6.351A.647.647,0,0,1,11.2-6.9c0-.357.4-.646.889-.646s.889.289.889.646A.613.613,0,0,1,12.58-6.351Z"/>
    </clipPath>
  </defs>
  <g id="icon_eyeLock_h" transform="translate(0 16)">
    <g id="组_23734" data-name="组 23734" class="cls-2">
      <path id="路径_5834" data-name="路径 5834" class="cls-3" d="M-5-21H21V5H-5Z"/>
    </g>
    <g id="组_23735" data-name="组 23735" class="cls-4">
      <path id="路径_5836" data-name="路径 5836" class="cls-5" d="M-5-17H14V2H-5Z"/>
    </g>
    <g id="组_23736" data-name="组 23736" class="cls-6">
      <path id="路径_5838" data-name="路径 5838" class="cls-5" d="M3-18H21V2H3Z"/>
    </g>
  </g>
</svg>
