<?xml version="1.0" encoding="UTF-8"?>
<svg width="16px" height="16px" viewBox="0 0 16 16" version="1.1" xmlns="http://www.w3.org/2000/svg" xmlns:xlink="http://www.w3.org/1999/xlink">
    <!-- Generator: Sketch 55.2 (78181) - https://sketchapp.com -->
    <title>放大</title>
    <desc>Created with Sketch.</desc>
    <defs>
        <rect id="path-1" x="0" y="0" width="16" height="16"></rect>
    </defs>
    <g id="标注工具" stroke="none" stroke-width="1" fill="none" fill-rule="evenodd">
        <g id="icon-切图" transform="translate(-350.000000, -125.000000)">
            <g id="放大" transform="translate(350.000000, 125.000000)">
                <mask id="mask-2" fill="white">
                    <use xlink:href="#path-1"></use>
                </mask>
                <g id="矩形"></g>
                <g mask="url(#mask-2)" fill="#666666" fill-rule="nonzero">
                    <path d="M15.6609771,14.3520065 L13.3912778,12.0823072 C14.3805588,10.8144379 14.9758006,9.22447711 14.9758007,7.49438563 C14.9758007,3.36659478 11.617683,0.00889542279 7.48989215,0.00889542279 C3.3625196,0.00889542279 0.00482025735,3.36659476 0.00482025735,7.49438563 C0.00482025735,11.6221765 3.36251961,14.9802941 7.48989215,14.9802941 C9.15116518,14.9805622 10.764591,14.4240002 12.0723758,13.399536 L14.3420752,15.6700719 C14.706368,16.0359836 15.2981418,16.0378552 15.6647418,15.6742549 C16.0284092,15.3079133 16.0267247,14.7162714 15.6609771,14.3520065 L15.6609771,14.3520065 Z M1.42997059,7.49480392 C1.42997059,4.15341829 4.14850654,1.43530066 7.48989215,1.43530066 C10.8312778,1.43530066 13.5498137,4.15383662 13.5498137,7.49480392 C13.5498137,10.8357712 10.8312778,13.5547255 7.48989215,13.5547255 C4.14850653,13.5547255 1.42997059,10.8357713 1.42997059,7.49480392 Z" id="形状"></path>
                    <path d="M10.0122451,6.78201961 L8.20309478,6.78201961 L8.20309478,4.97203268 C8.20309478,4.59347059 7.88351309,4.28685621 7.48989215,4.28685621 C7.09627123,4.28685621 6.77710783,4.5930523 6.77710785,4.97203268 L6.77710785,6.78201961 L4.96753921,6.78201961 C4.58897711,6.78201961 4.28194445,7.10118301 4.28194445,7.49522222 C4.28194445,7.88884314 4.58814053,8.20842483 4.96753921,8.20842483 L6.77710785,8.20842483 L6.77710785,10.0179935 C6.77710785,10.3961372 7.09627125,10.7035882 7.48989215,10.7035882 C7.88351305,10.7035882 8.20309476,10.3965556 8.20309478,10.0179935 L8.20309478,8.20842483 L10.0122451,8.20842483 C10.3908072,8.20842483 10.6982582,7.88926143 10.6982582,7.49522222 C10.6982582,7.10118301 10.3908072,6.78201961 10.0122451,6.78201961 Z" id="路径"></path>
                </g>
            </g>
        </g>
    </g>
</svg>