<svg xmlns="http://www.w3.org/2000/svg" xmlns:xlink="http://www.w3.org/1999/xlink" width="16" height="16" viewBox="0 0 16 16"><defs><clipPath id="a"><path d="M0,0H16V-16H0Z" fill="none"/></clipPath><clipPath id="b"><path d="M13.75-2.937H2.25a.5.5,0,0,0-.5.5v.563a.125.125,0,0,0,.125.125h12.25a.125.125,0,0,0,.125-.125v-.562A.5.5,0,0,0,13.75-2.937ZM4.027-4.25a.632.632,0,0,0,.094-.008l2.628-.461a.153.153,0,0,0,.083-.044l6.623-6.623a.156.156,0,0,0,0-.22l-2.6-2.6a.155.155,0,0,0-.111-.045.155.155,0,0,0-.111.045L4.012-7.581a.159.159,0,0,0-.044.083L3.508-4.87a.524.524,0,0,0,.147.466.529.529,0,0,0,.372.155Z" fill="none"/></clipPath></defs><g transform="translate(0 16)"><g clip-path="url(#a)"><path d="M-5-21H21V5H-5Z" fill="rgba(0,0,0,0)"/></g><g clip-path="url(#b)"><path d="M-3.25-19.25h22.5V3.25H-3.25Z" fill="#f33"/></g></g></svg>