<svg width="25" height="25" viewBox="0 0 25 25" fill="none" xmlns="http://www.w3.org/2000/svg">
    <g clip-path="url(#clip0_2295_37199)">
        <path
            d="M5.16087 7.8398C5.00351 8.01726 4.94861 8.22216 4.99615 8.45452L5.23337 15.7654C5.25346 16.1002 5.44096 16.4249 5.72087 16.6098L11.9712 20.5356C12.2511 20.7204 12.6883 20.7277 13.0131 20.5402L18.8587 17.1652C19.1835 16.9777 19.3958 16.5954 19.3757 16.2606L19.1385 8.94971C19.0909 8.71735 19.0434 8.485 18.8659 8.32764C18.8284 8.26269 18.6885 8.17029 18.651 8.10533L12.4382 4.24447C12.1208 3.99471 11.6835 3.98735 11.3587 4.17485L5.51308 7.54985C5.38317 7.62485 5.29077 7.7648 5.16087 7.8398ZM12.1109 12.2276L17.6318 9.04014L17.8367 9.09505L18.0538 16.0711L12.468 19.2961L6.5351 15.62L6.31798 8.64399L12.1109 12.2276Z"
            fill="#2C7EFF" />
    </g>
    <defs>
        <clipPath id="clip0_2295_37199">
            <rect width="18" height="18" fill="white" transform="translate(9 24.5898) rotate(-120)" />
        </clipPath>
    </defs>
</svg>