<svg width="27" height="27" viewBox="0 0 27 27" fill="none" xmlns="http://www.w3.org/2000/svg">
    <path
        d="M13.5525 3.01367C7.75439 3.01367 3.03467 7.73076 3.03467 13.5289C3.0373 19.3297 7.75439 24.0468 13.5525 24.0468C19.3507 24.0468 24.0678 19.3297 24.0678 13.5315C24.0678 7.7334 19.3507 3.01367 13.5525 3.01367ZM19.3085 15.9072V15.9521C19.3085 15.9652 19.3059 15.9784 19.3059 15.9942C19.3059 16.0021 19.3059 16.0101 19.3032 16.018C19.3032 16.0312 19.3006 16.0443 19.2979 16.0575C19.2979 16.0654 19.2953 16.076 19.2953 16.0839C19.2927 16.0944 19.2927 16.105 19.29 16.1155C19.2874 16.1261 19.2848 16.1393 19.2848 16.1498C19.2821 16.1577 19.2821 16.1656 19.2795 16.1709C19.2769 16.1867 19.2716 16.2025 19.2689 16.2184C19.2689 16.221 19.2663 16.2236 19.2663 16.2263C19.2083 16.4504 19.0923 16.664 18.9156 16.8406L15.8386 19.9177C15.3112 20.445 14.449 20.445 13.9243 19.9177C13.397 19.3903 13.397 18.5281 13.9243 18.0034L14.6863 17.2414H9.14922C8.40303 17.2414 7.79394 16.6323 7.79394 15.8861C7.79394 15.1399 8.40303 14.5309 9.14922 14.5309H17.9559C18.3039 14.5309 18.652 14.6627 18.9156 14.9264C19.1793 15.19 19.3111 15.5381 19.3111 15.8861C19.3111 15.894 19.3085 15.902 19.3085 15.9072ZM19.3111 11.1743C19.3111 11.9205 18.7021 12.5296 17.9559 12.5296H9.14922C8.80117 12.5296 8.45312 12.3978 8.18945 12.1341C7.92578 11.8704 7.79394 11.5224 7.79394 11.1743V11.1532V11.111C7.79394 11.0979 7.79658 11.082 7.79658 11.0688C7.79658 11.0609 7.79658 11.053 7.79922 11.0451C7.79922 11.0319 7.80186 11.0187 7.80449 11.0056C7.80449 10.9977 7.80713 10.9871 7.80713 10.9792C7.80977 10.9687 7.80976 10.9581 7.8124 10.9476C7.81504 10.937 7.81768 10.9238 7.81768 10.9133C7.82031 10.9054 7.82031 10.8975 7.82295 10.8922C7.82559 10.8764 7.83086 10.8605 7.8335 10.8447C7.8335 10.8421 7.83613 10.8395 7.83613 10.8368C7.89414 10.6127 8.01016 10.3991 8.18682 10.2225L11.2612 7.14805C11.7886 6.6207 12.6508 6.6207 13.1755 7.14805C13.7028 7.67539 13.7028 8.5376 13.1755 9.0623L12.4187 9.82168H17.9559C18.6994 9.82168 19.3111 10.4308 19.3111 11.1743Z"
        fill="#2C7EFF" />
</svg>