<svg width="20" height="20" viewBox="0 0 20 20" fill="none" xmlns="http://www.w3.org/2000/svg">
<path d="M17 17H15V15H17V17ZM17 13H15V11H17V13ZM17 9H15V7H17V9ZM17 5H15V3H17V5Z" fill="#999999"/>
<path d="M17 17H15.4286V15H17V17ZM13.8571 17H12.2857V15H13.8571V17ZM10.7143 17H9.14286V15H10.7143V17ZM7.57143 17H6V15H7.57143V17Z" fill="#999999"/>
<path d="M18 2H14V6H18V2Z" fill="#999999"/>
<path d="M6 14H2V18H6V14Z" fill="#999999"/>
<path d="M18 14H14V18H18V14Z" fill="#999999"/>
<path d="M15.2236 3L16.6378 4.41421L4.4144 16.6377L3.00019 15.2234L15.2236 3Z" fill="#999999"/>
<path d="M15 15L15 17L5 17L5 15L15 15Z" fill="#999999"/>
<path d="M15 6H17V15H15V6Z" fill="#999999"/>
</svg>
