<svg
  t="1720596188811"
  class="icon"
  viewBox="0 0 1024 1024"
  version="1.1"
  xmlns="http://www.w3.org/2000/svg"
  p-id="1478"
  width="200"
  height="200"
>
  <path
    d="M36.5551 360.072857h950.842186q36.5551 0 36.5551 40.190131t-36.5551 40.190131H36.5551Q0 440.453119 0 400.314185q0-40.190131 36.5551-40.190131z"
    fill="#999999"
    p-id="1479"
  ></path>
  <path
    d="M36.5551 583.550465h950.842186q36.5551 0 36.5551 40.190131t-36.5551 40.190131H36.5551q-36.5551 0-36.5551-40.190131t36.5551-40.190131z"
    fill="#999999"
    p-id="1480"
  ></path>
  <path
    d="M553.292672 10.700302l159.634177 89.237451a58.774867 58.774867 0 0 1 29.080248 67.990438 64.406605 64.406605 0 0 1-62.409898 44.388336H344.355187a64.406605 64.406605 0 0 1-62.409897-44.388336 58.774867 58.774867 0 0 1 29.080247-67.990438L470.659714 10.700302a85.448827 85.448827 0 0 1 82.632958 0z m0 1002.654177l159.634177-89.23745a58.774867 58.774867 0 0 0 29.080248-67.990439 64.406605 64.406605 0 0 0-62.409898-44.388336H344.355187a64.406605 64.406605 0 0 0-62.409897 44.388336 58.774867 58.774867 0 0 0 29.080247 67.990439l159.634177 89.23745a85.448827 85.448827 0 0 0 82.632958 0z"
    fill="#999999"
    p-id="1481"
  ></path>
</svg>
