<svg xmlns="http://www.w3.org/2000/svg" width="25" height="18" viewBox="0 0 25 18">
  <defs>
    <style>
      .cls-1 {
        fill: #c3c4ff;
      }

      .cls-2 {
        fill: #fff;
      }

      .cls-3, .cls-4 {
        stroke: none;
      }

      .cls-4 {
        fill: #686aff;
      }
    </style>
  </defs>
  <g id="icon_regionSubtract_a" transform="translate(-48 -343)">
    <g id="多边形_4" data-name="多边形 4" class="cls-1" transform="translate(48 343)">
      <path class="cls-3" d="M 12.2063102722168 13.8999605178833 L 4.453296661376953 13.8999605178833 L 0.5776267051696777 7.19998025894165 L 4.453296661376953 0.5000002384185791 L 12.2063102722168 0.5000002384185791 L 16.08197975158691 7.19998025894165 L 12.2063102722168 13.8999605178833 Z"/>
      <path class="cls-4" d="M 4.741700172424316 1 L 1.15526008605957 7.19998025894165 L 4.741700172424316 13.3999605178833 L 11.91790676116943 13.3999605178833 L 15.50434684753418 7.19998025894165 L 11.91790676116943 1 L 4.741700172424316 1 M 4.16490364074707 0 L 12.49470329284668 0 L 16.65960311889648 7.19998025894165 L 12.49470329284668 14.3999605178833 L 4.16490364074707 14.3999605178833 L 3.814697265625e-06 7.19998025894165 L 4.16490364074707 0 Z"/>
    </g>
    <g id="多边形_5" data-name="多边形 5" class="cls-2" transform="translate(56.34 346.6)">
      <path class="cls-3" d="M 12.2063102722168 13.8999605178833 L 4.453296661376953 13.8999605178833 L 0.5776267051696777 7.19998025894165 L 4.453296661376953 0.5000002384185791 L 12.2063102722168 0.5000002384185791 L 16.08197975158691 7.19998025894165 L 12.2063102722168 13.8999605178833 Z"/>
      <path class="cls-4" d="M 4.741700172424316 1 L 1.15526008605957 7.19998025894165 L 4.741700172424316 13.3999605178833 L 11.91790676116943 13.3999605178833 L 15.50434684753418 7.19998025894165 L 11.91790676116943 1 L 4.741700172424316 1 M 4.16490364074707 0 L 12.49470329284668 0 L 16.65960311889648 7.19998025894165 L 12.49470329284668 14.3999605178833 L 4.16490364074707 14.3999605178833 L 3.814697265625e-06 7.19998025894165 L 4.16490364074707 0 Z"/>
    </g>
  </g>
</svg>
