<?xml version="1.0" encoding="UTF-8"?>
<svg width="16px" height="16px" viewBox="0 0 16 16" version="1.1" xmlns="http://www.w3.org/2000/svg" xmlns:xlink="http://www.w3.org/1999/xlink">
    <!-- Generator: Sketch 55.2 (78181) - https://sketchapp.com -->
    <title>形状</title>
    <desc>Created with Sketch.</desc>
    <defs>
        <rect id="path-1" x="0" y="0" width="16" height="16"></rect>
    </defs>
    <g id="标注工具" stroke="none" stroke-width="1" fill="none" fill-rule="evenodd">
        <g id="icon-切图" transform="translate(-525.000000, -124.000000)">
            <g id="曝光" transform="translate(525.000000, 124.000000)">
                <mask id="mask-2" fill="white">
                    <use xlink:href="#path-1"></use>
                </mask>
                <g id="矩形"></g>
                <g mask="url(#mask-2)" fill-rule="nonzero" id="形状">
                    <path d="M2.6123501,13.1851491 L2.64065558,13.2166896 L2.6413572,13.2203755 C4.01642052,14.6273605 5.88331047,15.4443523 7.88790599,15.474817 L7.9129068,15.4750953 C9.90015586,15.4876256 11.7740345,14.7236019 13.1304117,13.4251429 L13.2081022,13.333556 C14.6189485,11.9554626 15.4315386,10.0884174 15.453245,8.0726293 C15.4749051,6.06074757 14.701873,4.17234442 13.3228152,2.76091268 C11.944524,1.36229865 10.0794546,0.550659153 8.07318152,0.519853677 L8.05116145,0.519458391 C6.04381797,0.507199088 4.15921827,1.27912879 2.7559335,2.64493708 C1.34678056,4.03173715 0.531741066,5.90419121 0.510127959,7.91172667 C0.488530813,9.91789572 1.24972356,11.7905061 2.6123501,13.1851491 Z" stroke="#666666"></path>
                    <path d="M11.8970207,7.47681347 L9.88251295,7.47681347 C9.70012953,6.78873057 9.16126943,6.24158031 8.46489637,6.05919689 L8.46489637,4.04468912 C8.46489637,3.77111399 8.24106218,3.54727979 7.96748705,3.54727979 C7.69391192,3.54727979 7.47007772,3.77111399 7.47007772,4.04468912 L7.47007772,6.05919689 C6.78199482,6.24158031 6.23484456,6.78044041 6.05246114,7.47681347 L4.03795337,7.47681347 C3.76437824,7.47681347 3.54054404,7.70064767 3.54054404,7.9742228 C3.54054404,8.24779793 3.76437824,8.47163212 4.03795337,8.47163212 L6.05246114,8.47163212 C6.23484456,9.15971503 6.77370466,9.70686528 7.47007772,9.8892487 L7.47007772,11.9037565 C7.47007772,12.1773316 7.69391192,12.4011658 7.96748705,12.4011658 C8.24106218,12.4011658 8.46489637,12.1773316 8.46489637,11.9037565 L8.46489637,9.8892487 C9.15297927,9.70686528 9.70012953,9.16800518 9.88251295,8.47163212 L11.8970207,8.47163212 C12.1705959,8.47163212 12.3944301,8.24779793 12.3944301,7.9742228 C12.3944301,7.70064767 12.178886,7.47681347 11.8970207,7.47681347 Z M7.96748705,8.9607513 C7.42862694,8.9607513 6.9892487,8.52137306 6.9892487,7.98251295 C6.9892487,7.44365285 7.42862694,7.00427461 7.96748705,7.00427461 C8.50634715,7.00427461 8.94572539,7.44365285 8.94572539,7.98251295 C8.94572539,8.52137306 8.51463731,8.9607513 7.96748705,8.9607513 L7.96748705,8.9607513 Z" fill="#666666"></path>
                    <path d="M10.1643782,6.27474093 C10.2887306,6.27474093 10.4213731,6.225 10.5125648,6.12551813 L11.0928756,5.54520725 C11.2835492,5.35453368 11.2835492,5.03950777 11.0928756,4.84054404 C10.9022021,4.64987047 10.5871762,4.64987047 10.3882124,4.84054404 L9.80790155,5.42085492 C9.61722798,5.6115285 9.61722798,5.9265544 9.80790155,6.12551813 C9.91567358,6.225 10.0400259,6.27474093 10.1643782,6.27474093 Z M5.42240933,6.13380829 C5.52189119,6.23329016 5.64624352,6.28303109 5.77059585,6.28303109 C5.89494819,6.28303109 6.02759067,6.23329016 6.11878238,6.13380829 C6.30945596,5.94313472 6.30945596,5.62810881 6.11878238,5.42914508 L5.5384715,4.8488342 C5.34779793,4.65816062 5.03277202,4.65816062 4.83380829,4.8488342 C4.64313472,5.03950777 4.64313472,5.35453368 4.83380829,5.55349741 L5.42240933,6.13380829 L5.42240933,6.13380829 Z M5.42240933,9.82292746 L4.84209845,10.4032383 C4.65142487,10.5939119 4.65142487,10.9089378 4.84209845,11.1079016 C4.94158031,11.2073834 5.06593264,11.2571244 5.19028497,11.2571244 C5.31463731,11.2571244 5.44727979,11.2073834 5.5384715,11.1079016 L6.11878238,10.5275907 C6.30945596,10.3369171 6.30945596,10.0218912 6.11878238,9.82292746 C5.92810881,9.63225389 5.6130829,9.63225389 5.42240933,9.82292746 L5.42240933,9.82292746 Z M10.5208549,9.82292746 C10.3301813,9.63225389 10.0151554,9.63225389 9.81619171,9.82292746 C9.62551813,10.013601 9.62551813,10.3286269 9.81619171,10.5275907 L10.3965026,11.1079016 C10.4959845,11.2073834 10.6203368,11.2571244 10.7446891,11.2571244 C10.8690415,11.2571244 11.0016839,11.2073834 11.0928756,11.1079016 C11.2835492,10.917228 11.2835492,10.6022021 11.0928756,10.4032383 L10.5208549,9.82292746 L10.5208549,9.82292746 Z" fill="#666666"></path>
                </g>
            </g>
        </g>
    </g>
</svg>