<svg xmlns="http://www.w3.org/2000/svg" width="16" height="16" viewBox="0 0 16 16"><g transform="translate(-1838 -1616)"><rect width="16" height="16" transform="translate(1838 1616)" fill="none"/><path d="M1,1V11H11V1H1M1,0H11a1,1,0,0,1,1,1V11a1,1,0,0,1-1,1H1a1,1,0,0,1-1-1V1A1,1,0,0,1,1,0Z" transform="translate(1840 1618)" fill="#707070"/><path d="M9030-7951h-1v-3h3v1h-2Z" transform="translate(-7187 9574)" fill="#999"/><path d="M9030-7951h-1v-3h3v1h-2Z" transform="translate(10878.999 -6326) rotate(180)" fill="#999"/></g></svg>