<svg width="18" height="18" viewBox="0 0 18 18" fill="none" xmlns="http://www.w3.org/2000/svg">
<path d="M4.51167 2.71599C4.74635 2.29337 5.17465 2.10594 5.82757 2.08389C6.4883 2.06158 7.29545 2.21333 8.1757 2.39212C8.24048 2.40527 8.30562 2.41857 8.37106 2.43192C9.1773 2.59648 10.0295 2.7704 10.8111 2.80992C11.5982 2.84972 12.3726 2.7575 12.981 2.33349L14.4847 7.94547C14.1113 8.36814 13.5579 8.53382 12.8401 8.53519C12.0868 8.53662 11.2192 8.35694 10.3171 8.16539L10.2472 8.15055C9.38511 7.96739 8.49104 7.77744 7.71115 7.77281C7.05248 7.76891 6.42055 7.89705 5.94777 8.31566L6.12378 8.97253L6.17039 9.00567C6.47973 8.57056 6.98912 8.39863 7.70742 8.40289C8.42203 8.40713 9.2622 8.58553 10.1555 8.77522L10.1862 8.78174C11.0723 8.96987 12.0085 9.16686 12.8413 9.16527C13.6792 9.16368 14.478 8.96097 15.022 8.28544C15.1223 8.161 15.1512 7.99842 15.1123 7.85305L13.5451 2.00413C13.4925 1.80807 13.3383 1.68953 13.1828 1.64876C13.0302 1.60876 12.8516 1.63528 12.711 1.74879C12.267 2.10725 11.632 2.22053 10.8429 2.18064C10.1113 2.14365 9.30494 1.97925 8.48615 1.81231L8.48604 1.81229C8.42446 1.79974 8.36281 1.78717 8.30112 1.77464C7.43651 1.59903 6.55449 1.4289 5.80631 1.45416C5.21621 1.47409 4.66001 1.61836 4.25925 2.014L4.4361 2.67402L4.51167 2.71599Z" fill="#666666"/>
<path d="M3.00723 2.62484C2.93646 2.36074 3.09319 2.08928 3.35729 2.01851C3.6214 1.94774 3.89286 2.10447 3.96363 2.36858L7.45817 15.4104C7.52894 15.6745 7.37221 15.946 7.10811 16.0167C6.844 16.0875 6.57254 15.9308 6.50177 15.6667L3.00723 2.62484Z" fill="#666666"/>
</svg>
