<svg width="20" height="20" viewBox="0 0 20 20" fill="none" xmlns="http://www.w3.org/2000/svg">
<path d="M17 5H15.4286V3H17V5ZM13.8571 5H12.2857V3H13.8571V5ZM10.7143 5H9.14286V3H10.7143V5ZM7.57143 5H6V3H7.57143V5Z" fill="#999999"/>
<path d="M17 17H15V15H17V17ZM17 13H15V11H17V13ZM17 9H15V7H17V9ZM17 5H15V3H17V5Z" fill="#999999"/>
<path d="M17 17H15.4286V15H17V17ZM13.8571 17H12.2857V15H13.8571V17ZM10.7143 17H9.14286V15H10.7143V17ZM7.57143 17H6V15H7.57143V17Z" fill="#999999"/>
<path d="M6 2H2V6H6V2Z" fill="#999999"/>
<path d="M18 2H14V6H18V2Z" fill="#999999"/>
<path d="M6 14H2V18H6V14Z" fill="#999999"/>
<path d="M18 14H14V18H18V14Z" fill="#999999"/>
<path d="M5 6H3V15H5V6Z" fill="white"/>
<path d="M3 6H5V15H3V6Z" fill="#999999"/>
<path d="M15 3L15 5L5 5L5 3L15 3Z" fill="#999999"/>
<path d="M15 15L15 17L5 17L5 15L15 15Z" fill="#999999"/>
<path d="M15 6H17V15H15V6Z" fill="#999999"/>
</svg>
