<svg xmlns="http://www.w3.org/2000/svg" xmlns:xlink="http://www.w3.org/1999/xlink" width="16" height="16" viewBox="0 0 16 16">
  <defs>
    <style>
      .cls-1 {
        fill: none;
      }

      .cls-2 {
        clip-path: url(#clip-path);
      }

      .cls-3 {
        fill: rgba(0,0,0,0);
      }

      .cls-4 {
        clip-path: url(#clip-path-2);
      }

      .cls-5 {
        fill: #666;
      }
    </style>
    <clipPath id="clip-path">
      <path id="路径_683" data-name="路径 683" class="cls-1" d="M0,0H16V-16H0Z" transform="translate(0 16)"/>
    </clipPath>
    <clipPath id="clip-path-2">
      <path id="路径_685" data-name="路径 685" class="cls-1" d="M5.035-6.521A2.264,2.264,0,0,0,2.774-4.254,2.263,2.263,0,0,0,5.035-1.989,2.264,2.264,0,0,0,7.3-4.255,2.263,2.263,0,0,0,5.035-6.521Zm.039,3.36A1.172,1.172,0,0,1,3.905-4.332,1.171,1.171,0,0,1,5.074-5.5a1.17,1.17,0,0,1,1.169,1.17A1.172,1.172,0,0,1,5.074-3.16Zm5.281-3.517a2.283,2.283,0,0,0-2.28,2.286,2.282,2.282,0,0,0,2.28,2.284,2.283,2.283,0,0,0,2.28-2.286,2.284,2.284,0,0,0-2.28-2.284ZM10.414-3.2A1.171,1.171,0,0,1,9.245-4.373a1.171,1.171,0,0,1,1.169-1.172,1.171,1.171,0,0,1,1.169,1.172A1.171,1.171,0,0,1,10.414-3.2Zm1.676-11.565a2.871,2.871,0,0,1,.468,3.048L7.686-5.506s-3.35-3.869-4.715-5.783A3.142,3.142,0,0,1,3.048-15L7.686-9.061ZM7.686-6.8a.586.586,0,0,0,.585-.587.586.586,0,0,0-.585-.587.586.586,0,0,0-.585.587A.586.586,0,0,0,7.686-6.8Z" transform="translate(-2.384 15)"/>
    </clipPath>
  </defs>
  <g id="组_1289" data-name="组 1289" transform="translate(0 16)">
    <g id="组_1219" data-name="组 1219" class="cls-2" transform="translate(0 -16)">
      <path id="路径_682" data-name="路径 682" class="cls-3" d="M-5-21H21V5H-5Z" transform="translate(0 16)"/>
    </g>
    <g id="组_1220" data-name="组 1220" class="cls-4" transform="translate(2.794 -14.506)">
      <path id="路径_684" data-name="路径 684" class="cls-5" d="M-2.616-20H17.068V2.305H-2.616Z" transform="translate(-2.019 15.353)"/>
    </g>
  </g>
</svg>
