<svg xmlns="http://www.w3.org/2000/svg" xmlns:xlink="http://www.w3.org/1999/xlink" width="16" height="16" viewBox="0 0 16 16">
  <defs>
    <style>
      .cls-1 {
        fill: none;
      }

      .cls-2 {
        opacity: 0.8;
      }

      .cls-3, .cls-7 {
        fill: #fff;
      }

      .cls-3 {
        opacity: 0;
      }

      .cls-4 {
        clip-path: url(#clip-path);
      }

      .cls-5 {
        fill: rgba(0,0,0,0);
      }

      .cls-6 {
        clip-path: url(#clip-path-2);
      }
    </style>
    <clipPath id="clip-path">
      <path id="路径_296" data-name="路径 296" class="cls-1" d="M0,0H16V-16H0Z"/>
    </clipPath>
    <clipPath id="clip-path-2">
      <path id="路径_298" data-name="路径 298" class="cls-1" d="M8-15A7,7,0,0,0,1-8,7,7,0,0,0,8-1a7,7,0,0,0,7-7A7,7,0,0,0,8-15ZM8-3.937a.625.625,0,0,1-.625-.625A.625.625,0,0,1,8-5.187a.625.625,0,0,1,.625.625A.625.625,0,0,1,8-3.937Zm.983-3.43a.755.755,0,0,0-.483.7v.355a.125.125,0,0,1-.125.125h-.75A.125.125,0,0,1,7.5-6.312v-.336a1.777,1.777,0,0,1,.311-1.014A1.746,1.746,0,0,1,8.625-8.3,1.265,1.265,0,0,0,9.5-9.437,1.394,1.394,0,0,0,8-10.687a1.394,1.394,0,0,0-1.5,1.25v.119a.125.125,0,0,1-.125.125h-.75A.125.125,0,0,1,5.5-9.319v-.119a2.13,2.13,0,0,1,.756-1.614A2.634,2.634,0,0,1,8-11.687a2.642,2.642,0,0,1,1.744.636A2.13,2.13,0,0,1,10.5-9.437,2.255,2.255,0,0,1,8.983-7.367Z"/>
    </clipPath>
  </defs>
  <g id="icon_helpDoc_h" class="cls-2" transform="translate(0 16)">
    <circle id="椭圆_1" data-name="椭圆 1" class="cls-3" cx="8" cy="8" r="8" transform="translate(0 -16)"/>
    <g id="组_576" data-name="组 576" class="cls-4">
      <path id="路径_295" data-name="路径 295" class="cls-5" d="M-5-21H21V5H-5Z"/>
    </g>
    <g id="组_577" data-name="组 577" class="cls-6">
      <path id="路径_297" data-name="路径 297" class="cls-7" d="M-4-20H20V4H-4Z"/>
    </g>
  </g>
</svg>
