<svg xmlns="http://www.w3.org/2000/svg" width="200" height="132" viewBox="0 0 200 132">
  <defs>
    <style>
      .cls-1 {
        fill: #444;
      }
    </style>
  </defs>
  <g id="icon_buildVideo" transform="translate(-334.93 -243.554)">
    <path id="路径_684" data-name="路径 684" class="cls-1" d="M979.365,532.2a37.423,37.423,0,1,1,0,52.923,37.447,37.447,0,0,1,0-52.923Zm23.154,31.66,16.066,16.066a4.022,4.022,0,0,0,5.671,0l2.835-2.835a4.022,4.022,0,0,0,0-5.671l-16.066-16.066a14.05,14.05,0,0,0-17.956-17.956l7.088,7.088a4.022,4.022,0,0,1,0,5.671l-2.835,2.835a4.022,4.022,0,0,1-5.671,0l-7.088-7.088a14.049,14.049,0,0,0,17.956,17.956ZM1020,572.834a2,2,0,1,1,0,2.835,1.969,1.969,0,0,1,0-2.835Zm0,0" transform="translate(-508.309 -223.79)"/>
    <path id="路径_685" data-name="路径 685" class="cls-1" d="M590.238,243.554H681.7c13.125.009,23.752,11.027,23.752,24.619v27.089a46.168,46.168,0,0,0-57.7,5.79,45.4,45.4,0,0,0,15.661,74.5h-73.2c-12.4,0-22.572-9.83-23.655-22.4V266.237C567.509,253.534,577.734,243.554,590.238,243.554ZM657,269.935a5.06,5.06,0,0,0,5.08,5.04H676.6a5.06,5.06,0,0,0,5.08-5.04h0a5.06,5.06,0,0,0-5.08-5.04H662.083a5.06,5.06,0,0,0-5.08,5.04Zm-73.77,0a5.06,5.06,0,0,0,5.08,5.04h46.564a5.06,5.06,0,0,0,5.08-5.04h0a5.06,5.06,0,0,0-5.08-5.04H588.313a5.06,5.06,0,0,0-5.08,5.04Z" transform="translate(-185.965)"/>
    <path id="路径_686" data-name="路径 686" class="cls-1" d="M372.933,402.457s-31.053,15.425-34.994,12.775c-3.916-2.66-4.115-101.74.025-104.516v.018c4.115-2.785,34.994,12.757,34.994,12.757" transform="translate(0 -53.62)"/>
  </g>
</svg>
