<svg xmlns="http://www.w3.org/2000/svg" xmlns:xlink="http://www.w3.org/1999/xlink" width="20" height="20" viewBox="0 0 20 20">
  <defs>
    <style>
      .cls-1 {
        fill: none;
      }

      .cls-2 {
        clip-path: url(#clip-path);
      }

      .cls-3 {
        fill: rgba(0,0,0,0);
      }

      .cls-4 {
        clip-path: url(#clip-path-2);
      }

      .cls-5 {
        fill: #bbb;
      }
    </style>
    <clipPath id="clip-path">
      <path id="路径_683" data-name="路径 683" class="cls-1" d="M0,4H20V-16H0Z" transform="translate(0 16)"/>
    </clipPath>
    <clipPath id="clip-path-2">
      <path id="路径_685" data-name="路径 685" class="cls-1" d="M5.959-3.6A3.049,3.049,0,0,0,2.91-.547,3.047,3.047,0,0,0,5.959,2.5,3.049,3.049,0,0,0,9.008-.549,3.047,3.047,0,0,0,5.959-3.6ZM6.011.924A1.578,1.578,0,0,1,4.435-.652,1.577,1.577,0,0,1,6.011-2.229,1.575,1.575,0,0,1,7.588-.654,1.578,1.578,0,0,1,6.011.924Zm7.121-4.73A3.075,3.075,0,0,0,10.058-.732,3.073,3.073,0,0,0,13.133,2.34,3.075,3.075,0,0,0,16.207-.734a3.076,3.076,0,0,0-3.074-3.072ZM13.211.869A1.577,1.577,0,0,1,11.635-.707a1.577,1.577,0,0,1,1.576-1.576A1.577,1.577,0,0,1,14.787-.707,1.577,1.577,0,0,1,13.211.869Zm2.26-15.555a3.853,3.853,0,0,1,.631,4.1L9.533-2.23s-4.518-5.2-6.357-7.777A4.217,4.217,0,0,1,3.279-15L9.533-7.012ZM9.533-3.965a.789.789,0,0,0,.789-.789.789.789,0,0,0-.789-.789.789.789,0,0,0-.789.789A.789.789,0,0,0,9.533-3.965Z" transform="translate(-2.384 15)"/>
    </clipPath>
  </defs>
  <g id="icon_videoCut" transform="translate(0 16)">
    <g id="组_1219" data-name="组 1219" class="cls-2" transform="translate(0 -16)">
      <path id="路径_682" data-name="路径 682" class="cls-3" d="M-5-21H27.5V11.5H-5Z" transform="translate(-1.25 14.75)"/>
    </g>
    <g id="组_1220" data-name="组 1220" class="cls-4" transform="translate(2.98 -14.75)">
      <path id="路径_684" data-name="路径 684" class="cls-5" d="M-2.616-20H23.926V10H-2.616Z" transform="translate(-3.634 13.75)"/>
    </g>
  </g>
</svg>
