<svg width="24" height="24" viewBox="0 0 24 24" fill="none" xmlns="http://www.w3.org/2000/svg">
<path fill-rule="evenodd" clip-rule="evenodd" d="M12.2503 19.8382C16.4411 19.8382 19.8384 16.441 19.8384 12.2502C19.8384 8.05939 16.4411 4.66211 12.2503 4.66211C8.05952 4.66211 4.66223 8.05939 4.66223 12.2502C4.66223 16.441 8.05952 19.8382 12.2503 19.8382Z" stroke="white" stroke-width="1.2" stroke-linecap="round" stroke-linejoin="round"/>
<path d="M12.2502 4.02984V1.50049" stroke="white" stroke-width="1.2" stroke-linecap="round" stroke-linejoin="round"/>
<path d="M12.2502 23.0001V20.4707" stroke="white" stroke-width="1.2" stroke-linecap="round" stroke-linejoin="round"/>
<path d="M23 12.25H20.4706" stroke="white" stroke-width="1.2" stroke-linecap="round" stroke-linejoin="round"/>
<path d="M4.02984 12.25H1.50049" stroke="white" stroke-width="1.2" stroke-linecap="round" stroke-linejoin="round"/>
<path d="M12.2501 13.5147C12.9486 13.5147 13.5148 12.9485 13.5148 12.25C13.5148 11.5515 12.9486 10.9854 12.2501 10.9854C11.5516 10.9854 10.9854 11.5515 10.9854 12.25C10.9854 12.9485 11.5516 13.5147 12.2501 13.5147Z" fill="white"/>
</svg>
