<svg width="9.201172" height="9.200073" viewBox="0 0 9.20117 9.20007" fill="none" xmlns="http://www.w3.org/2000/svg" xmlns:xlink="http://www.w3.org/1999/xlink">
	<desc>
			Created with Pixso.
	</desc>
	<path id="Exclude" d="M8.20117 5.59998L5.60156 5.59998L5.60156 8.20007C5.60156 8.75232 5.15234 9.20007 4.60156 9.20007C4.04883 9.20007 3.60156 8.75232 3.60156 8.20007L3.60156 5.59998L1 5.59998C0.449219 5.59998 0 5.15234 0 4.59998C0 4.04773 0.449219 3.59998 1 3.59998L3.60156 3.59998L3.60156 1C3.60156 0.447754 4.04883 0 4.60156 0C5.15234 0 5.60156 0.447754 5.60156 1L5.60156 3.59998L8.20117 3.59998C8.75391 3.59998 9.20117 4.04773 9.20117 4.59998C9.20117 5.15234 8.75391 5.59998 8.20117 5.59998Z" fill-rule="evenodd" fill="#0D53DE"/>
	<defs/>
</svg>
