<svg width="10.450195" height="10.420227" viewBox="0 0 10.4502 10.4202" fill="none" xmlns="http://www.w3.org/2000/svg" xmlns:xlink="http://www.w3.org/1999/xlink">
	<desc>
			Created with Pixso.
	</desc>
	<path id="错误" d="M10.1914 0.194397C9.93066 -0.0654907 9.50879 -0.0646973 9.24854 0.196106L5.21533 4.2442L1.16699 0.210693C0.90625 -0.0491943 0.484375 -0.0484619 0.224121 0.212402C-0.0356445 0.473206 -0.034668 0.895325 0.226074 1.15521L4.27393 5.18872L0.194336 9.28302C-0.0654297 9.54382 -0.0649414 9.96594 0.196289 10.2258C0.457031 10.4857 0.878906 10.4849 1.13867 10.2241L5.21875 6.12982L9.31299 10.2095C9.57373 10.4694 9.99609 10.4687 10.2559 10.2079C10.5156 9.94702 10.5151 9.52496 10.2539 9.26508L6.15967 5.1853L10.1934 1.13721C10.4531 0.876404 10.4526 0.454285 10.1914 0.194397Z" fill-rule="evenodd" fill="#333333"/>
	<defs/>
</svg>
