<svg width="20.000000" height="20.000000" viewBox="0 0 20 20" fill="none" xmlns="http://www.w3.org/2000/svg" xmlns:xlink="http://www.w3.org/1999/xlink">
	<desc>
			Created with Pixso.
	</desc>
	<path id="Exclude" d="M10 20C15.5234 20 20 15.5228 20 10C20 4.47717 15.5234 0 10 0C4.47656 0 0 4.47717 0 10C0 15.5228 4.47656 20 10 20Z" fill-rule="evenodd" fill="#0D53DE"/>
	<path id="Exclude" d="M14.5547 9.99866C14.5547 9.44641 14.1074 8.99866 13.5547 8.99866L10.9551 8.99866L8.95508 8.99866L6.35352 8.99866C5.80273 8.99866 5.35352 9.44641 5.35352 9.99866C5.35352 10.551 5.80273 10.9987 6.35352 10.9987L8.95508 10.9987L10.9551 10.9987L13.5547 10.9987C14.1074 10.9987 14.5547 10.551 14.5547 9.99866Z" fill-rule="evenodd" fill="#0D53DE"/>
	<defs/>
</svg>
