<svg width="36" height="36" viewBox="0 0 36 36" fill="none" xmlns="http://www.w3.org/2000/svg">
<rect width="36" height="36" rx="4" fill="#444444"/>
<path d="M18 26.6C22.7497 26.6 26.6 22.7497 26.6 18C26.6 13.2503 22.7497 9.4 18 9.4C13.2503 9.4 9.4 13.2503 9.4 18C9.4 22.7497 13.2503 26.6 18 26.6Z" stroke="white" stroke-width="1.2" stroke-linecap="round" stroke-linejoin="round"/>
<path d="M18 9V6" stroke="white" stroke-width="1.2" stroke-linecap="round" stroke-linejoin="round"/>
<path d="M18 30V27" stroke="white" stroke-width="1.2" stroke-linecap="round" stroke-linejoin="round"/>
<path d="M30 18H27" stroke="white" stroke-width="1.2" stroke-linecap="round" stroke-linejoin="round"/>
<path d="M9 18H6" stroke="white" stroke-width="1.2" stroke-linecap="round" stroke-linejoin="round"/>
<path d="M18 21C19.6569 21 21 19.6569 21 18C21 16.3431 19.6569 15 18 15C16.3431 15 15 16.3431 15 18C15 19.6569 16.3431 21 18 21Z" fill="white"/>
<path d="M21.9674 23.5663C21.6434 24.7157 21.1189 25.8574 20.5171 26.6057C20.6329 26.7831 20.8103 27.1689 20.872 27.3386C21.0417 27.1226 21.196 26.8834 21.358 26.6211V30.6017H22.0291V25.3097C22.2529 24.8006 22.4457 24.2683 22.6077 23.7437L21.9674 23.5663ZM24.3434 25.0474C24.1891 25.8266 23.8497 26.8063 23.3637 27.408C23.4563 27.5546 23.5797 27.8169 23.6337 27.9711C23.7494 27.8246 23.8651 27.678 23.9731 27.5083V30.5709H24.5749V26.2971C24.7214 25.9269 24.8371 25.5411 24.9374 25.1786L24.3434 25.0474ZM26.9971 25.1323H26.38V26.1429H24.8757V26.7446H26.38V29.8457C26.38 29.946 26.3491 29.9691 26.2489 29.9691C26.164 29.9769 25.8554 29.9769 25.5314 29.9691C25.6086 30.1389 25.6934 30.4089 25.7166 30.5709C26.2026 30.5709 26.5189 30.5554 26.7271 30.4551C26.9354 30.3549 26.9971 30.1774 26.9971 29.8534V26.7446H27.6066V26.1429H26.9971V25.1323ZM26.1794 28.7349C26.0251 28.326 25.7011 27.6857 25.4234 27.1843L24.9374 27.4157C25.1997 27.9171 25.5237 28.5883 25.6703 29.0049L26.1794 28.7349ZM25.624 24.2837C25.5314 24.0291 25.4003 23.7129 25.2691 23.466L24.6366 23.6357C24.7291 23.8286 24.8217 24.0677 24.8989 24.2837H22.6771V26.8834C22.6771 27.9017 22.6386 29.2826 22.1911 30.2391C22.3531 30.3009 22.6309 30.4783 22.7543 30.594C23.2403 29.5757 23.3174 27.9866 23.3174 26.8834V24.9086H27.6451V24.2837H25.624ZM32.1117 24.5151H34.318V27.948H35.0354V23.8903H31.4174V27.948H32.1117V24.5151ZM31.186 27.8091C31.0471 27.6471 30.5457 27.0609 30.2526 26.7446C30.5997 26.22 30.9006 25.6491 31.1011 25.0551L30.7231 24.8006L30.5843 24.8314H29.89L30.4146 24.5074C30.2757 24.2297 29.9826 23.8363 29.6971 23.5509L29.1494 23.8671C29.3963 24.1449 29.674 24.5537 29.8129 24.8314H28.4937V25.4794H30.2449C29.8051 26.4129 29.0569 27.3 28.3086 27.8014C28.4089 27.948 28.5554 28.326 28.6094 28.5266C28.8717 28.3337 29.1494 28.0946 29.404 27.8169V30.6094H30.0906V27.4466C30.3297 27.7706 30.592 28.1409 30.7309 28.38L31.186 27.8091ZM34.048 29.9691C33.8629 29.9691 33.8011 29.9074 33.8011 29.6991V27.8709H33.3614C33.4926 27.3694 33.5311 26.868 33.5311 26.4283V25.032H32.8446V26.4129C32.8446 27.6009 32.6286 29.082 30.6923 30.0849C30.8311 30.1929 31.0703 30.4706 31.1551 30.6171C32.1966 30.0617 32.7983 29.3289 33.1377 28.5574V29.7763C33.1377 30.3394 33.3614 30.5014 33.9246 30.5014H34.5494C35.2591 30.5014 35.3517 30.1697 35.4289 28.974C35.2591 28.9277 35.0277 28.8351 34.858 28.704C34.8349 29.7531 34.7886 29.9691 34.5571 29.9691H34.048Z" fill="white"/>
<path d="M21.9674 23.5663L22.2879 22.4099L21.1366 22.0908L20.8124 23.2407L21.9674 23.5663ZM20.5171 26.6057L19.582 25.8537L19.0365 26.5321L19.512 27.2612L20.5171 26.6057ZM20.872 27.3386L19.7442 27.7487L20.4819 29.7773L21.8156 28.08L20.872 27.3386ZM21.358 26.6211H22.558V22.3947L20.337 25.9906L21.358 26.6211ZM21.358 30.6017H20.158V31.8017H21.358V30.6017ZM22.0291 30.6017V31.8017H23.2291V30.6017H22.0291ZM22.0291 25.3097L20.9305 24.827L20.8291 25.0577V25.3097H22.0291ZM22.6077 23.7437L23.7543 24.0978L24.1189 22.9172L22.9282 22.5873L22.6077 23.7437ZM24.3434 25.0474L24.6021 23.8756L23.4045 23.6112L23.1663 24.8143L24.3434 25.0474ZM23.3637 27.408L22.4302 26.654L21.8903 27.3224L22.3491 28.0488L23.3637 27.408ZM23.6337 27.9711L22.5011 28.3676L23.2225 30.4287L24.5756 28.7147L23.6337 27.9711ZM23.9731 27.5083H25.1731V23.3874L22.9607 26.864L23.9731 27.5083ZM23.9731 30.5709H22.7731V31.7709H23.9731V30.5709ZM24.5749 30.5709V31.7709H25.7749V30.5709H24.5749ZM24.5749 26.2971L23.4591 25.8555L23.3749 26.0683V26.2971H24.5749ZM24.9374 25.1786L26.094 25.4985L26.4312 24.2795L25.1961 24.0068L24.9374 25.1786ZM26.9971 25.1323H28.1971V23.9323H26.9971V25.1323ZM26.38 25.1323V23.9323H25.18V25.1323H26.38ZM26.38 26.1429V27.3429H27.58V26.1429H26.38ZM24.8757 26.1429V24.9429H23.6757V26.1429H24.8757ZM24.8757 26.7446H23.6757V27.9446H24.8757V26.7446ZM26.38 26.7446H27.58V25.5446H26.38V26.7446ZM26.2489 29.9691V28.7691H26.1944L26.1402 28.7741L26.2489 29.9691ZM25.5314 29.9691L25.56 28.7695L23.6473 28.7239L24.439 30.4657L25.5314 29.9691ZM25.7166 30.5709L24.5286 30.7406L24.6758 31.7709H25.7166V30.5709ZM26.9971 26.7446V25.5446H25.7971V26.7446H26.9971ZM27.6066 26.7446V27.9446H28.8066V26.7446H27.6066ZM27.6066 26.1429H28.8066V24.9429H27.6066V26.1429ZM26.9971 26.1429H25.7971V27.3429H26.9971V26.1429ZM26.1794 28.7349L26.7416 29.795L27.6753 29.2999L27.3022 28.3112L26.1794 28.7349ZM25.4234 27.1843L26.4732 26.6029L25.9264 25.6157L24.9075 26.1009L25.4234 27.1843ZM24.9374 27.4157L24.4215 26.3323L23.2966 26.8679L23.8741 27.9719L24.9374 27.4157ZM25.6703 29.0049L24.5383 29.4031L25.001 30.7181L26.2325 30.065L25.6703 29.0049ZM25.624 24.2837L24.4962 24.6938L24.7835 25.4837H25.624V24.2837ZM25.2691 23.466L26.3289 22.903L25.8808 22.0595L24.9582 22.307L25.2691 23.466ZM24.6366 23.6357L24.3256 22.4767L22.929 22.8514L23.5547 24.155L24.6366 23.6357ZM24.8989 24.2837V25.4837H26.6017L26.0289 23.8801L24.8989 24.2837ZM22.6771 24.2837V23.0837H21.4771V24.2837H22.6771ZM22.1911 30.2391L21.1042 29.7307L20.5569 30.9007L21.7639 31.3605L22.1911 30.2391ZM22.7543 30.594L21.9336 31.4694L23.1305 32.5916L23.8373 31.1109L22.7543 30.594ZM23.3174 24.9086V23.7086H22.1174V24.9086H23.3174ZM27.6451 24.9086V26.1086H28.8451V24.9086H27.6451ZM27.6451 24.2837H28.8451V23.0837H27.6451V24.2837ZM20.8124 23.2407C20.5156 24.2939 20.05 25.2718 19.582 25.8537L21.4523 27.3577C22.1878 26.4431 22.7713 25.1375 23.1224 23.8919L20.8124 23.2407ZM19.512 27.2612C19.5113 27.2601 19.515 27.2658 19.5232 27.2801C19.5311 27.2939 19.5411 27.3119 19.553 27.3341C19.5768 27.3791 19.6038 27.433 19.6313 27.4907C19.69 27.6141 19.7318 27.7146 19.7442 27.7487L21.9998 26.9285C21.9181 26.704 21.7036 26.2282 21.5223 25.9502L19.512 27.2612ZM21.8156 28.08C22.0293 27.808 22.2128 27.5207 22.379 27.2517L20.337 25.9906C20.1792 26.2462 20.0541 26.4372 19.9284 26.5972L21.8156 28.08ZM20.158 26.6211V30.6017H22.558V26.6211H20.158ZM21.358 31.8017H22.0291V29.4017H21.358V31.8017ZM23.2291 30.6017V25.3097H20.8291V30.6017H23.2291ZM23.1278 25.7924C23.3727 25.2351 23.581 24.659 23.7543 24.0978L21.4611 23.3896C21.3105 23.8775 21.133 24.3661 20.9305 24.827L23.1278 25.7924ZM22.9282 22.5873L22.2879 22.4099L21.647 24.7227L22.2873 24.9001L22.9282 22.5873ZM23.1663 24.8143C23.0277 25.5141 22.7384 26.2724 22.4302 26.654L24.2972 28.162C24.961 27.3401 25.3506 26.1391 25.5206 25.2805L23.1663 24.8143ZM22.3491 28.0488C22.3599 28.0658 22.3908 28.121 22.4299 28.203C22.4685 28.2839 22.4934 28.3457 22.5011 28.3676L24.7663 27.5747C24.6852 27.3429 24.5237 26.9974 24.3783 26.7672L22.3491 28.0488ZM24.5756 28.7147C24.6871 28.5735 24.84 28.3813 24.9855 28.1525L22.9607 26.864C22.8903 26.9747 22.8118 27.0757 22.6919 27.2276L24.5756 28.7147ZM22.7731 27.5083V30.5709H25.1731V27.5083H22.7731ZM23.9731 31.7709H24.5749V29.3709H23.9731V31.7709ZM25.7749 30.5709V26.2971H23.3749V30.5709H25.7749ZM25.6906 26.7388C25.8608 26.3089 25.9899 25.8749 26.094 25.4985L23.7809 24.8587C23.6844 25.2074 23.5821 25.5448 23.4591 25.8555L25.6906 26.7388ZM25.1961 24.0068L24.6021 23.8756L24.0847 26.2192L24.6787 26.3504L25.1961 24.0068ZM26.9971 23.9323H26.38V26.3323H26.9971V23.9323ZM25.18 25.1323V26.1429H27.58V25.1323H25.18ZM26.38 24.9429H24.8757V27.3429H26.38V24.9429ZM23.6757 26.1429V26.7446H26.0757V26.1429H23.6757ZM24.8757 27.9446H26.38V25.5446H24.8757V27.9446ZM25.18 26.7446V29.8457H27.58V26.7446H25.18ZM25.18 29.8457C25.18 29.8224 25.1802 29.7217 25.2163 29.5901C25.2571 29.4411 25.3495 29.2338 25.5469 29.0552C25.7376 28.8827 25.9376 28.8175 26.054 28.792C26.1611 28.7684 26.2402 28.7691 26.2489 28.7691V31.1691C26.2872 31.1691 26.7623 31.1921 27.1571 30.8349C27.5901 30.4431 27.58 29.9287 27.58 29.8457H25.18ZM26.1402 28.7741C26.1644 28.7719 26.1658 28.7728 26.1213 28.7737C26.0865 28.7745 26.0388 28.7749 25.9798 28.7749C25.8624 28.7749 25.7138 28.7731 25.56 28.7695L25.5029 31.1688C25.8035 31.176 26.1893 31.1795 26.3575 31.1642L26.1402 28.7741ZM24.439 30.4657C24.4514 30.4929 24.4748 30.5532 24.498 30.6279C24.5087 30.6627 24.5172 30.6934 24.5231 30.7175C24.5296 30.744 24.5301 30.7508 24.5286 30.7406L26.9045 30.4012C26.8618 30.1019 26.7368 29.7211 26.6239 29.4726L24.439 30.4657ZM25.7166 31.7709C25.9616 31.7709 26.214 31.7675 26.444 31.7448C26.6696 31.7225 26.9606 31.6746 27.2477 31.5363L26.2066 29.3739C26.2854 29.336 26.3141 29.3459 26.208 29.3564C26.1063 29.3665 25.9576 29.3709 25.7166 29.3709V31.7709ZM27.2477 31.5363C27.5938 31.3697 27.8804 31.0933 28.0444 30.7082C28.182 30.3849 28.1971 30.0638 28.1971 29.8534H25.7971C25.7971 29.9671 25.7814 29.8966 25.8361 29.7681C25.869 29.691 25.9219 29.6043 26.0001 29.5246C26.0766 29.4464 26.1532 29.3997 26.2066 29.3739L27.2477 31.5363ZM28.1971 29.8534V26.7446H25.7971V29.8534H28.1971ZM26.9971 27.9446H27.6066V25.5446H26.9971V27.9446ZM28.8066 26.7446V26.1429H26.4066V26.7446H28.8066ZM27.6066 24.9429H26.9971V27.3429H27.6066V24.9429ZM28.1971 26.1429V25.1323H25.7971V26.1429H28.1971ZM27.3022 28.3112C27.1158 27.8173 26.7566 27.1145 26.4732 26.6029L24.3737 27.7657C24.6457 28.2569 24.9345 28.8347 25.0567 29.1585L27.3022 28.3112ZM24.9075 26.1009L24.4215 26.3323L25.4533 28.4991L25.9393 28.2677L24.9075 26.1009ZM23.8741 27.9719C24.1338 28.4685 24.4226 29.0742 24.5383 29.4031L26.8023 28.6066C26.6249 28.1024 26.2656 27.3658 26.0007 26.8595L23.8741 27.9719ZM26.2325 30.065L26.7416 29.795L25.6172 27.6747L25.1081 27.9447L26.2325 30.065ZM26.7518 23.8736C26.6483 23.5892 26.4955 23.2166 26.3289 22.903L24.2094 24.029C24.3051 24.2091 24.4145 24.4691 24.4962 24.6938L26.7518 23.8736ZM24.9582 22.307L24.3256 22.4767L24.9475 24.7947L25.5801 24.625L24.9582 22.307ZM23.5547 24.155C23.6204 24.2918 23.6966 24.4853 23.7688 24.6873L26.0289 23.8801C25.9468 23.6502 25.8379 23.3653 25.7184 23.1164L23.5547 24.155ZM24.8989 23.0837H22.6771V25.4837H24.8989V23.0837ZM21.4771 24.2837V26.8834H23.8771V24.2837H21.4771ZM21.4771 26.8834C21.4771 27.9467 21.4203 29.0548 21.1042 29.7307L23.2781 30.7476C23.8568 29.5104 23.8771 27.8567 23.8771 26.8834H21.4771ZM21.7639 31.3605C21.7402 31.3515 21.7391 31.3491 21.7645 31.3627C21.7859 31.3741 21.8141 31.3905 21.8453 31.4102C21.8765 31.43 21.9041 31.4489 21.9247 31.4642C21.9488 31.4819 21.949 31.4839 21.9336 31.4694L23.575 29.7186C23.4342 29.5866 23.2625 29.4669 23.129 29.3824C22.9971 29.2989 22.809 29.1904 22.6183 29.1178L21.7639 31.3605ZM23.8373 31.1109C24.1626 30.4293 24.3233 29.6276 24.4094 28.9145C24.4976 28.1848 24.5174 27.4584 24.5174 26.8834H22.1174C22.1174 27.4116 22.0987 28.0314 22.0268 28.6266C21.9529 29.2384 21.832 29.7405 21.6713 30.0771L23.8373 31.1109ZM24.5174 26.8834V24.9086H22.1174V26.8834H24.5174ZM23.3174 26.1086H27.6451V23.7086H23.3174V26.1086ZM28.8451 24.9086V24.2837H26.4451V24.9086H28.8451ZM27.6451 23.0837H25.624V25.4837H27.6451V23.0837ZM32.1117 24.5151V23.3151H30.9117V24.5151H32.1117ZM34.318 24.5151H35.518V23.3151H34.318V24.5151ZM34.318 27.948H33.118V29.148H34.318V27.948ZM35.0354 27.948V29.148H36.2354V27.948H35.0354ZM35.0354 23.8903H36.2354V22.6903H35.0354V23.8903ZM31.4174 23.8903V22.6903H30.2174V23.8903H31.4174ZM31.4174 27.948H30.2174V29.148H31.4174V27.948ZM32.1117 27.948V29.148H33.3117V27.948H32.1117ZM31.186 27.8091L32.1243 28.5572L32.7428 27.7815L32.0971 27.0282L31.186 27.8091ZM30.2526 26.7446L29.2519 26.0823L28.7315 26.8687L29.3725 27.5603L30.2526 26.7446ZM31.1011 25.0551L32.2381 25.439L32.5311 24.5714L31.7715 24.0598L31.1011 25.0551ZM30.7231 24.8006L31.3935 23.8052L30.966 23.5173L30.4628 23.6291L30.7231 24.8006ZM30.5843 24.8314V26.0314H30.716L30.8446 26.0029L30.5843 24.8314ZM29.89 24.8314L29.2594 23.8105L25.6636 26.0314H29.89V24.8314ZM30.4146 24.5074L31.0452 25.5284L31.9785 24.9519L31.4879 23.9708L30.4146 24.5074ZM29.6971 23.5509L30.5457 22.7023L29.8945 22.0512L29.0971 22.5117L29.6971 23.5509ZM29.1494 23.8671L28.5493 22.828L27.2745 23.5641L28.2525 24.6644L29.1494 23.8671ZM29.8129 24.8314V26.0314H31.7545L30.8862 24.2948L29.8129 24.8314ZM28.4937 24.8314V23.6314H27.2937V24.8314H28.4937ZM28.4937 25.4794H27.2937V26.6794H28.4937V25.4794ZM30.2449 25.4794L31.3304 25.9908L32.1366 24.2794H30.2449V25.4794ZM28.3086 27.8014L27.6406 26.8046L26.634 27.4791L27.3182 28.479L28.3086 27.8014ZM28.6094 28.5266L27.4507 28.8385L27.9068 30.5327L29.3203 29.4934L28.6094 28.5266ZM29.404 27.8169H30.604V24.7319L28.5194 27.006L29.404 27.8169ZM29.404 30.6094H28.204V31.8094H29.404V30.6094ZM30.0906 30.6094V31.8094H31.2906V30.6094H30.0906ZM30.0906 27.4466L31.0561 26.7339L28.8906 23.8001V27.4466H30.0906ZM30.7309 28.38L29.6931 28.9826L30.5747 30.5008L31.6691 29.1281L30.7309 28.38ZM33.8011 27.8709H35.0011V26.6709H33.8011V27.8709ZM33.3614 27.8709L32.2005 27.5672L31.8072 29.0709H33.3614V27.8709ZM33.5311 25.032H34.7311V23.832H33.5311V25.032ZM32.8446 25.032V23.832H31.6446V25.032H32.8446ZM30.6923 30.0849L30.1404 29.0193L28.476 29.8813L29.9556 31.0321L30.6923 30.0849ZM31.1551 30.6171L30.1166 31.2184L30.6973 32.2213L31.7198 31.676L31.1551 30.6171ZM33.1377 28.5574H34.3377L32.0393 28.0741L33.1377 28.5574ZM35.4289 28.974L36.6264 29.0513L36.6894 28.074L35.7446 27.8163L35.4289 28.974ZM34.858 28.704L35.5917 27.7545L33.7107 26.3009L33.6583 28.6775L34.858 28.704ZM32.1117 25.7151H34.318V23.3151H32.1117V25.7151ZM33.118 24.5151V27.948H35.518V24.5151H33.118ZM34.318 29.148H35.0354V26.748H34.318V29.148ZM36.2354 27.948V23.8903H33.8354V27.948H36.2354ZM35.0354 22.6903H31.4174V25.0903H35.0354V22.6903ZM30.2174 23.8903V27.948H32.6174V23.8903H30.2174ZM31.4174 29.148H32.1117V26.748H31.4174V29.148ZM33.3117 27.948V24.5151H30.9117V27.948H33.3117ZM32.0971 27.0282C31.9654 26.8745 31.4456 26.2665 31.1327 25.9289L29.3725 27.5603C29.6458 27.8552 30.1289 28.4198 30.2749 28.5901L32.0971 27.0282ZM31.2533 27.4068C31.6432 26.8176 31.9969 26.1534 32.2381 25.439L29.9642 24.6712C29.8043 25.1449 29.5562 25.6224 29.2519 26.0823L31.2533 27.4068ZM31.7715 24.0598L31.3935 23.8052L30.0528 25.7959L30.4308 26.0505L31.7715 24.0598ZM30.4628 23.6291L30.324 23.66L30.8446 26.0029L30.9835 25.972L30.4628 23.6291ZM30.5843 23.6314H29.89V26.0314H30.5843V23.6314ZM30.5206 25.8524L31.0452 25.5284L29.784 23.4865L29.2594 23.8105L30.5206 25.8524ZM31.4879 23.9708C31.279 23.553 30.9004 23.0571 30.5457 22.7023L28.8486 24.3994C29.0647 24.6155 29.2724 24.9065 29.3413 25.0441L31.4879 23.9708ZM29.0971 22.5117L28.5493 22.828L29.7495 24.9063L30.2972 24.59L29.0971 22.5117ZM28.2525 24.6644C28.4357 24.8704 28.6518 25.1927 28.7395 25.3681L30.8862 24.2948C30.6962 23.9148 30.3569 23.4193 30.0463 23.0699L28.2525 24.6644ZM29.8129 23.6314H28.4937V26.0314H29.8129V23.6314ZM27.2937 24.8314V25.4794H29.6937V24.8314H27.2937ZM28.4937 26.6794H30.2449V24.2794H28.4937V26.6794ZM29.1593 24.968C28.8023 25.7259 28.1898 26.4365 27.6406 26.8046L28.9766 28.7983C29.9239 28.1635 30.808 27.0998 31.3304 25.9908L29.1593 24.968ZM27.3182 28.479C27.2941 28.4438 27.292 28.4336 27.3105 28.4718C27.3249 28.5016 27.3437 28.5438 27.3643 28.5948C27.4085 28.7036 27.4403 28.7999 27.4507 28.8385L29.7682 28.2146C29.7246 28.0526 29.6561 27.8596 29.5884 27.6927C29.5299 27.5486 29.428 27.3124 29.2989 27.1238L27.3182 28.479ZM29.3203 29.4934C29.636 29.2612 29.9739 28.971 30.2886 28.6277L28.5194 27.006C28.3249 27.2182 28.1074 27.4062 27.8986 27.5598L29.3203 29.4934ZM28.204 27.8169V30.6094H30.604V27.8169H28.204ZM29.404 31.8094H30.0906V29.4094H29.404V31.8094ZM31.2906 30.6094V27.4466H28.8906V30.6094H31.2906ZM29.1251 28.1592C29.3668 28.4867 29.5917 28.8078 29.6931 28.9826L31.7686 27.7774C31.5923 27.4739 31.2926 27.0545 31.0561 26.7339L29.1251 28.1592ZM31.6691 29.1281L32.1243 28.5572L30.2477 27.0611L29.7926 27.6319L31.6691 29.1281ZM34.048 28.7691C34.0572 28.7691 34.1417 28.7685 34.2593 28.8019C34.3925 28.8398 34.5743 28.9235 34.7338 29.0949C34.8886 29.2614 34.9525 29.4356 34.9786 29.541C34.9914 29.5927 34.9965 29.6334 34.9988 29.6573C35.0011 29.6815 35.0011 29.6966 35.0011 29.6991H32.6011C32.6011 29.842 32.6031 30.3282 32.9765 30.7296C33.3764 31.1595 33.8911 31.1691 34.048 31.1691V28.7691ZM35.0011 29.6991V27.8709H32.6011V29.6991H35.0011ZM33.8011 26.6709H33.3614V29.0709H33.8011V26.6709ZM34.5224 28.1745C34.6874 27.5436 34.7311 26.9335 34.7311 26.4283H32.3311C32.3311 26.8025 32.2978 27.1952 32.2005 27.5672L34.5224 28.1745ZM34.7311 26.4283V25.032H32.3311V26.4283H34.7311ZM33.5311 23.832H32.8446V26.232H33.5311V23.832ZM31.6446 25.032V26.4129H34.0446V25.032H31.6446ZM31.6446 26.4129C31.6446 26.9448 31.5928 27.4068 31.4042 27.8172C31.2291 28.198 30.892 28.63 30.1404 29.0193L31.2442 31.1504C32.4289 30.5368 33.1679 29.7268 33.5849 28.8194C33.9884 27.9415 34.0446 27.0689 34.0446 26.4129H31.6446ZM29.9556 31.0321C29.9341 31.0154 29.935 31.0136 29.9604 31.0391C29.9815 31.0604 30.0084 31.0893 30.0371 31.1225C30.0658 31.1555 30.0908 31.1865 30.1091 31.2108C30.1311 31.2399 30.1298 31.2412 30.1166 31.2184L32.1937 30.0159C32.0942 29.8442 31.9548 29.6707 31.8508 29.5506C31.7472 29.4311 31.5919 29.2643 31.429 29.1376L29.9556 31.0321ZM31.7198 31.676C33.0001 30.9931 33.789 30.0568 34.2361 29.0407L32.0393 28.0741C31.8076 28.6009 31.393 29.1303 30.5904 29.5583L31.7198 31.676ZM31.9377 28.5574V29.7763H34.3377V28.5574H31.9377ZM31.9377 29.7763C31.9377 30.1659 32.0058 30.7931 32.5283 31.2518C33.0073 31.6723 33.6006 31.7014 33.9246 31.7014V29.3014C33.8321 29.3014 33.8163 29.2938 33.8435 29.3003C33.8781 29.3086 33.9909 29.3422 34.1116 29.4482C34.2391 29.5601 34.3009 29.6868 34.3259 29.7662C34.346 29.83 34.3377 29.8473 34.3377 29.7763H31.9377ZM33.9246 31.7014H34.5494V29.3014H33.9246V31.7014ZM34.5494 31.7014C34.8009 31.7014 35.1367 31.6755 35.4713 31.5236C35.8487 31.3524 36.1178 31.0711 36.2898 30.7421C36.4412 30.4524 36.5069 30.146 36.5448 29.8994C36.5841 29.6434 36.6069 29.3525 36.6264 29.0513L34.2313 28.8967C34.2122 29.1934 34.1945 29.3923 34.1726 29.5349C34.1493 29.6867 34.133 29.6874 34.1629 29.6301C34.1824 29.5928 34.2192 29.535 34.2809 29.4748C34.3441 29.4131 34.4139 29.3679 34.4795 29.3382C34.5947 29.2859 34.6529 29.3014 34.5494 29.3014V31.7014ZM35.7446 27.8163C35.7177 27.8089 35.6773 27.7952 35.6376 27.7773C35.6189 27.7688 35.6046 27.7614 35.595 27.7558C35.5851 27.7501 35.5848 27.7491 35.5917 27.7545L34.1243 29.6535C34.4623 29.9147 34.8566 30.0618 35.1131 30.1317L35.7446 27.8163ZM33.6583 28.6775C33.6526 28.9358 33.6458 29.1242 33.6364 29.2643C33.6265 29.4135 33.6163 29.4607 33.6173 29.4562C33.6187 29.4502 33.6293 29.4053 33.6593 29.3407C33.6902 29.2739 33.7498 29.169 33.857 29.0636C33.9703 28.9521 34.1064 28.8701 34.2502 28.8214C34.3845 28.7758 34.496 28.7691 34.5571 28.7691V31.1691C34.8153 31.1691 35.2082 31.101 35.5401 30.7744C35.8189 30.5002 35.914 30.1744 35.954 30.0038C36.032 29.671 36.047 29.2157 36.0577 28.7305L33.6583 28.6775ZM34.5571 28.7691H34.048V31.1691H34.5571V28.7691Z" fill="#444444"/>
</svg>
