<svg width="8" height="9" viewBox="0 0 8 9" fill="none" xmlns="http://www.w3.org/2000/svg">
<path d="M5.66755 1.24865L5.84206 1.60857L5.66755 1.24865C5.13904 1.50489 4.52067 1.49716 3.99873 1.22777C3.37183 0.904206 2.65027 0.845922 1.99072 1.04948C1.87269 0.784626 1.60714 0.6 1.29845 0.6C0.880071 0.6 0.540918 0.939152 0.540918 1.35753L0.540918 7.64247C0.540918 8.06085 0.880071 8.4 1.29845 8.4C1.71683 8.4 2.05598 8.06085 2.05598 7.64247V5.1964C2.56105 4.98472 3.13835 5.00454 3.63182 5.25922C4.37768 5.64418 5.26131 5.65522 6.01656 5.28905L6.01657 5.28905L7.01871 4.80316L7.01871 4.80316C7.28775 4.67271 7.45863 4.4 7.45863 4.10097V1.36441C7.45863 1.15208 7.34937 0.954643 7.16938 0.841891C6.98945 0.729179 6.76415 0.716952 6.57305 0.809615C6.57304 0.80962 6.57303 0.809625 6.57302 0.80963L5.66755 1.24865Z" fill="#7190FF" stroke="white" stroke-width="0.8"/>
</svg>
