<svg
  t="1718704851867"
  class="icon"
  viewBox="0 0 1024 1024"
  version="1.1"
  xmlns="http://www.w3.org/2000/svg"
  p-id="6005"
  width="200"
  height="200"
>
  <path
    d="M178.4 276C292.8 106.4 514.4 48 697.6 138.4c204.8 102.4 288.8 350.4 189.6 556-96.8 204-341.6 291.2-545.6 193.6-83.2-40-151.2-106.4-192-189.6-10.4-20.8-2.4-45.6 18.4-56 20-10.4 44.8-2.4 55.2 18.4v0.8c80 162.4 276 229.6 438.4 149.6 66.4-32.8 119.2-86.4 151.2-152.8 80-164.8 12-362.4-151.2-444.8-156-76.8-344-18.4-429.6 132.8h70.4c23.2 0 41.6 18.4 41.6 41.6s-18.4 41.6-41.6 41.6H136.8c-23.2 0-41.6-18.4-40.8-41.6V221.6c0-23.2 18.4-41.6 40.8-41.6 23.2 0 41.6 18.4 40.8 41.6v54.4z"
    fill="#666666"
    p-id="6006"
  ></path>
</svg>
