<svg width="68" height="76" viewBox="0 0 68 76" fill="none" xmlns="http://www.w3.org/2000/svg">
<g clip-path="url(#clip0_96880_20054)">
<rect x="6.45483" y="0.848145" width="54.0956" height="56.7089" rx="1.04533" fill="url(#paint0_linear_96880_20054)" fill-opacity="0.12"/>
<path d="M67 41.3584V75H0V57.755L65.6869 40.348C66.3501 40.1722 67 40.6723 67 41.3584Z" fill="url(#paint1_linear_96880_20054)"/>
<path d="M0.182861 35.8192V75.3775H67.0837V59.9767L1.60277 34.8433C0.91818 34.5806 0.182861 35.086 0.182861 35.8192Z" fill="url(#paint2_linear_96880_20054)"/>
<path d="M34.8791 22C31.5247 22 28.8956 22.9519 26.9464 24.8558C25.4935 26.2426 24.5938 28.0144 24.2124 30.171C23.9638 31.5762 25.1568 32.7431 26.5838 32.7431V32.7431C28.0108 32.7431 29.098 31.5652 29.4401 30.1799C29.627 29.423 29.912 28.7815 30.3008 28.2555C31.2074 27.0316 32.6126 26.4423 34.5618 26.4423C36.103 26.4423 37.3269 26.8503 38.1882 27.7115C39.0041 28.5728 39.4574 29.7514 39.4574 31.2473C39.4574 32.3805 39.0494 33.4684 38.2335 34.4657L37.6896 35.1003C34.7431 37.7294 32.9753 39.6332 32.386 40.8571C31.9171 41.7614 31.6462 42.8142 31.5366 43.9972C31.4651 44.7702 31.9823 45.4588 32.7224 45.6932V45.6932C33.2639 45.8647 33.8406 45.8939 34.3967 45.778L34.957 45.6612C35.9679 45.4505 36.6494 44.5444 36.9087 43.5449C37.0201 43.1152 37.1747 42.7029 37.3723 42.3077C37.7802 41.4918 38.3695 40.7212 39.1854 40.0865C41.3613 38.1827 42.6758 36.9588 43.0838 36.5055C44.1717 35.0549 44.761 33.1964 44.761 30.9299C44.761 28.1648 43.8544 25.989 42.0412 24.4025C40.228 22.7706 37.8255 22 34.8791 22ZM34.0632 48.1552C33.0659 48.1552 32.25 48.4725 31.6154 49.1071C30.8901 49.7418 30.5728 50.5577 30.5728 51.5549C30.5728 52.5522 30.8901 53.3681 31.6154 54.0027C32.25 54.6374 33.0659 55 34.0632 55C35.0604 55 35.8764 54.6827 36.6016 54.0481C37.2363 53.4135 37.5989 52.5522 37.5989 51.5549C37.5989 50.5577 37.2363 49.7418 36.6016 49.1071C35.9217 48.4725 35.0604 48.1552 34.0632 48.1552Z" fill="#F3F3F3" fill-opacity="0.25"/>
</g>
<defs>
<linearGradient id="paint0_linear_96880_20054" x1="33.5026" y1="0.848145" x2="33.5026" y2="57.557" gradientUnits="userSpaceOnUse">
<stop stop-color="#EDEDED"/>
<stop offset="1" stop-color="white"/>
</linearGradient>
<linearGradient id="paint1_linear_96880_20054" x1="33.5" y1="32.9214" x2="33.5" y2="62.8103" gradientUnits="userSpaceOnUse">
<stop stop-color="#373737"/>
<stop offset="1" stop-color="#0E0E0E"/>
</linearGradient>
<linearGradient id="paint2_linear_96880_20054" x1="33.6333" y1="31.097" x2="33.6333" y2="74.1393" gradientUnits="userSpaceOnUse">
<stop stop-color="#2C2C2C"/>
<stop offset="1" stop-color="#424242"/>
</linearGradient>
<clipPath id="clip0_96880_20054">
<rect width="68" height="76.0002" fill="white"/>
</clipPath>
</defs>
</svg>
