<svg width="16" height="17" viewBox="0 0 16 17" fill="none" xmlns="http://www.w3.org/2000/svg">
<path d="M4.33331 4.6437V3.104C4.33331 2.58624 4.75305 2.1665 5.27081 2.1665H13.3958C13.9136 2.1665 14.3333 2.58624 14.3333 3.104V11.229C14.3333 11.7468 13.9136 12.1665 13.3958 12.1665H11.8387" fill="#CCCCCC"/>
<path d="M4.33331 4.6437V3.104C4.33331 2.58624 4.75305 2.1665 5.27081 2.1665H13.3958C13.9136 2.1665 14.3333 2.58624 14.3333 3.104V11.229C14.3333 11.7468 13.9136 12.1665 13.3958 12.1665H11.8387" stroke="#666666" stroke-width="1.33333" stroke-linecap="round" stroke-linejoin="round"/>
<path d="M10.7292 4.8335H2.60419C2.08642 4.8335 1.66669 5.25323 1.66669 5.771V13.896C1.66669 14.4138 2.08642 14.8335 2.60419 14.8335H10.7292C11.247 14.8335 11.6667 14.4138 11.6667 13.896V5.771C11.6667 5.25323 11.247 4.8335 10.7292 4.8335Z" fill="#CCCCCC" stroke="#666666" stroke-width="1.33333" stroke-linejoin="round"/>
</svg>
