<svg width="16" height="17" viewBox="0 0 16 17" fill="none" xmlns="http://www.w3.org/2000/svg">
<path d="M14.0606 2.74219V5.16642H11.6364" stroke="#666666" stroke-width="0.8" stroke-linecap="round" stroke-linejoin="round"/>
<path d="M14.6667 8.50016C14.6667 12.1821 11.6819 15.1668 8.00002 15.1668C4.31812 15.1668 1.33335 12.1821 1.33335 8.50016C1.33335 4.81826 4.31812 1.8335 8.00002 1.8335C10.4674 1.8335 12.6217 3.17387 13.7744 5.1662" stroke="#666666" stroke-width="1.3" stroke-linecap="round" stroke-linejoin="round"/>
<path d="M4.219 11V6.016H3.281L2.518 6.611V7.661L3.281 7.115V11H4.219ZM7.6968 9.572C7.6968 9.299 7.6758 9.012 7.5638 8.781C7.4938 8.641 7.3958 8.529 7.2628 8.424C7.3818 8.326 7.4658 8.221 7.5288 8.095C7.6408 7.857 7.6618 7.612 7.6618 7.353C7.6618 6.926 7.5918 6.562 7.3048 6.275C7.0878 6.058 6.7798 5.96 6.4438 5.96C6.1078 5.96 5.8138 6.058 5.5968 6.275C5.3098 6.562 5.2398 6.926 5.2398 7.353C5.2398 7.612 5.2608 7.857 5.3728 8.095C5.4358 8.221 5.5198 8.326 5.6388 8.424C5.5058 8.529 5.4078 8.641 5.3378 8.781C5.2258 9.012 5.2048 9.299 5.2048 9.572C5.2048 10.041 5.2328 10.412 5.5618 10.734C5.7858 10.951 6.1148 11.056 6.4508 11.056C6.7868 11.056 7.1158 10.951 7.3398 10.734C7.6688 10.412 7.6968 10.041 7.6968 9.572ZM6.7588 9.523C6.7588 9.656 6.7728 9.978 6.6748 10.111C6.6258 10.174 6.5418 10.216 6.4508 10.216C6.3598 10.216 6.2758 10.181 6.2268 10.111C6.1288 9.971 6.1428 9.656 6.1428 9.523C6.1428 9.39 6.1218 9.061 6.2268 8.921C6.2758 8.851 6.3598 8.816 6.4508 8.816C6.5418 8.816 6.6188 8.851 6.6748 8.921C6.7798 9.061 6.7588 9.39 6.7588 9.523ZM6.7238 7.402C6.7238 7.528 6.7518 7.843 6.6258 7.969C6.5838 8.011 6.5208 8.032 6.4508 8.032C6.3808 8.032 6.3248 8.011 6.2758 7.969C6.1428 7.85 6.1778 7.528 6.1778 7.402C6.1778 7.283 6.1568 7.003 6.2548 6.884C6.3038 6.828 6.3738 6.8 6.4508 6.8C6.5278 6.8 6.5978 6.828 6.6468 6.884C6.7448 7.003 6.7238 7.283 6.7238 7.402ZM10.6496 9.838V7.178C10.6496 6.744 10.5306 6.492 10.3066 6.282C10.0826 6.065 9.75359 5.96 9.41759 5.96C9.08159 5.96 8.75259 6.065 8.52859 6.282C8.30459 6.492 8.18559 6.744 8.18559 7.178V9.838C8.18559 10.272 8.30459 10.524 8.52859 10.734C8.75259 10.951 9.08159 11.056 9.41759 11.056C9.75359 11.056 10.0826 10.951 10.3066 10.734C10.5306 10.524 10.6496 10.272 10.6496 9.838ZM9.71159 9.873C9.71159 10.104 9.58559 10.216 9.41759 10.216C9.24959 10.216 9.12359 10.104 9.12359 9.873V7.143C9.12359 6.912 9.24959 6.8 9.41759 6.8C9.58559 6.8 9.71159 6.912 9.71159 7.143V9.873ZM13.6304 7.129C13.6304 6.443 13.0774 5.89 12.3914 5.89C11.7054 5.89 11.1524 6.443 11.1524 7.129C11.1524 7.815 11.7054 8.368 12.3914 8.368C13.0774 8.368 13.6304 7.815 13.6304 7.129ZM12.8044 7.129C12.8044 7.36 12.6224 7.542 12.3914 7.542C12.1604 7.542 11.9784 7.36 11.9784 7.129C11.9784 6.898 12.1604 6.716 12.3914 6.716C12.6224 6.716 12.8044 6.898 12.8044 7.129Z" fill="#666666"/>
</svg>
