<svg
  t="1717751173252"
  class="icon"
  viewBox="0 0 1024 1024"
  version="1.1"
  xmlns="http://www.w3.org/2000/svg"
  p-id="3511"
  width="24"
  height="24"
>
  <path
    d="M490.666667 59.733333C240.896 59.733333 38.4 262.229333 38.4 512c0 249.770667 202.496 452.266667 452.266667 452.266667a452.266667 452.266667 0 0 0 406.954666-254.72 25.6 25.6 0 0 0-46.08-22.4A401.066667 401.066667 0 1 1 891.733333 512a25.6 25.6 0 0 0 51.242667 0c0-249.770667-202.496-452.266667-452.266667-452.266667z"
    fill="#ffffff"
    p-id="3512"
  ></path>
  <path
    d="M917.333333 192a21.333333 21.333333 0 0 0-20.992 17.493333L896 213.333333v298.666667a21.333333 21.333333 0 0 0 42.325333 3.84L938.666667 512V213.333333a21.333333 21.333333 0 0 0-21.333334-21.333333z"
    fill="#ffffff"
    p-id="3513"
  ></path>
  <path
    d="M322.688 523.093333c-29.568 0-45.696-20.736-45.696-56.832 0-36.864 19.2-58.752 43.392-58.752 30.72 0 51.84 25.344 56.064 81.024-16.896 24.576-36.48 34.56-53.76 34.56z m-82.176 113.28c16.512 16.896 39.552 29.952 72.192 29.952 54.528 0 105.216-44.544 105.216-155.904 0-93.312-43.776-137.088-97.92-137.088-45.696 0-84.096 36.864-84.096 92.928 0 59.136 31.872 88.704 79.104 88.704 21.504 0 45.696-12.672 62.208-33.024-2.688 80.64-32.256 108.288-66.432 108.288-18.048 0-35.328-8.448-46.464-21.12l-23.808 27.264zM547.712 666.325333c55.296 0 91.392-49.152 91.392-147.456 0-97.536-36.096-145.536-91.392-145.536-55.68 0-91.392 47.616-91.392 145.536 0 98.304 35.712 147.456 91.392 147.456z m0-34.944c-28.8 0-49.152-30.72-49.152-112.512 0-81.024 20.352-110.592 49.152-110.592 28.8 0 49.152 29.568 49.152 110.592 0 81.792-20.352 112.512-49.152 112.512zM730.88 480.085333c31.104 0 56.832-23.04 56.832-57.216 0-34.176-25.728-57.216-56.832-57.216-30.336 0-56.448 23.04-56.448 57.216 0 34.176 26.112 57.216 56.448 57.216z m0-23.04c-18.432 0-31.104-14.208-31.104-34.176 0-20.352 12.672-34.56 31.104-34.56 18.816 0 31.488 14.208 31.488 34.56 0 19.968-12.672 34.176-31.488 34.176z"
    fill="#ffffff"
    p-id="3514"
  ></path>
</svg>
