<svg width="24" height="24" viewBox="0 0 24 24" fill="none" xmlns="http://www.w3.org/2000/svg">
<path d="M21.0908 3.36377V7.00012H17.4544" stroke="white" stroke-width="1.2" stroke-linecap="round" stroke-linejoin="round"/>
<path d="M22 12C22 17.5229 17.5229 22 12 22C6.47715 22 2 17.5229 2 12C2 6.47715 6.47715 2 12 2C15.701 2 18.9324 4.01056 20.6616 6.99905" stroke="white" stroke-width="1.2" stroke-linecap="round" stroke-linejoin="round"/>
<path d="M8.536 15V9.304H7.464L6.592 9.984V11.184L7.464 10.56V15H8.536ZM12.5106 13.368C12.5106 13.056 12.4866 12.728 12.3586 12.464C12.2786 12.304 12.1666 12.176 12.0146 12.056C12.1506 11.944 12.2466 11.824 12.3186 11.68C12.4466 11.408 12.4706 11.128 12.4706 10.832C12.4706 10.344 12.3906 9.928 12.0626 9.6C11.8146 9.352 11.4626 9.24 11.0786 9.24C10.6946 9.24 10.3586 9.352 10.1106 9.6C9.78263 9.928 9.70263 10.344 9.70263 10.832C9.70263 11.128 9.72663 11.408 9.85463 11.68C9.92663 11.824 10.0226 11.944 10.1586 12.056C10.0066 12.176 9.89463 12.304 9.81463 12.464C9.68663 12.728 9.66263 13.056 9.66263 13.368C9.66263 13.904 9.69463 14.328 10.0706 14.696C10.3266 14.944 10.7026 15.064 11.0866 15.064C11.4706 15.064 11.8466 14.944 12.1026 14.696C12.4786 14.328 12.5106 13.904 12.5106 13.368ZM11.4386 13.312C11.4386 13.464 11.4546 13.832 11.3426 13.984C11.2866 14.056 11.1906 14.104 11.0866 14.104C10.9826 14.104 10.8866 14.064 10.8306 13.984C10.7186 13.824 10.7346 13.464 10.7346 13.312C10.7346 13.16 10.7106 12.784 10.8306 12.624C10.8866 12.544 10.9826 12.504 11.0866 12.504C11.1906 12.504 11.2786 12.544 11.3426 12.624C11.4626 12.784 11.4386 13.16 11.4386 13.312ZM11.3986 10.888C11.3986 11.032 11.4306 11.392 11.2866 11.536C11.2386 11.584 11.1666 11.608 11.0866 11.608C11.0066 11.608 10.9426 11.584 10.8866 11.536C10.7346 11.4 10.7746 11.032 10.7746 10.888C10.7746 10.752 10.7506 10.432 10.8626 10.296C10.9186 10.232 10.9986 10.2 11.0866 10.2C11.1746 10.2 11.2546 10.232 11.3106 10.296C11.4226 10.432 11.3986 10.752 11.3986 10.888ZM15.8853 13.672V10.632C15.8853 10.136 15.7493 9.848 15.4933 9.608C15.2373 9.36 14.8613 9.24 14.4773 9.24C14.0933 9.24 13.7173 9.36 13.4613 9.608C13.2053 9.848 13.0693 10.136 13.0693 10.632V13.672C13.0693 14.168 13.2053 14.456 13.4613 14.696C13.7173 14.944 14.0933 15.064 14.4773 15.064C14.8613 15.064 15.2373 14.944 15.4933 14.696C15.7493 14.456 15.8853 14.168 15.8853 13.672ZM14.8133 13.712C14.8133 13.976 14.6693 14.104 14.4773 14.104C14.2853 14.104 14.1413 13.976 14.1413 13.712V10.592C14.1413 10.328 14.2853 10.2 14.4773 10.2C14.6693 10.2 14.8133 10.328 14.8133 10.592V13.712ZM19.2919 10.576C19.2919 9.792 18.6599 9.16 17.8759 9.16C17.0919 9.16 16.4599 9.792 16.4599 10.576C16.4599 11.36 17.0919 11.992 17.8759 11.992C18.6599 11.992 19.2919 11.36 19.2919 10.576ZM18.3479 10.576C18.3479 10.84 18.1399 11.048 17.8759 11.048C17.6119 11.048 17.4039 10.84 17.4039 10.576C17.4039 10.312 17.6119 10.104 17.8759 10.104C18.1399 10.104 18.3479 10.312 18.3479 10.576Z" fill="white"/>
</svg>
