<svg width="24.000000" height="24.000000" viewBox="0 0 24 24" fill="none" xmlns="http://www.w3.org/2000/svg" xmlns:xlink="http://www.w3.org/1999/xlink">
	<desc>
			Created with Pixso.
	</desc>
	<mask id="mask155_5132" mask-type="alpha" maskUnits="userSpaceOnUse" x="0.000000" y="0.000000" width="24.000000" height="24.000000">
		<rect id="Frame 1312316531 (Background/Mask)" width="24.000000" height="24.000000" fill="#C4C4C4"/>
	</mask>
	<g mask="url(#mask155_5132)">
		<path id="Vector 205" d="M3 3L17 3L17 17L3 17L3 3Z" fill-rule="evenodd" fill="#FFFFFF"/>
		<path id="Vector 205" d="M17 3L17 17L3 17L3 3L17 3Z" stroke="#FFFFFF" stroke-width="2.000000" stroke-linejoin="round" stroke-dasharray="0 0"/>
		<path id="Vector 206" d="M6 7C6 6.44775 6.44775 6 7 6L20 6C20.5522 6 21 6.44775 21 7L21 20C21 20.5522 20.5522 21 20 21L7 21C6.44775 21 6 20.5522 6 20L6 7ZM19 8L8 8L8 19L19 19L19 8Z" fill-rule="evenodd" fill="#FFFFFF"/>
	</g>
	<defs/>
</svg>
