<svg width="12" height="15" viewBox="0 0 12 15" fill="none" xmlns="http://www.w3.org/2000/svg">
<path fill-rule="evenodd" clip-rule="evenodd" d="M11.0445 1.57693H8.45422C8.45422 1.08927 8.0748 0.5 7.60632 0.5H4.63974C4.17132 0.5 3.7919 1.08926 3.7919 1.57693H1.2017C0.63004 1.57693 0 1.66233 0 2.23509V3.12119H11.9478V2.23509C11.9478 1.66234 11.6171 1.57693 11.0445 1.57693H11.0445ZM1.05663 4.15747V12.5958C1.05663 13.4538 1.89787 14.5 2.75585 14.5H9.49034C10.3493 14.5 10.9115 13.4538 10.9115 12.5958V4.15747H1.05663ZM3.88637 12.7723H2.84962V5.30531H3.88637V12.7723ZM6.4833 12.7723H5.44655V5.30531H6.4833V12.7723ZM9.08023 12.7723H8.04348V5.30531H9.08023V12.7723Z" fill="#666666"/>
</svg>
