<svg xmlns="http://www.w3.org/2000/svg" width="17" height="15" viewBox="0 0 17 15">
  <defs>
    <style>
      .cls-1 {
        fill: #666fff;
        stroke-miterlimit: 10;
      }

      .cls-2, .cls-3 {
        stroke: none;
      }

      .cls-3 {
        fill: #fff;
      }
    </style>
  </defs>
  <g id="icon_kj_h" transform="translate(1 1)">
    <g id="图标_设置_快捷键">
      <g id="形状" class="cls-1">
        <path class="cls-2" d="M 2.142650127410889 13.49960994720459 L 2.14231014251709 13.49960994720459 L 2.141970157623291 13.49960994720459 C 1.443660259246826 13.49962043762207 0.7852402329444885 13.24412059783936 0.2880001962184906 12.78017997741699 C -0.2126297950744629 12.31418991088867 -0.4999997913837433 11.66413974761963 -0.4999997913837433 10.99709987640381 L -0.4999997913837433 2.003400325775146 C -0.4999997913837433 0.6230202317237854 0.6884301900863647 -0.4999997913837433 2.149200201034546 -0.4999997913837433 L 12.85109996795654 -0.4999997913837433 C 14.31187057495117 -0.4999997913837433 15.50030040740967 0.6230202317237854 15.50030040740967 2.003400325775146 L 15.50030040740967 10.99709987640381 C 15.49915027618408 11.6742000579834 15.21883010864258 12.30697059631348 14.71096038818359 12.77968978881836 C 14.2135705947876 13.24379062652588 13.55419063568115 13.49960041046143 12.85474014282227 13.49960041046143 L 2.149200201034546 13.49960041046143 L 2.142650127410889 13.49960994720459 Z M 3.208500146865845 9.5 C 2.89663028717041 9.5 2.642900228500366 9.724249839782715 2.642900228500366 9.999899864196777 C 2.642900228500366 10.27554988861084 2.89663028717041 10.49980068206787 3.208500146865845 10.49980068206787 L 11.79090023040771 10.49980068206787 C 12.10327053070068 10.49980068206787 12.35739994049072 10.27554988861084 12.35739994049072 9.999899864196777 C 12.35739994049072 9.724249839782715 12.10327053070068 9.5 11.79090023040771 9.5 L 3.208500146865845 9.5 Z M 11.21450042724609 6.500200271606445 L 12.35739994049072 6.500200271606445 L 12.35739994049072 5.500400066375732 L 11.21450042724609 5.500400066375732 L 11.21450042724609 6.500200271606445 Z M 6.928699970245361 6.500200271606445 L 8.071599960327148 6.500200271606445 L 8.071599960327148 5.500400066375732 L 6.928699970245361 5.500400066375732 L 6.928699970245361 6.500200271606445 Z M 2.642900228500366 6.500200271606445 L 3.785800218582153 6.500200271606445 L 3.785800218582153 5.500400066375732 L 2.642900228500366 5.500400066375732 L 2.642900228500366 6.500200271606445 Z M 11.21450042724609 3.499600172042847 L 12.35739994049072 3.499600172042847 L 12.35739994049072 2.499800205230713 L 11.21450042724609 2.499800205230713 L 11.21450042724609 3.499600172042847 Z M 6.928699970245361 3.499600172042847 L 8.071599960327148 3.499600172042847 L 8.071599960327148 2.499800205230713 L 6.928699970245361 2.499800205230713 L 6.928699970245361 3.499600172042847 Z M 2.642900228500366 3.499600172042847 L 3.785800218582153 3.499600172042847 L 3.785800218582153 2.499800205230713 L 2.642900228500366 2.499800205230713 L 2.642900228500366 3.499600172042847 Z"/>
        <path class="cls-3" d="M 2.141960144042969 12.99960994720459 L 2.149200201034546 12.99960041046143 L 12.85474014282227 12.99960041046143 C 13.4271297454834 12.99960041046143 13.96537017822266 12.79152011871338 14.37030029296875 12.41370010375977 C 14.77565002441406 12.03639984130859 14.99939060211182 11.53330039978027 15.00030040740967 10.99709987640381 L 15.00030040740967 2.003400325775146 C 15.00030040740967 0.8987202048301697 14.03617000579834 2.188110386214248e-07 12.85109996795654 2.188110386214248e-07 L 2.149200201034546 2.188110386214248e-07 C 0.9641302227973938 2.188110386214248e-07 2.037048290048915e-07 0.8987202048301697 2.037048290048915e-07 2.003400325775146 L 2.037048290048915e-07 10.99709987640381 C 2.037048290048915e-07 11.52581024169922 0.2293002009391785 12.04246044158936 0.6291002035140991 12.41460037231445 C 1.033440232276917 12.79186058044434 1.570720195770264 12.99962043762207 2.141960144042969 12.99960994720459 M 3.208500146865845 9 L 11.79090023040771 9 C 12.3789701461792 9 12.85739994049072 9.448550224304199 12.85739994049072 9.999899864196777 C 12.85739994049072 10.55125045776367 12.3789701461792 10.99980068206787 11.79090023040771 10.99980068206787 L 3.208500146865845 10.99980068206787 C 2.620930194854736 10.99980068206787 2.142900228500366 10.55125045776367 2.142900228500366 9.999899864196777 C 2.142900228500366 9.448550224304199 2.620930194854736 9 3.208500146865845 9 M 11.00160026550293 5.000400066375732 L 12.60449981689453 5.000400066375732 C 12.79372024536133 5.000400066375732 12.85739994049072 5.157999992370605 12.85739994049072 5.229900360107422 L 12.85739994049072 6.769800186157227 C 12.85739994049072 6.844580173492432 12.85739994049072 7.000200271606445 12.64050006866455 7.000200271606445 L 11.00160026550293 7.000200271606445 C 10.71450042724609 7.000200271606445 10.71450042724609 6.823920249938965 10.71450042724609 6.739200115203857 L 10.71450042724609 5.19480037689209 C 10.71450042724609 5.058890342712402 10.9323902130127 5.000400066375732 11.00160026550293 5.000400066375732 M 6.715800285339355 5.000400066375732 L 8.318699836730957 5.000400066375732 C 8.507920265197754 5.000400066375732 8.571599960327148 5.157999992370605 8.571599960327148 5.229900360107422 L 8.571599960327148 6.769800186157227 C 8.571599960327148 6.844580173492432 8.571599960327148 7.000200271606445 8.354700088500977 7.000200271606445 L 6.715800285339355 7.000200271606445 C 6.428699970245361 7.000200271606445 6.428699970245361 6.823920249938965 6.428699970245361 6.739200115203857 L 6.428699970245361 5.19480037689209 C 6.428699970245361 5.058890342712402 6.646590232849121 5.000400066375732 6.715800285339355 5.000400066375732 M 2.430000305175781 5.000400066375732 L 4.032900333404541 5.000400066375732 C 4.22212028503418 5.000400066375732 4.285799980163574 5.157999992370605 4.285799980163574 5.229900360107422 L 4.285799980163574 6.769800186157227 C 4.285799980163574 6.844580173492432 4.285799980163574 7.000200271606445 4.068900108337402 7.000200271606445 L 2.430000305175781 7.000200271606445 C 2.142900228500366 7.000200271606445 2.142900228500366 6.823920249938965 2.142900228500366 6.739200115203857 L 2.142900228500366 5.19480037689209 C 2.142900228500366 5.058890342712402 2.360790252685547 5.000400066375732 2.430000305175781 5.000400066375732 M 11.00160026550293 1.999800205230713 L 12.60449981689453 1.999800205230713 C 12.79372024536133 1.999800205230713 12.85739994049072 2.158020257949829 12.85739994049072 2.230200290679932 L 12.85739994049072 3.770100116729736 C 12.85739994049072 3.844590187072754 12.85739994049072 3.999600172042847 12.64050006866455 3.999600172042847 L 11.00160026550293 3.999600172042847 C 10.71450042724609 3.999600172042847 10.71450042724609 3.823320150375366 10.71450042724609 3.738600254058838 L 10.71450042724609 2.1951003074646 C 10.71450042724609 2.058560132980347 10.9323902130127 1.999800205230713 11.00160026550293 1.999800205230713 M 6.715800285339355 1.999800205230713 L 8.318699836730957 1.999800205230713 C 8.507920265197754 1.999800205230713 8.571599960327148 2.158020257949829 8.571599960327148 2.230200290679932 L 8.571599960327148 3.770100116729736 C 8.571599960327148 3.844590187072754 8.571599960327148 3.999600172042847 8.354700088500977 3.999600172042847 L 6.715800285339355 3.999600172042847 C 6.428699970245361 3.999600172042847 6.428699970245361 3.823320150375366 6.428699970245361 3.738600254058838 L 6.428699970245361 2.1951003074646 C 6.428699970245361 2.058560132980347 6.646590232849121 1.999800205230713 6.715800285339355 1.999800205230713 M 2.430000305175781 1.999800205230713 L 4.032900333404541 1.999800205230713 C 4.22212028503418 1.999800205230713 4.285799980163574 2.158020257949829 4.285799980163574 2.230200290679932 L 4.285799980163574 3.770100116729736 C 4.285799980163574 3.844590187072754 4.285799980163574 3.999600172042847 4.068900108337402 3.999600172042847 L 2.430000305175781 3.999600172042847 C 2.142900228500366 3.999600172042847 2.142900228500366 3.823320150375366 2.142900228500366 3.738600254058838 L 2.142900228500366 2.1951003074646 C 2.142900228500366 2.058560132980347 2.360790252685547 1.999800205230713 2.430000305175781 1.999800205230713 M 2.143340110778809 13.99960994720459 L 2.142660140991211 13.99960994720459 L 2.141980171203613 13.99960994720459 C 1.316610217094421 13.99962043762207 0.537050187587738 13.69639015197754 -0.05309979617595673 13.14577007293701 C -0.654549777507782 12.58592987060547 -0.9999998211860657 11.80247020721436 -0.9999998211860657 10.99709987640381 L -0.9999998211860657 2.003400325775146 C -0.9999998211860657 0.3473202288150787 0.4127302169799805 -0.9999997615814209 2.149200201034546 -0.9999997615814209 L 12.85109996795654 -0.9999997615814209 C 14.58757019042969 -0.9999997615814209 16.00029945373535 0.3473202288150787 16.00029945373535 2.003400325775146 L 16.00029945373535 10.99709987640381 C 15.99890995025635 11.81510066986084 15.66200065612793 12.57754039764404 15.0516300201416 13.14568042755127 C 14.46177005767822 13.6960506439209 13.68125057220459 13.99960041046143 12.85474014282227 13.99960041046143 L 2.149200201034546 13.99960041046143 L 2.143340110778809 13.99960994720459 Z"/>
      </g>
    </g>
  </g>
</svg>
