<svg xmlns="http://www.w3.org/2000/svg" xmlns:xlink="http://www.w3.org/1999/xlink" width="16" height="16" viewBox="0 0 16 16">
  <defs>
    <style>
      .cls-1 {
        fill: none;
      }

      .cls-2 {
        clip-path: url(#clip-path);
      }

      .cls-3 {
        fill: #666;
      }
    </style>
    <clipPath id="clip-path">
      <path id="路径_279" data-name="路径 279" class="cls-1" d="M11.345-10.437H8.754c0-.488-.379-1.077-.848-1.077H4.94c-.468,0-.848.589-.848,1.077H1.5c-.572,0-1.2.085-1.2.658v.886H12.248v-.886C12.248-10.352,11.917-10.437,11.345-10.437ZM1.357-7.857V.582a2.019,2.019,0,0,0,1.7,1.9H9.79c.859,0,1.421-1.046,1.421-1.9V-7.857ZM4.186.758H3.15V-6.709H4.186Zm2.6,0H5.747V-6.709H6.783Zm2.6,0H8.344V-6.709H9.38Z" transform="translate(-0.3 11.514)"/>
    </clipPath>
  </defs>
  <g id="icon_del_kj" transform="translate(0.7 10.514)">
    <rect id="矩形_95" data-name="矩形 95" class="cls-1" width="16" height="16" transform="translate(-0.7 -10.514)"/>
    <g id="组_481" data-name="组 481" class="cls-2" transform="translate(1.3 -9.514)">
      <path id="路径_278" data-name="路径 278" class="cls-3" d="M-4.7-16.514H19.956V10.194H-4.7Z" transform="translate(-1.654 10.16)"/>
    </g>
  </g>
</svg>
