<svg width="168" height="167" viewBox="0 0 168 167" fill="none" xmlns="http://www.w3.org/2000/svg">
  <path
    d="M163.167 44.8333L123.167 4.83325C117.333 -1.00008 108.167 -1.00008 102.333 4.83325L87.3333 19.8333L97.3333 29.8333L137.333 69.8333L144 76.4999L147.333 79.8333L162.333 64.8333C169 59.8333 169 50.6666 163.167 44.8333ZM38.1667 155.667L34.8333 152.333L14.8333 132.333L11.5 129L2.33332 119L0.666656 117.333V152.333C0.666656 160.667 7.33332 166.5 14.8333 166.5H49.8333L47.3333 164L38.1667 155.667ZM87.3333 40.6666L77.3333 30.6666L4.83332 103.167L14.8333 113.167L54.8333 153.167L64.8333 163.167L136.5 91.4999L126.5 80.6666L87.3333 40.6666Z"
    fill="#666" />
</svg>
