<svg xmlns="http://www.w3.org/2000/svg" width="16" height="16" viewBox="0 0 16 16"><rect width="16" height="16" fill="none"/><g transform="translate(1 2)"><path d="M2,12a2.071,2.071,0,0,1-1.412-.54A1.791,1.791,0,0,1,0,10.151v-8.3A1.935,1.935,0,0,1,2.006,0h9.988A1.935,1.935,0,0,1,14,1.849v8.3a1.77,1.77,0,0,1-.588,1.308A2.075,2.075,0,0,1,12,12H2Zm1-3.692a.926.926,0,1,0,0,1.846H11a.926.926,0,1,0,0-1.846Zm7.273-3.692C10.2,4.616,10,4.67,10,4.8V6.221c0,.078,0,.241.268.241H11.8c.2,0,.2-.144.2-.213V4.828a.226.226,0,0,0-.236-.212Zm-4,0C6.2,4.616,6,4.67,6,4.8V6.221c0,.078,0,.241.268.241H7.8c.2,0,.2-.144.2-.213V4.828a.226.226,0,0,0-.236-.212Zm-4,0C2.2,4.616,2,4.67,2,4.8V6.221c0,.078,0,.241.268.241H3.8c.2,0,.2-.144.2-.213V4.828a.226.226,0,0,0-.236-.212Zm8-2.77c-.065,0-.268.054-.268.18V3.451c0,.078,0,.241.268.241H11.8c.2,0,.2-.143.2-.212V2.059a.226.226,0,0,0-.236-.213Zm-4,0C6.2,1.846,6,1.9,6,2.026V3.451c0,.078,0,.241.268.241H7.8c.2,0,.2-.143.2-.212V2.059a.226.226,0,0,0-.236-.213Zm-4,0C2.2,1.846,2,1.9,2,2.026V3.451c0,.078,0,.241.268.241H3.8c.2,0,.2-.143.2-.212V2.059a.226.226,0,0,0-.236-.213Z" fill="#fff"/></g></svg>