<svg xmlns="http://www.w3.org/2000/svg" xmlns:xlink="http://www.w3.org/1999/xlink" width="16" height="16" viewBox="0 0 16 16"><defs><clipPath id="a"><path d="M8.4-7.469a.381.381,0,0,1,.382.382h0V-2.15a.381.381,0,0,1-.382.382H2.1a.381.381,0,0,1-.382-.382h0V-7.087A.381.381,0,0,1,2.1-7.469H8.4Zm-.525.906H2.627v3.887H7.874Z" transform="translate(-1.721 7.469)" fill="none"/></clipPath><clipPath id="b"><path d="M16.812-10.1a4.782,4.782,0,0,0-1.839,3.751l-.763,0a.093.093,0,0,0-.073.15l1.2,1.526a.094.094,0,0,0,.147,0L16.694-6.2a.093.093,0,0,0-.073-.15H15.86a4.019,4.019,0,0,1,.03-.463,3.888,3.888,0,0,1,.461-1.419,3.9,3.9,0,0,1,1.005-1.173,3.884,3.884,0,0,1,1.381-.693,3.887,3.887,0,0,1,1.488-.106c.064.008.129.017.192.029v-.893A4.752,4.752,0,0,0,16.812-10.1Z" transform="translate(-14.118 11.118)" fill="none"/></clipPath><clipPath id="c"><path d="M13.382-15.3A.381.381,0,0,1,13-15.682h0v-4.937A.381.381,0,0,1,13.382-21h6.3a.381.381,0,0,1,.382.382h0v4.937a.381.381,0,0,1-.382.382h-6.3Zm.525-.906h5.247v-3.887H13.906Z" transform="translate(-13 21)" fill="none"/></clipPath><clipPath id="d"><path d="M4.583-12.907a4.782,4.782,0,0,0,1.839-3.751l.763,0a.093.093,0,0,0,.073-.15l-1.2-1.526a.094.094,0,0,0-.147,0L4.7-16.809a.093.093,0,0,0,.073.15h.762a4.017,4.017,0,0,1-.03.463,3.888,3.888,0,0,1-.461,1.419A3.9,3.9,0,0,1,4.039-13.6a3.884,3.884,0,0,1-1.381.693,3.887,3.887,0,0,1-1.488.106c-.064-.008-.129-.017-.192-.029v.893A4.752,4.752,0,0,0,4.583-12.907Z" transform="translate(-0.978 18.372)" fill="none"/></clipPath></defs><g transform="translate(0)"><rect width="16" height="16" transform="translate(0)" fill="none"/><g transform="translate(0 0.294)"><g transform="translate(8.374)" clip-path="url(#a)"><path d="M-3.279-12.469H11.412V.863H-3.279Z" transform="translate(-0.537 8.653)" fill="#666"/></g><g transform="translate(0 2.005)" clip-path="url(#b)"><path d="M9.118-2.007V-16.118H23.049V-2.007Z" transform="translate(-12.934 12.302)" fill="#666"/></g><rect width="6" height="5" transform="translate(0.327 10.603)" fill="#ccc"/><g transform="translate(0.093 10.006)" clip-path="url(#c)"><path d="M22.691-12.669H8V-26H22.691Z" transform="translate(-11.816 22.184)" fill="#666"/></g><g transform="translate(9.701 7.221)" clip-path="url(#d)"><path d="M9.909-23.372V-9.261H-4.022V-23.372Z" transform="translate(0.206 19.556)" fill="#666"/></g></g></g></svg>