<svg xmlns="http://www.w3.org/2000/svg" xmlns:xlink="http://www.w3.org/1999/xlink" width="16" height="16" viewBox="0 0 16 16"><defs><clipPath id="a"><path d="M2.1-1.769a.381.381,0,0,1-.382-.382h0V-7.087A.381.381,0,0,1,2.1-7.469H8.4a.381.381,0,0,1,.382.382h0V-2.15a.381.381,0,0,1-.382.382H2.1Zm.525-.906H7.874V-6.562H2.627Z" transform="translate(-1.721 7.469)" fill="none"/></clipPath><clipPath id="b"><path d="M17.723-5.652A4.782,4.782,0,0,0,19.561-9.4l.763,0a.093.093,0,0,0,.073-.15l-1.2-1.526a.094.094,0,0,0-.147,0L17.841-9.555a.093.093,0,0,0,.073.15h.762a4.019,4.019,0,0,1-.03.463,3.888,3.888,0,0,1-.461,1.419A3.9,3.9,0,0,1,17.179-6.35a3.884,3.884,0,0,1-1.381.693,3.887,3.887,0,0,1-1.488.106c-.064-.008-.129-.017-.192-.029v.893A4.752,4.752,0,0,0,17.723-5.652Z" transform="translate(-14.118 11.118)" fill="none"/></clipPath><clipPath id="c"><path d="M19.678-21a.381.381,0,0,1,.382.382h0v4.937a.381.381,0,0,1-.382.382h-6.3A.381.381,0,0,1,13-15.682h0v-4.937A.381.381,0,0,1,13.382-21h6.3Zm-.525.906H13.906v3.887h5.247Z" transform="translate(-13 21)" fill="none"/></clipPath><clipPath id="d"><path d="M3.673-17.359a4.782,4.782,0,0,0-1.839,3.751l-.763,0a.093.093,0,0,0-.073.15l1.2,1.526a.094.094,0,0,0,.147,0l1.206-1.528a.093.093,0,0,0-.073-.15H2.72a4.017,4.017,0,0,1,.03-.463,3.888,3.888,0,0,1,.461-1.419,3.9,3.9,0,0,1,1.005-1.173A3.884,3.884,0,0,1,5.6-17.354a3.887,3.887,0,0,1,1.488-.106c.064.008.129.017.192.029v-.893A4.752,4.752,0,0,0,3.673-17.359Z" transform="translate(-0.978 18.372)" fill="none"/></clipPath></defs><g transform="translate(-957 -603)"><rect width="16" height="16" transform="translate(957 603)" fill="none"/><g transform="translate(956.022 624)"><g transform="translate(1.545 -10.994)" clip-path="url(#a)"><path d="M11.412.863H-3.279V-12.469H11.412Z" transform="translate(-0.537 8.653)" fill="#666"/></g><g transform="translate(10.679 -13.779)" clip-path="url(#b)"><path d="M23.049-16.118V-2.007H9.118V-16.118Z" transform="translate(-12.934 12.302)" fill="#666"/></g><rect width="6" height="5" transform="translate(10.652 -20.897)" fill="#ccc"/><g transform="translate(9.826 -21)" clip-path="url(#c)"><path d="M8-26H22.691v13.331H8Z" transform="translate(-11.816 22.184)" fill="#666"/></g><g transform="translate(0.978 -18.995)" clip-path="url(#d)"><path d="M-4.022-9.261V-23.372H9.909V-9.261Z" transform="translate(0.206 19.556)" fill="#666"/></g></g></g></svg>