<svg width="168" height="167" viewBox="0 0 168 167" fill="none" xmlns="http://www.w3.org/2000/svg">
  <path
    d="M80 119C80 114.029 84.0294 110 89 110H146C150.971 110 155 114.029 155 119C155 123.971 150.971 128 146 128H89C84.0294 128 80 123.971 80 119Z"
    fill="#666" />
  <path
    d="M123.167 4.83325L163.167 44.8333C169 50.6666 169 59.8333 162.333 64.8333L147.333 79.8333L87.3333 19.8333L102.333 4.83325C108.167 -1.00008 117.333 -1.00008 123.167 4.83325Z"
    fill="#666" />
  <path
    d="M38.1667 155.667L47.3333 164L49.8333 166.5H14.8333C7.33333 166.5 0.666668 160.667 0.666668 152.333V117.333L2.33333 119L11.5 129L38.1667 155.667Z"
    fill="#666" />
  <path
    d="M77.3333 30.6666L87.3333 40.6666L117.811 71.7931C115.121 71.2726 112.342 71 109.5 71C85.4756 71 66 90.4756 66 114.5C66 127.53 71.729 139.222 80.8055 147.194L64.8333 163.167L4.83333 103.167L77.3333 30.6666Z"
    fill="#666" />
</svg>
