<svg xmlns="http://www.w3.org/2000/svg" xmlns:xlink="http://www.w3.org/1999/xlink" width="16" height="16" viewBox="0 0 16 16"><defs><clipPath id="a"><path d="M0,0H16V-16H0Z" fill="none"/></clipPath><clipPath id="b"><path d="M13.958-11.417l-2.541-2.541a1,1,0,0,0-.708-.292H2.25a.5.5,0,0,0-.5.5v11.5a.5.5,0,0,0,.5.5h11.5a.5.5,0,0,0,.5-.5v-8.461A1,1,0,0,0,13.958-11.417ZM6-13.25h4v1.75H6ZM8-4.594a2.251,2.251,0,0,1-2.25-2.25A2.251,2.251,0,0,1,8-9.094a2.251,2.251,0,0,1,2.25,2.25A2.251,2.251,0,0,1,8-4.594Zm0-3.5a1.25,1.25,0,0,0-1.25,1.25A1.25,1.25,0,0,0,8-5.594a1.25,1.25,0,0,0,1.25-1.25A1.25,1.25,0,0,0,8-8.094Z" fill="none"/></clipPath></defs><g transform="translate(0 16)"><g clip-path="url(#a)"><path d="M-5-21H21V5H-5Z" fill="rgba(0,0,0,0)"/></g><g clip-path="url(#b)"><path d="M-3.25-19.25h22.5V3.25H-3.25Z" fill="#666"/></g></g></svg>