<svg id="icon_pen_kj" xmlns="http://www.w3.org/2000/svg" width="16" height="16" viewBox="0 0 16 16">
  <defs>
    <style>
      .cls-1 {
        opacity: 0;
      }

      .cls-2 {
        fill: #666;
      }
    </style>
  </defs>
  <rect id="矩形" class="cls-1" width="16" height="16"/>
  <path id="形状" class="cls-2" d="M2.8,14h0A6.309,6.309,0,0,1,0,13.345a2.194,2.194,0,0,0,1.077-.566,2.053,2.053,0,0,0,.6-1.873.121.121,0,0,1-.024-.09A3.066,3.066,0,0,1,2.514,7.86a3.339,3.339,0,0,1,4.535.056,3.044,3.044,0,0,1,.058,4.365A6.172,6.172,0,0,1,2.8,14ZM8.976,8a.31.31,0,0,1-.248-.131L7.1,6.016A.4.4,0,0,1,7,5.721a.385.385,0,0,1,.134-.278L13.3.1a.415.415,0,0,1,.264-.1.427.427,0,0,1,.311.139A.58.58,0,0,1,13.916.8L9.249,7.83A.323.323,0,0,1,9,8Z" transform="translate(1 1)"/>
</svg>
