<svg id="icon_eraser_kj" xmlns="http://www.w3.org/2000/svg" width="16" height="16" viewBox="0 0 16 16">
  <defs>
    <style>
      .cls-1 {
        opacity: 0;
      }

      .cls-2 {
        fill: none;
        stroke-miterlimit: 10;
      }

      .cls-3, .cls-5 {
        fill: #666;
      }

      .cls-4, .cls-5 {
        stroke: none;
      }
    </style>
  </defs>
  <rect id="矩形" class="cls-1" width="16" height="16" transform="translate(0 0)"/>
  <g id="矩形-2" data-name="矩形" class="cls-2" transform="translate(-0.828)">
    <path class="cls-4" d="M9.64,0l7.188,7.188L8.562,15.454a1.864,1.864,0,0,1-2.635,0L1.374,10.9a1.864,1.864,0,0,1,0-2.635Z"/>
    <path class="cls-5" d="M 9.640466690063477 2.828417778015137 L 2.884941101074219 9.583943367004395 L 7.244481086730957 13.94348335266113 L 14.00000667572021 7.187957763671875 L 9.640466690063477 2.828417778015137 M 9.640466690063477 -1.9073486328125e-06 L 16.82842636108398 7.187957763671875 L 8.562206268310547 15.45417785644531 C 8.198326110839844 15.81805801391602 7.721404075622559 15.99999809265137 7.244481086730957 15.99999809265137 C 6.767559051513672 15.99999809265137 6.29063606262207 15.81805801391602 5.926755905151367 15.45417785644531 L 1.374246597290039 10.90166854858398 C 0.6464862823486328 10.17390823364258 0.6464862823486328 8.993978500366211 1.374246597290039 8.266218185424805 L 9.640466690063477 -1.9073486328125e-06 Z"/>
  </g>
  <path id="矩形-3" data-name="矩形" class="cls-3" d="M3.333,0,10,6.666,6.666,10,0,3.333Z" transform="translate(3.378 2.623)"/>
</svg>
