<svg xmlns="http://www.w3.org/2000/svg" width="16" height="16" viewBox="0 0 16 16">
  <defs>
    <style>
      .cls-1 {
        opacity: 0;
      }

      .cls-2 {
        fill: #666;
      }
    </style>
  </defs>
  <g id="icon_reload_kj" transform="translate(-1 -1.432)">
    <rect id="矩形" class="cls-1" width="16" height="16" transform="translate(1 1.432)"/>
    <path id="路径" class="cls-2" d="M12.917,1.955l-.9.735A6.615,6.615,0,0,0,6.72,0,6.86,6.86,0,0,0,0,6.992,6.864,6.864,0,0,0,6.72,14a6.745,6.745,0,0,0,6.315-4.6.135.135,0,0,0-.078-.172L12.05,8.9a.127.127,0,0,0-.162.08c-.029.083-.061.167-.094.248a5.722,5.722,0,0,1-1.18,1.823,5.511,5.511,0,0,1-1.749,1.23,5.32,5.32,0,0,1-4.283,0,5.459,5.459,0,0,1-1.749-1.23A5.722,5.722,0,0,1,1.653,9.23a5.979,5.979,0,0,1,0-4.463,5.722,5.722,0,0,1,1.18-1.823,5.511,5.511,0,0,1,1.749-1.23,5.32,5.32,0,0,1,4.283,0,5.459,5.459,0,0,1,1.749,1.23,5.678,5.678,0,0,1,.445.523L10.1,4.25a.135.135,0,0,0,.048.235l2.81.717a.13.13,0,0,0,.158-.128l.013-3.015a.129.129,0,0,0-.208-.1Z" transform="translate(2 2.432)"/>
  </g>
</svg>
