<svg width="19" height="22" viewBox="0 0 19 22" fill="none" xmlns="http://www.w3.org/2000/svg">
<rect x="5.44312" y="8.07031" width="11.4456" height="12.3175" fill="#DDDDDD" stroke="#999999"/>
<path d="M6.72112 6.61914H4.0542V9.47289H6.72112V6.61914Z" fill="#999999"/>
<path d="M6.72112 18.9854H4.0542V21.8391H6.72112V18.9854Z" fill="#999999"/>
<path d="M18.2778 18.9854H15.6108V21.8391H18.2778V18.9854Z" fill="#999999"/>
<path d="M18.2778 6.61914H15.6108V9.47289H18.2778V6.61914Z" fill="#999999"/>
<path fill-rule="evenodd" clip-rule="evenodd" d="M8.19665 2.32324L5.76025 0L5.74175 1.83951C3.6616 1.86624 2.25191 2.81586 1.35538 3.9989C0.461008 5.17909 0.0803507 6.58271 0 7.52848L0.996411 7.61314C1.06422 6.81495 1.39474 5.60263 2.15238 4.60288C2.88091 3.64152 4.00677 2.86864 5.73169 2.83977L5.71401 4.59699L8.19665 2.32324Z" fill="#999999"/>
</svg>
