<svg xmlns="http://www.w3.org/2000/svg" xmlns:xlink="http://www.w3.org/1999/xlink" width="16" height="16" viewBox="0 0 16 16">
  <defs>
    <style>
      .cls-1 {
        fill: none;
      }

      .cls-2 {
        fill: #666;
      }

      .cls-3 {
        clip-path: url(#clip-path);
      }

      .cls-4 {
        fill: rgba(0,0,0,0);
      }
    </style>
    <clipPath id="clip-path">
      <path id="路径_492" data-name="路径 492" class="cls-1" d="M0,2H16V-14H0Z" transform="translate(0 14)"/>
    </clipPath>
  </defs>
  <g id="icon_noDisplay" transform="translate(0 15)">
    <g id="组_817" data-name="组 817" class="cls-3" transform="translate(0 -15)">
      <path id="路径_491" data-name="路径 491" class="cls-4" d="M-5-19H21V7H-5Z" transform="translate(0 15)"/>
    </g>
    <path id="减去_1" data-name="减去 1" class="cls-2" d="M7.114,9.861a7.321,7.321,0,0,1-3.965-1.19A8.865,8.865,0,0,1,.159,5.522a1.179,1.179,0,0,1,0-1.181,8.865,8.865,0,0,1,2.989-3.15c.1-.065.206-.128.311-.188l1.51,1.628a2.682,2.682,0,0,0-.27,1.2.42.42,0,0,0,.111.292.351.351,0,0,0,.267.119.367.367,0,0,0,.274-.119.414.414,0,0,0,.111-.292,1.928,1.928,0,0,1,.086-.582L9.065,7.047a3.241,3.241,0,0,1-1.949.623A3.325,3.325,0,0,1,4.6,6.545,3.852,3.852,0,0,1,3.556,3.836,3.98,3.98,0,0,1,4.04,1.91,8.1,8.1,0,0,0,1.015,4.931a8.574,8.574,0,0,0,2.647,2.8,6.217,6.217,0,0,0,3.451,1.04A6.16,6.16,0,0,0,10,8.057l.755.814A7.261,7.261,0,0,1,7.114,9.861Zm4.659-1.67h0l-.739-.8A8.7,8.7,0,0,0,13.21,4.931,8.088,8.088,0,0,0,10.185,1.91a3.981,3.981,0,0,1,.484,1.926,3.868,3.868,0,0,1-.751,2.357L6.295,2.286a1.512,1.512,0,0,1,.818-.23.357.357,0,0,0,.27-.12.409.409,0,0,0,.111-.292.417.417,0,0,0-.111-.292.355.355,0,0,0-.27-.12,2.2,2.2,0,0,0-1.368.46L4.6.46A7.088,7.088,0,0,1,7.114,0a7.321,7.321,0,0,1,3.965,1.19,8.85,8.85,0,0,1,2.989,3.15,1.179,1.179,0,0,1,0,1.181,8.821,8.821,0,0,1-2.295,2.669Z" transform="translate(1.088 -11.738)"/>
    <rect id="矩形_235" data-name="矩形 235" class="cls-2" width="1.166" height="18.662" transform="matrix(0.719, -0.695, 0.695, 0.719, 0.745, -12.953)"/>
  </g>
</svg>
