<svg xmlns="http://www.w3.org/2000/svg" xmlns:xlink="http://www.w3.org/1999/xlink" width="16" height="16" viewBox="0 0 16 16"><defs><clipPath id="a"><path d="M0,0H16V-16H0Z" fill="none"/></clipPath><clipPath id="b"><path d="M6.786-12A8.1,8.1,0,0,1,9-11.709a2.652,2.652,0,0,0-.13.824v1.034H7.952a.7.7,0,0,0-.294.067,3.038,3.038,0,0,0-.934-.145A2.6,2.6,0,0,0,3.984-7.5,2.6,2.6,0,0,0,6.723-5.071q.126,0,.249-.01V-3.2A.867.867,0,0,0,6.994-3L6.786-3A7.168,7.168,0,0,1,.09-7.144a.748.748,0,0,1,0-.711A7.165,7.165,0,0,1,6.786-12ZM6.723-9.046a1.971,1.971,0,0,1,.313.025,1.124,1.124,0,0,0-.064.359V-5.97a1.978,1.978,0,0,1-.25.016A1.654,1.654,0,0,1,4.98-7.5,1.654,1.654,0,0,1,6.723-9.046Z" fill="none"/></clipPath><clipPath id="c"><path d="M15.214-9.35h-.731v-1.141A2.5,2.5,0,0,0,12-13a2.5,2.5,0,0,0-2.48,2.509V-9.35H8.786a.789.789,0,0,0-.786.8V-3.8a.789.789,0,0,0,.786.8h6.428A.789.789,0,0,0,16-3.8V-8.549A.794.794,0,0,0,15.214-9.35Zm-3.2-2.741c.983,0,1.416.611,1.416,1.695v1.032H10.578V-10.4C10.578-11.479,11.027-12.1,12.01-12.091Zm.57,5.74v1.182a.3.3,0,0,1-.144.246.574.574,0,0,1-.339.1c-.262,0-.482-.16-.482-.351V-6.351A.647.647,0,0,1,11.2-6.9c0-.357.4-.646.889-.646s.889.289.889.646A.613.613,0,0,1,12.58-6.351Z" fill="none"/></clipPath></defs><g transform="translate(0 16)"><g clip-path="url(#a)"><path d="M-5-21H21V5H-5Z" fill="rgba(0,0,0,0)"/></g><g clip-path="url(#b)"><path d="M-5-17H14V2H-5Z" fill="#666"/></g><g clip-path="url(#c)"><path d="M3-18H21V2H3Z" fill="#666"/></g></g></svg>