<svg width="161" height="162" viewBox="0 0 161 162" fill="none" xmlns="http://www.w3.org/2000/svg">
  <path fill-rule="evenodd" clip-rule="evenodd"
    d="M141.05 20.1629C143.784 22.8966 148.216 22.8966 150.95 20.1629C153.683 17.4292 153.683 12.9971 150.95 10.2634C148.216 7.52972 143.784 7.52972 141.05 10.2634C138.317 12.9971 138.317 17.4292 141.05 20.1629ZM135.393 25.8197C141.251 31.6776 150.749 31.6776 156.607 25.8197C162.465 19.9619 162.465 10.4644 156.607 4.60653C150.749 -1.25133 141.251 -1.25133 135.393 4.60653C129.536 10.4644 129.536 19.9619 135.393 25.8197Z"
    fill="#666" />
  <path fill-rule="evenodd" clip-rule="evenodd"
    d="M10.2356 150.978C12.9692 153.711 17.4014 153.711 20.135 150.978C22.8687 148.244 22.8687 143.812 20.135 141.078C17.4014 138.344 12.9692 138.344 10.2356 141.078C7.50188 143.812 7.50188 148.244 10.2356 150.978ZM4.5787 156.634C10.4366 162.492 19.934 162.492 25.7919 156.634C31.6498 150.777 31.6498 141.279 25.7919 135.421C19.934 129.563 10.4366 129.563 4.5787 135.421C-1.27916 141.279 -1.27916 150.777 4.5787 156.634Z"
    fill="#666" />
  <path fill-rule="evenodd" clip-rule="evenodd"
    d="M135.393 25.8197C137.22 27.6466 139.401 28.9037 141.715 29.5911L29.5633 141.743C28.8759 139.429 27.6188 137.248 25.7919 135.421C23.8729 133.502 21.5632 132.212 19.1189 131.55L131.522 19.1467C132.184 21.591 133.474 23.9007 135.393 25.8197Z"
    fill="#666" />
</svg>
