<svg id="icon_unGrip_kj" xmlns="http://www.w3.org/2000/svg" width="16" height="16" viewBox="0 0 16 16">
  <defs>
    <style>
      .cls-1 {
        fill: none;
      }

      .cls-2 {
        fill: #666;
      }
    </style>
  </defs>
  <rect id="矩形备份_10" data-name="矩形备份 10" class="cls-1" width="16" height="16"/>
  <path id="减去_14" data-name="减去 14" class="cls-2" d="M12806.69-12915.114c-.083,0-.175,0-.282-.008a5.869,5.869,0,0,1-3.878-1.69,5.509,5.509,0,0,1-1.6-4.091,6.209,6.209,0,0,1,2.044-4.437l1.039-.934,2.459,2.731-1.168,1.052a2.434,2.434,0,0,0-.522,2.823,2.39,2.39,0,0,0,1.854.923,2,2,0,0,0,1.346-.508l1.3-1.171,2.46,2.732-1.169,1.054A5.813,5.813,0,0,1,12806.69-12915.114Zm6.1-3.518h0l-2.477-2.717,1.962-1.769a.619.619,0,0,1,.412-.164.6.6,0,0,1,.454.209l1.639,1.824a.6.6,0,0,1-.046.863l-1.942,1.753Zm-5.33-5.8h0l-2.523-2.675,1.938-1.745a.614.614,0,0,1,.412-.163.609.609,0,0,1,.455.209l1.769,1.7a.6.6,0,0,1-.046.866l-2,1.8Z" transform="translate(-12800 12929.97)"/>
  <rect id="矩形_271" data-name="矩形 271" class="cls-2" width="1.166" height="18.662" transform="matrix(0.719, -0.695, 0.695, 0.719, 0.745, 2.047)"/>
</svg>
