<?xml version="1.0" standalone="no"?><!DOCTYPE svg PUBLIC "-//W3C//DTD SVG 1.1//EN" "http://www.w3.org/Graphics/SVG/1.1/DTD/svg11.dtd"><svg t="1629625913681" class="icon" viewBox="0 0 1024 1024" version="1.1" xmlns="http://www.w3.org/2000/svg" p-id="1186" xmlns:xlink="http://www.w3.org/1999/xlink" width="200" height="200"><defs><style type="text/css"></style></defs><path d="M895.885714 603.428571H100.571429c-5.028571 0-9.142857 4.114286-9.142858 9.142858v68.571428c0 5.028571 4.114286 9.142857 9.142858 9.142857h691.657142L627.314286 899.428571c-4.685714 5.942857-0.457143 14.857143 7.2 14.857143h82.857143c5.6 0 10.857143-2.514286 14.4-6.971428l192.914285-244.685715c18.857143-24 1.828571-59.2-28.8-59.2zM923.428571 333.714286H231.771429l164.914285-209.142857c4.685714-5.942857 0.457143-14.857143-7.2-14.857143h-82.857143c-5.6 0-10.857143 2.514286-14.4 6.971428L99.314286 361.371429c-18.857143 24-1.828571 59.2 28.685714 59.2h795.428571c5.028571 0 9.142857-4.114286 9.142858-9.142858v-68.571428c0-5.028571-4.114286-9.142857-9.142858-9.142857z" p-id="1187"></path></svg>