<svg id="icon_lineSpecial_kj" xmlns="http://www.w3.org/2000/svg" width="16" height="16" viewBox="0 0 16 16">
  <defs>
    <style>
      .cls-1 {
        fill: #ccc;
      }

      .cls-2 {
        fill: none;
      }

      .cls-3 {
        fill: #fff;
        stroke: #666;
        stroke-miterlimit: 10;
      }

      .cls-4, .cls-5 {
        fill: #666;
      }

      .cls-4 {
        stroke: rgba(0,0,0,0);
      }
    </style>
  </defs>
  <path id="路径_607" data-name="路径 607" class="cls-1" d="M12.564,4.659l-8.833,9.22h8.833Z" transform="translate(0 -1)"/>
  <rect id="矩形备份_10" data-name="矩形备份 10" class="cls-2" width="16" height="16"/>
  <rect id="矩形备份_14" data-name="矩形备份 14" class="cls-3" width="3" height="3" transform="translate(5.222 14.222) rotate(180)"/>
  <rect id="矩形备份_14-2" data-name="矩形备份 14" class="cls-3" width="3" height="3" transform="translate(14.222 5.222) rotate(180)"/>
  <path id="矩形备份" class="cls-4" d="M0,0H1.5l.011,1.686H.011Z" transform="translate(5.604 11.916) rotate(-135)"/>
  <path id="矩形备份-2" data-name="矩形备份" class="cls-4" d="M0,0H1.5l.011,1.686H.011Z" transform="translate(8.115 9.239) rotate(-135)"/>
  <path id="矩形备份-3" data-name="矩形备份" class="cls-4" d="M0,0H1.5l.011,1.686H.011Z" transform="translate(10.625 6.561) rotate(-135)"/>
  <rect id="矩形_255" data-name="矩形 255" class="cls-5" width="1.5" height="7" transform="translate(12 5)"/>
  <rect id="矩形_261" data-name="矩形 261" class="cls-5" width="1.5" height="8" transform="translate(4.75 13.5) rotate(-90)"/>
  <rect id="矩形备份_14-3" data-name="矩形备份 14" class="cls-3" width="3" height="3" transform="translate(14.222 14.222) rotate(180)"/>
</svg>
