<svg width="20" height="20" viewBox="0 0 20 20" fill="none" xmlns="http://www.w3.org/2000/svg">
<rect x="7.16528" y="6.23145" width="11.4456" height="12.3175" fill="#DDDDDD" stroke="#999999"/>
<path d="M8.44328 4.78027H5.77637V7.63402H8.44328V4.78027Z" fill="#999999"/>
<path d="M8.44328 17.1465H5.77637V20.0002H8.44328V17.1465Z" fill="#999999"/>
<path d="M19.9999 17.1465H17.333V20.0002H19.9999V17.1465Z" fill="#999999"/>
<path d="M19.9999 4.78027H17.333V7.63402H19.9999V4.78027Z" fill="#999999"/>
<path fill-rule="evenodd" clip-rule="evenodd" d="M2.77621 5.33716C2.91025 4.57241 3.24489 3.59478 3.87452 2.76394C4.61708 1.78407 5.77243 1 7.55418 1V0C5.42445 0 3.98696 0.95989 3.07752 2.15996C2.28856 3.20105 1.89936 4.416 1.76341 5.33716H0L2.29861 7.7968L4.59722 5.33716H2.77621Z" fill="#999999"/>
</svg>
