<svg xmlns="http://www.w3.org/2000/svg" xmlns:xlink="http://www.w3.org/1999/xlink" width="14" height="14" viewBox="0 0 14 14">
  <defs>
    <style>
      .cls-1 {
        fill: none;
      }

      .cls-2 {
        clip-path: url(#clip-path);
      }

      .cls-3 {
        fill: rgba(0,0,0,0);
      }

      .cls-4 {
        clip-path: url(#clip-path-2);
      }

      .cls-5 {
        fill: #666;
      }
    </style>
    <clipPath id="clip-path">
      <path id="路径_492" data-name="路径 492" class="cls-1" d="M0,0H14V-14H0Z" transform="translate(0 14)"/>
    </clipPath>
    <clipPath id="clip-path-2">
      <path id="路径_494" data-name="路径 494" class="cls-1" d="M12.6-7.341A6.7,6.7,0,0,0,10-9.75a2.982,2.982,0,0,1,.417,1.535,2.946,2.946,0,0,1-.9,2.16,2.94,2.94,0,0,1-2.16.9,2.949,2.949,0,0,1-2.16-.9,2.942,2.942,0,0,1-.9-2.16A2.982,2.982,0,0,1,4.716-9.75a6.71,6.71,0,0,0-2.6,2.409A7.041,7.041,0,0,0,4.391-5.113a5.618,5.618,0,0,0,2.965.829,5.618,5.618,0,0,0,2.965-.829A7.04,7.04,0,0,0,12.6-7.341ZM7.684-9.961a.318.318,0,0,0-.1-.232.312.312,0,0,0-.232-.1,2,2,0,0,0-1.464.611,2,2,0,0,0-.611,1.464.318.318,0,0,0,.1.232.312.312,0,0,0,.232.1.321.321,0,0,0,.232-.1.314.314,0,0,0,.1-.232,1.365,1.365,0,0,1,.417-1,1.371,1.371,0,0,1,1-.417.318.318,0,0,0,.232-.1A.312.312,0,0,0,7.684-9.961Zm5.786,2.62a.944.944,0,0,1-.136.471,7.241,7.241,0,0,1-2.569,2.515,6.639,6.639,0,0,1-3.408.945A6.62,6.62,0,0,1,3.95-4.359,7.29,7.29,0,0,1,1.381-6.87a.944.944,0,0,1-.136-.471.944.944,0,0,1,.136-.471A7.29,7.29,0,0,1,3.95-10.323a6.62,6.62,0,0,1,3.408-.948,6.621,6.621,0,0,1,3.408.948,7.29,7.29,0,0,1,2.569,2.511A.944.944,0,0,1,13.47-7.341Z" transform="translate(-1.245 11.271)"/>
    </clipPath>
  </defs>
  <g id="icon_openImg" transform="translate(0 15)">
    <g id="组_817" data-name="组 817" class="cls-2" transform="translate(0 -15)">
      <path id="路径_491" data-name="路径 491" class="cls-3" d="M-5-19H17.75V3.75H-5Z" transform="translate(0.625 15.5)"/>
    </g>
    <g id="组_818" data-name="组 818" class="cls-4" transform="translate(1.089 -11.737)">
      <path id="路径_493" data-name="路径 493" class="cls-5" d="M-3.755-16.271H17.22V.339H-3.755Z" transform="translate(-0.62 11.896)"/>
    </g>
  </g>
</svg>
