<svg width="14" height="9" viewBox="0 0 14 9" fill="none" xmlns="http://www.w3.org/2000/svg">
<path d="M6.63183 8.76803L0.0998325 1.20003C0.0455103 1.13484 0.0117931 1.05497 0.002964 0.970576C-0.00586511 0.886179 0.0105934 0.801062 0.0502481 0.726039C0.0899029 0.651017 0.150965 0.589475 0.225674 0.549233C0.300383 0.508992 0.385368 0.491867 0.469832 0.500033L13.5298 0.500034C13.6143 0.491867 13.6993 0.508992 13.774 0.549234C13.8487 0.589476 13.9098 0.651017 13.9494 0.72604C13.9891 0.801062 14.0055 0.886179 13.9967 0.970577C13.9879 1.05497 13.9542 1.13484 13.8998 1.20003L7.36983 8.77203C7.32271 8.82302 7.26548 8.86363 7.2018 8.89128C7.13812 8.91893 7.06938 8.93301 6.99995 8.93264C6.93053 8.93226 6.86194 8.91743 6.79856 8.88909C6.73518 8.86075 6.6784 8.81952 6.63183 8.76803Z" fill="#666666"/>
</svg>
