<svg width="14" height="9" viewBox="0 0 14 9" fill="none" xmlns="http://www.w3.org/2000/svg">
<path d="M7.368 0.662974L13.9 8.23497C13.9542 8.30004 13.9878 8.3797 13.9967 8.46388C14.0055 8.54807 13.9893 8.63299 13.9499 8.70792C13.9105 8.78284 13.8497 8.84441 13.7754 8.88482C13.701 8.92524 13.6163 8.94269 13.532 8.93497L0.470002 8.93497C0.385705 8.94269 0.301012 8.92524 0.226634 8.88482C0.152256 8.84441 0.0915314 8.78284 0.0521418 8.70792C0.0127522 8.63299 -0.00353562 8.54807 0.00533927 8.46388C0.0142142 8.3797 0.0478531 8.30004 0.102002 8.23497L6.632 0.662974C6.67883 0.612061 6.73572 0.571419 6.79906 0.543619C6.8624 0.515819 6.93083 0.501465 7 0.501465C7.06918 0.501465 7.1376 0.515819 7.20094 0.543619C7.26429 0.571419 7.32117 0.612061 7.368 0.662974Z" fill="#666666"/>
</svg>
